<svg xmlns="http://www.w3.org/2000/svg" viewBox="0 0 271.18 32.87"><defs><style>.cls-1{fill:#fff}</style></defs><g id="Layer_2" data-name="Layer 2"><g id="Logos"><path class="cls-1" d="M197.63,16.34v-.09a7.77,7.77,0,0,0,4-2.69,7.08,7.08,0,0,0,1.46-4.45,6,6,0,0,0-2.56-5,11.33,11.33,0,0,0-6.93-1.91h-9.56V32.35h9.67A12,12,0,0,0,201.41,30a7.61,7.61,0,0,0,3.05-6.27,7,7,0,0,0-1.86-5.05A7.86,7.86,0,0,0,197.63,16.34ZM189,6.23h3.64q5.18,0,5.17,3.86a4.26,4.26,0,0,1-1.48,3.48,6.22,6.22,0,0,1-4.09,1.23H189Zm8.59,20.84a6.51,6.51,0,0,1-4.32,1.29H189V18.82h3.62q6.49,0,6.49,4.69A4.4,4.4,0,0,1,197.62,27.07Z"/><path class="cls-1" d="M222,23.21a6.1,6.1,0,0,1-1.39,4.18,4.53,4.53,0,0,1-3.57,1.6q-4.47,0-4.47-5.8V10.83h-4.88V23.69q0,9.17,7.63,9.17a7,7,0,0,0,6.6-3.91H222v3.4h4.88V10.83H222Z"/><path class="cls-1" d="M234.33.76a2.9,2.9,0,0,0-2.05.8,2.62,2.62,0,0,0-.85,2,2.55,2.55,0,0,0,.85,2,3.11,3.11,0,0,0,4.15,0,2.56,2.56,0,0,0,.87-1.94,2.6,2.6,0,0,0-.87-2A3,3,0,0,0,234.33.76Z"/><path class="cls-1" d="M231.87 10.83H236.75V32.36H231.87z"/><path class="cls-1" d="M241.74 0.49H246.64000000000001V32.36H241.74z"/><path class="cls-1" d="M266.3.49V13.81h-.08a6.75,6.75,0,0,0-6.33-3.49,8.65,8.65,0,0,0-7,3.22,13.09,13.09,0,0,0-2.64,8.56A12,12,0,0,0,252.61,30a8.42,8.42,0,0,0,13.61-1.27h.08v3.65h4.88V.49Zm.07,22a6.9,6.9,0,0,1-1.56,4.63A5.06,5.06,0,0,1,260.75,29a4.87,4.87,0,0,1-4-1.9,8.11,8.11,0,0,1-1.51-5.18,9.13,9.13,0,0,1,1.57-5.66,5.12,5.12,0,0,1,4.3-2,5,5,0,0,1,3.8,1.6,5.48,5.48,0,0,1,1.5,3.89Z"/><path class="cls-1" d="M17.78,21.13l-1.41,3.95h-.08A40.22,40.22,0,0,0,15,21.17l-7.56-19H0V32.35H4.87V13.82c0-1.14,0-2.52-.07-4.11,0-.8-.11-1.44-.14-1.93h.11c.25,1.14.51,2,.69,2.58l9.06,22h3.41l9-22.18a21,21,0,0,0,.62-2.39h.11c-.12,2.2-.22,4.21-.23,5.42V32.35h5.19V2.21H25.53Z"/><path class="cls-1" d="M37.52 10.75H42.6V32.35H37.52z"/><path class="cls-1" d="M40.11,1.57A3.08,3.08,0,0,0,38,2.42,2.8,2.8,0,0,0,37,4.54a2.73,2.73,0,0,0,.9,2.08,3.12,3.12,0,0,0,2.17.82,3.18,3.18,0,0,0,2.19-.82,2.73,2.73,0,0,0,.91-2.08,2.86,2.86,0,0,0-.89-2.1A3,3,0,0,0,40.11,1.57Z"/><path class="cls-1" d="M60.59,10.53a14.15,14.15,0,0,0-2.84-.3,12.51,12.51,0,0,0-6.18,1.49,9.91,9.91,0,0,0-4.07,4.19,13.3,13.3,0,0,0-1.4,6.2,11.37,11.37,0,0,0,1.36,5.57,9.49,9.49,0,0,0,3.8,3.84,11.3,11.3,0,0,0,5.56,1.35A12.22,12.22,0,0,0,63,31.44l.06,0V26.75l-.21.15a9.67,9.67,0,0,1-2.49,1.3,7.57,7.57,0,0,1-2.43.47,6.26,6.26,0,0,1-4.76-1.86,7.22,7.22,0,0,1-1.75-5.13A7.47,7.47,0,0,1,53.2,16.4a6.23,6.23,0,0,1,4.76-2,8.15,8.15,0,0,1,4.84,1.68l.21.15v-4.9l-.07,0A8.76,8.76,0,0,0,60.59,10.53Z"/><path class="cls-1" d="M77.34,10.38a5.24,5.24,0,0,0-3.4,1.21,7,7,0,0,0-2,2.9h0V10.75H66.85v21.6h5.08v-11a7.72,7.72,0,0,1,1.27-4.59A3.87,3.87,0,0,1,76.48,15,5.94,5.94,0,0,1,78,15.2a4,4,0,0,1,1.19.48l.21.16V10.71l-.08,0A5.34,5.34,0,0,0,77.34,10.38Z"/><path class="cls-1" d="M91.14,10.23c-3.56,0-6.39,1-8.41,3.1a11.62,11.62,0,0,0-3,8.47,11,11,0,0,0,3,8.09,10.76,10.76,0,0,0,8,3,11,11,0,0,0,8.24-3.14,11.6,11.6,0,0,0,3-8.39,11.32,11.32,0,0,0-2.85-8.14A10.5,10.5,0,0,0,91.14,10.23Zm4,16.63a5.16,5.16,0,0,1-4.27,1.81,5.46,5.46,0,0,1-4.38-1.84A7.83,7.83,0,0,1,85,21.64a8.12,8.12,0,0,1,1.57-5.33,5.38,5.38,0,0,1,4.34-1.87,5.31,5.31,0,0,1,4.22,1.78,8,8,0,0,1,1.54,5.29A8.47,8.47,0,0,1,95.18,26.86Z"/><path class="cls-1" d="M113.17,19.68a11.17,11.17,0,0,1-3-1.59,2.19,2.19,0,0,1-.62-1.66,1.87,1.87,0,0,1,.78-1.54,3.52,3.52,0,0,1,2.19-.62,8.81,8.81,0,0,1,2.61.4,8.43,8.43,0,0,1,2.28,1.06l.21.14v-4.7l-.09,0a10.75,10.75,0,0,0-2.31-.65,14.47,14.47,0,0,0-2.53-.26,9.32,9.32,0,0,0-6,1.84,5.87,5.87,0,0,0-2.32,4.79,6.71,6.71,0,0,0,.5,2.68,5.25,5.25,0,0,0,1.54,2,13.47,13.47,0,0,0,3.12,1.75,22.91,22.91,0,0,1,2.6,1.21,3.63,3.63,0,0,1,1.15.94,2.13,2.13,0,0,1,.32,1.23c0,1.45-1.09,2.15-3.33,2.15a9.16,9.16,0,0,1-2.81-.51,10.56,10.56,0,0,1-2.88-1.46l-.21-.15v4.95l.08,0a12.92,12.92,0,0,0,2.72.84,15,15,0,0,0,2.92.33A9.87,9.87,0,0,0,116.37,31a6,6,0,0,0,2.34-4.9,5.64,5.64,0,0,0-1.26-3.72A10.77,10.77,0,0,0,113.17,19.68Z"/><path class="cls-1" d="M132.38,10.23c-3.57,0-6.4,1-8.41,3.1a11.62,11.62,0,0,0-3,8.47,11,11,0,0,0,3,8.09,10.74,10.74,0,0,0,8,3,11,11,0,0,0,8.24-3.14,11.65,11.65,0,0,0,3-8.39,11.32,11.32,0,0,0-2.85-8.14A10.52,10.52,0,0,0,132.38,10.23Zm4,16.63a5.16,5.16,0,0,1-4.27,1.81,5.46,5.46,0,0,1-4.38-1.84,7.83,7.83,0,0,1-1.57-5.19,8.12,8.12,0,0,1,1.57-5.33,5.38,5.38,0,0,1,4.34-1.87,5.31,5.31,0,0,1,4.22,1.78,8,8,0,0,1,1.54,5.29A8.47,8.47,0,0,1,136.42,26.86Z"/><path class="cls-1" d="M165.09,4.31l-.18.05-4.83,1.48-.1,0v4.88h-7.62V8a4.32,4.32,0,0,1,.84-2.88,3,3,0,0,1,2.36-1,5.43,5.43,0,0,1,2.23.51l.19.08V.41l-.09,0A8.75,8.75,0,0,0,155,0,8.46,8.46,0,0,0,151,1a7,7,0,0,0-2.78,2.76,8.21,8.21,0,0,0-1,4v3h-3.58v4.14h3.58V32.35h5.15V14.89H160V26c0,4.57,2.16,6.88,6.41,6.88a10.46,10.46,0,0,0,2.18-.24,5.94,5.94,0,0,0,1.59-.5l.07,0V27.9L170,28a3.64,3.64,0,0,1-1,.46,4.13,4.13,0,0,1-1,.17,2.77,2.77,0,0,1-2.19-.8,4.31,4.31,0,0,1-.69-2.78V14.89h5.14V10.75h-5.14Z"/></g></g></svg>