<?xml version="1.0" encoding="utf-8"?>
<!-- Generator: Adobe Illustrator 15.0.0, SVG Export Plug-In . SVG Version: 6.00 Build 0)  -->
<!DOCTYPE svg PUBLIC "-//W3C//DTD SVG 1.1//EN" "http://www.w3.org/Graphics/SVG/1.1/DTD/svg11.dtd">
<svg version="1.1" id="图层_1" xmlns="http://www.w3.org/2000/svg" xmlns:xlink="http://www.w3.org/1999/xlink" x="0px" y="0px"
	 width="200px" height="200px" viewBox="0 0 200 200" enable-background="new 0 0 200 200" xml:space="preserve">
<g>
	<path fill="#51606A" d="M107.939,6.699l71.863,40.098c5.158,2.779,8.336,7.94,8.336,13.896v79.011
		c0,5.558-3.172,11.115-8.336,13.896l-71.863,39.702c-4.762,2.781-10.721,2.781-15.481,0l-72.262-40.102
		c-5.159-2.777-8.336-7.939-8.336-13.898V60.297c0-5.56,3.177-11.117,8.336-13.895L92.059,6.699
		C97.218,3.915,102.781,3.915,107.939,6.699z"/>
	<path fill="#C7D4DB" d="M100.797,19.405c-0.399-0.398-1.193-0.398-1.588,0l-71.863,39.7c-0.396,0.398-0.797,0.794-0.797,1.19v79.41
		c0,0.396,0.396,1.188,0.797,1.188l71.863,40.102c0.396,0.398,1.192,0.398,1.588,0l71.857-40.102
		c0.402-0.396,0.797-0.791,0.797-1.188V60.297c0-0.398-0.395-1.189-0.797-1.189L100.797,19.405z M107.939,6.699l71.863,40.098
		c5.158,2.779,8.336,7.94,8.336,13.896v79.011c0,5.558-3.172,11.115-8.336,13.896l-71.863,39.702
		c-4.762,2.781-10.721,2.781-15.481,0l-72.262-40.102c-5.159-2.777-8.336-7.939-8.336-13.898V60.297
		c0-5.56,3.177-11.117,8.336-13.895L92.059,6.699C97.218,3.915,102.781,3.915,107.939,6.699L107.939,6.699z"/>
	<path fill="#C7D4DB" d="M139.307,128.189c-3.178,0-7.146,0.791-10.322,2.38c-10.324,4.766-19.855,10.721-28.193,17.87
		c-8.734-7.149-18.26-13.104-28.186-17.87c-3.178-1.589-7.548-2.38-10.326-2.38c-13.895-0.396-21.439,1.589-29.377,2.778
		c2.379,1.19,4.364,2.383,6.747,3.572c0.396,0,15.086-1.189,17.867,0.399c2.778,1.589-11.117,2.38-10.718,2.78
		c2.777,1.188,5.158,1.984,7.941,2.779c0.396,0,13.099-2.383,15.881-0.795c2.78,1.586-8.34,2.779-7.943,3.175
		c7.148,1.586,13.896,2.778,21.439,3.174c3.572,0.398,8.336,3.175,11.912,5.558c-2.779,2.386-5.561,5.161-7.943,7.942
		c-0.795,0.794-1.19,2.38,0.396,3.175c1.987,0.794,3.576-0.396,3.972-0.795c1.192-1.589,2.386-3.174,5.956-5.958
		c0.398-0.396,1.189-0.795,1.589-1.586c0.793,0.396,1.188,1.189,1.584,1.586c3.574,2.784,4.77,4.369,5.959,5.958
		c0.395,0.399,1.984,1.984,3.969,0.795c1.984-0.795,1.191-2.384,0.398-3.175c-2.383-2.781-5.158-5.557-7.943-7.942
		c3.971-2.778,8.736-5.558,11.912-5.558c7.148-0.396,14.295-1.588,21.439-3.174c0.795-0.398-10.719-1.589-7.943-3.175
		c2.785-1.588,15.484,0.795,15.881,0.795c2.783-0.795,5.16-1.589,7.941-2.779c0.396,0-13.496-1.188-10.717-2.78
		c2.775-1.589,17.467-0.399,17.863-0.399c2.387-1.189,4.369-2.382,6.75-3.572C159.951,129.778,152.408,127.793,139.307,128.189
		L139.307,128.189z"/>
	<path fill="#FFFFFF" d="M42.031,119.057V72.208l-9.129,2.383v-7.544c5.953-1.984,9.525-3.971,11.516-6.351h7.541v57.967
		C51.958,119.057,42.031,119.057,42.031,119.057L42.031,119.057z M91.266,115.085c-2.782,3.178-6.354,4.766-11.118,4.766
		c-4.762,0-8.338-1.585-11.117-4.766c-2.38-3.172-3.967-7.146-3.967-12.307V77.367c0-5.158,1.187-9.525,3.572-12.703
		c2.38-3.177,6.348-4.765,11.114-4.765c4.766,0,8.733,1.588,11.113,4.765c2.38,3.177,3.573,7.146,3.573,12.307v25.411
		C94.838,107.939,93.648,112.307,91.266,115.085L91.266,115.085z M80.148,111.513c3.175,0,4.764-2.779,4.764-8.734V75.383
		c0-0.794,0-1.193-0.396-1.984c0-0.797-0.396-1.193-0.396-1.99c-0.396-0.396-0.396-1.188-0.798-1.589l-1.19-1.19
		c-0.794-0.398-1.189-0.398-1.984-0.398c-0.793,0-1.584,0-2.382,0.398c-0.798,0.396-1.193,0.794-1.589,1.19
		c-0.396,0.797-0.791,1.19-0.791,1.984c0,0.797-0.396,1.588-0.396,2.385v27.792C75.386,108.335,76.974,111.513,80.148,111.513z
		 M101.193,119.057v-7.144l13.895-22.233c0.396-0.398,0.795-1.193,1.59-2.781c0.791-1.187,1.584-2.38,1.982-2.782
		c0.396-0.396,0.791-1.19,1.191-2.379c0.395-1.193,0.793-2.38,1.189-3.177c0-1.193,0.395-1.987,0.395-3.177
		c0-2.383-0.395-3.969-1.186-5.162c-0.799-1.189-1.984-1.588-3.572-1.588c-3.574,0-5.16,3.177-5.16,9.13v2.386h-9.531v-2.386
		c0-2.779,0.398-5.158,0.801-7.143c0.395-1.987,1.584-3.971,2.379-5.56c1.193-1.588,2.779-2.778,4.766-3.573
		c1.984-0.797,4.365-1.19,6.75-1.19c4.766,0,8.34,1.19,11.115,3.972c2.383,2.778,3.572,6.352,3.572,11.114
		c0,1.588,0,3.177-0.396,4.766c-0.395,1.589-0.797,2.778-1.588,4.367c-0.791,1.585-1.189,2.778-1.984,3.57
		c-0.797,1.589-1.984,3.177-2.781,4.37c0,0,0,0.396-0.398,0.396l-11.912,18.262h17.07v7.94h-28.186V119.057z M152.807,119.057
		v-14.294h-17.07v-9.13l14.291-34.541h11.514v35.734h5.953v8.336h-5.953v14.293L152.807,119.057L152.807,119.057z M144.467,96.427
		h8.34V71.81L144.467,96.427z"/>
</g>
</svg>
