<?xml version="1.0" standalone="no"?><!DOCTYPE svg PUBLIC "-//W3C//DTD SVG 1.1//EN" "http://www.w3.org/Graphics/SVG/1.1/DTD/svg11.dtd"><svg t="1556005370748" class="icon" style="" viewBox="0 0 1024 1024" version="1.1" xmlns="http://www.w3.org/2000/svg" p-id="8987" xmlns:xlink="http://www.w3.org/1999/xlink" width="200" height="200"><defs><style type="text/css"></style></defs><path d="M711.98044476 341.49333333c5.80622254-64.11377746-16.64177746-116.04266667-16.64177841-116.04266666-69.184 8.30044413-118.53688921 55.11822254-118.53688825 55.11822254-25.024-8.30044413-68.32533333-7.68711079-68.32533334-7.68711175s-43.34222254-0.65422254-68.32533333 7.68711175c0 0-49.35288921-46.81777746-118.57777842-55.11822254 0 0-22.448 51.92888921-16.68266667 116.04266666 0 0-41.01155587 34.592-40.35733333 108.27377746 0.65422254 73.76355588 30.09422254 173.04177746 169.85244508 185.18577842 28.82666667 2.61688921 74.09066667 3.10755588 74.09066667 3.10755491s45.22311079-0.49066667 74.09066667-3.10755491c139.75822254-12.144 169.23911079-111.46311079 169.85244412-185.18577842 0.61333333-73.68177746-40.43911079-108.27377746-40.43911079-108.27377746z m-203.54488921 272.56533334c-136.32355588 2.16711079-177.70311079-38.88533333-178.112-107.21066667-0.44977746-68.36622254 57.24444413-86.31644413 89.71022255-84.14933333 32.46577746 2.08533333 74.29511079 5.07022254 88.40177745 5.07022254s55.936-2.98488921 88.44266667-5.07022254c32.46577746-2.208 90.16 15.78311079 89.71022254 84.14933333-0.44977746 68.32533333-41.78844413 109.37777746-178.15288921 107.21066667z" fill="#FCFCFC" p-id="8988"></path><path d="M558.4017781 512.85866667a48.208 34.18311079 90 1 0 68.36622158 0 48.208 34.18311079 90 1 0-68.36622158 0Z" fill="#FCFCFC" p-id="8989"></path><path d="M389.1217781 512.85866667a48.208 34.18311079 90 1 0 68.36622158 0 48.208 34.18311079 90 1 0-68.36622159 0Z" fill="#FCFCFC" p-id="8990"></path><path d="M548.58844476 32.00533333l370.08533333 205.46666667a81.53244412 81.53244412 0 0 1 41.99288825 71.14666667v406.68088921a81.49155588 81.49155588 0 0 1-41.99288825 71.14666666l-370.08533333 205.46666667a82.59555588 82.59555588 0 0 1-80.34666667 0l-370.00355587-205.46666667a81.53244412 81.53244412 0 0 1-42.03377746-71.14666666V308.61866667a81.57333333 81.57333333 0 0 1 42.03377746-71.14666667L468.24177809 32.00533333a82.8 82.8 0 0 1 80.34666667 0z m0 0" fill="#6186A2" p-id="8991"></path><path d="M548.58844476 32.00533333l370.08533333 205.46666667a81.53244412 81.53244412 0 0 1 41.99288825 71.14666667v406.68088921a81.49155588 81.49155588 0 0 1-41.99288825 71.14666666l-370.08533333 205.46666667a82.59555588 82.59555588 0 0 1-80.34666667 0l-370.00355587-205.46666667a81.53244412 81.53244412 0 0 1-42.03377746-71.14666666V308.61866667a81.57333333 81.57333333 0 0 1 42.03377746-71.14666667L468.24177809 32.00533333a82.8 82.8 0 0 1 80.34666667 0z m0 0" fill="#6186A2" p-id="8992"></path><path d="M512.52444476 96.20088921a8.75022254 8.75022254 0 0 0-8.17777842 0L134.34311143 301.70844412a7.85066667 7.85066667 0 0 0-4.12977842 6.91022255v406.6808892c0 2.86222254 1.59466667 5.52 4.12977842 6.9511108l370.00355492 205.46666666a8.75022254 8.75022254 0 0 0 8.17777841 0l370.00355492-205.46666666a7.97333333 7.97333333 0 0 0 4.17066667-6.9511108V308.61866667a7.85066667 7.85066667 0 0 0-4.17066667-6.91022255l-370.00355492-205.50755491z" fill="#072F4E" p-id="8993"></path><path d="M729.31733301 414.03022254c6.29688921-69.59288921-18.032-125.89688921-18.032-125.89688921-75.15377746 8.99555587-128.63644412 59.82044413-128.63644412 59.82044413-27.15022254-9.07733333-74.17244413-8.464-74.17244413-8.464s-46.98133333-0.61333333-74.13155587 8.464c0 0-53.56444413-50.82488921-128.67733334-59.82044413 0 0-24.32888921 56.304-18.07288921 125.89688921 0 0-44.528 37.536-43.83288825 117.55555492 0.69511079 80.01955587 32.67022254 187.76177746 184.3271108 200.928 31.23911079 2.86222254 80.38755588 3.27111079 80.38755587 3.27111175s49.14844413-0.40888921 80.42844413-3.27111175c151.616-13.16622254 183.67288921-120.90844413 184.32711079-200.928 0.65422254-80.06044413-43.91466667-117.55555588-43.91466667-117.55555492z m-220.92266667 295.79022158c-147.97688921 2.33066667-192.832-42.15644413-193.32266666-116.45155491-0.49066667-74.13155588 62.15111079-93.59466667 97.35644508-91.22311175 35.24622254 2.24888921 80.67377746 5.52 95.92533333 5.52 15.33333333 0 60.67911079-3.27111079 96.0071108-5.52 35.20533333-2.37155588 97.84711079 17.13244412 97.39733333 91.22311175-0.49066667 74.29511079-45.34577746 118.78222254-193.36355588 116.45155492z" fill="#FCFCFC" p-id="8994"></path><path d="M562.65422222 599.91111079a52.37866667 37.08622254 90 1 0 74.17244413 0 52.37866667 37.08622254 90 1 0-74.17244413 0Z" fill="#FCFCFC" p-id="8995"></path><path d="M378.98133301 599.91111079a52.37866667 37.08622254 90 1 0 74.17244509 0 52.37866667 37.08622254 90 1 0-74.17244509 0Z" fill="#FCFCFC" p-id="8996"></path></svg>