<?xml version="1.0" encoding="utf-8"?>
<!-- Generator: Adobe Illustrator 15.0.0, SVG Export Plug-In . SVG Version: 6.00 Build 0)  -->
<!DOCTYPE svg PUBLIC "-//W3C//DTD SVG 1.1//EN" "http://www.w3.org/Graphics/SVG/1.1/DTD/svg11.dtd">
<svg version="1.1" id="图层_1" xmlns="http://www.w3.org/2000/svg" xmlns:xlink="http://www.w3.org/1999/xlink" x="0px" y="0px"
	 width="200px" height="200px" viewBox="0 0 200 200" enable-background="new 0 0 200 200" xml:space="preserve">
<path fill="#677F99" d="M107.743,6.889l71.476,39.58c4.97,2.769,8.066,7.997,8.104,13.685v78.634
	c-0.038,5.688-3.135,10.916-8.104,13.685l-71.581,39.789c-4.814,2.66-10.659,2.66-15.474,0l-71.476-39.685
	c-4.969-2.769-8.065-7.995-8.105-13.685V60.153c0.04-5.688,3.136-10.916,8.105-13.685L92.27,6.678
	c4.814-2.661,10.658-2.661,15.474,0V6.889z"/>
<path fill="#95B1CD" d="M100.69,19.205c-0.421-0.316-1.053-0.316-1.474,0L27.636,58.89c-0.421,0.315-0.737,0.842-0.737,1.368v78.529
	c0,0.525,0.316,1.052,0.737,1.369l71.581,39.685c0.421,0.314,1.053,0.314,1.474,0l71.581-39.685
	c0.421-0.317,0.736-0.844,0.736-1.369V60.258c0-0.526-0.315-1.053-0.736-1.368L100.69,19.205z M107.743,6.783l71.476,39.685
	c4.97,2.769,8.066,7.997,8.104,13.685v78.634c-0.038,5.688-3.135,10.916-8.104,13.685l-71.581,39.789
	c-4.814,2.66-10.659,2.66-15.474,0l-71.476-39.685c-4.969-2.769-8.065-7.995-8.105-13.685V60.153
	c0.04-5.688,3.136-10.916,8.105-13.685L92.27,6.678c4.814-2.661,10.658-2.661,15.474,0V6.783z"/>
<path fill="#FFFFFF" d="M105.217,77.732H85.111v-6.316c0-3.488,2.827-6.316,6.315-6.316c0.035,0,0.071,0,0.106,0h12.632
	c2.731-0.065,5.195,1.634,6.104,4.211l-2.947,4.736v-2.631c0-1.744-1.413-3.158-3.157-3.158H91.322
	c-1.744,0-3.158,1.414-3.158,3.158v3.158h18.842L105.217,77.732z"/>
<path fill="#FFFFFF" d="M107.006,74.574l-1.685,3.158H86.9c-0.842,0-2.421,0.737-3.158,1.369L69.005,94.47
	c-0.631,0.631-1.368,2.316-1.368,3.263v11.474c0,0.421,0.526,1.158,1.052,1.369l14.211,5.368c1.263,0.526,3.685,1.052,5.053,1.052
	h20c1.726-0.104,3.428-0.459,5.053-1.052l14.21-5.368c0.422-0.211,1.054-1.054,1.054-1.369V97.733c0-0.947-0.737-2.632-1.368-3.158
	L115.428,82.68c0.421-0.421,1.368-1.369,2.422-2.105l11.157,11.579c1.327,1.526,2.106,3.454,2.211,5.474v11.475
	c0,1.788-1.263,3.684-2.947,4.315l-14.211,5.474c-1.685,0.632-4.422,1.053-6.316,1.053h-20c-1.685,0-4.527-0.421-6.105-1.053
	l-14.316-5.369c-1.708-0.778-2.843-2.441-2.948-4.315V97.733c0-1.79,1.053-4.21,2.21-5.474L81.532,76.89
	c1.47-1.365,3.366-2.183,5.368-2.316H107.006z"/>
<path fill="#FFFFFF" d="M72.164,98.049c-1.744,0-3.158,1.414-3.158,3.158v4.211c0,1.788,1.369,3.789,3.053,4.421l11.474,4.315
	c1.58,0.631,4.422,1.158,6.106,1.158h16.421c1.791,0,4.526-0.527,6.211-1.053l11.474-4.421c1.741-0.797,2.883-2.508,2.948-4.421
	v-4.211c0-1.744-1.415-3.158-3.159-3.158H72.164z"/>
<path fill="#FFFFFF" d="M102.796,100.786h-4.948c6.475-18.525,17.432-35.16,31.896-48.423c2.946-2.737,7.158-4.842,10.525-5.685
	c14.527-3.368,24.002-3.052,33.476-2.842c-1.895,2.105-3.79,4.211-6,6.316c-0.421,0.315-18,2.737-19.686,4.737
	c-1.685,2.105,13.58,0.736,13.054,1.052c-2.37,1.938-4.83,3.765-7.369,5.474c-0.421,0.316-16.527,1.053-18.211,2.842
	c-1.684,1.579,10.632,1.79,10.105,2.105c-7.053,3.79-15.369,6.842-24.632,9.369c-6.105,1.684-11.159,7.579-15.368,17.58
	l-2.843,7.369V100.786z"/>
<path fill="#6C98C4" d="M26.899,118.47c43.686-16.842,92.424-16.842,146.109,0.211v20.106c0,0.525-0.315,1.052-0.736,1.369
	l-71.581,39.685c-0.421,0.314-1.053,0.314-1.474,0l-71.581-39.685c-0.421-0.317-0.737-0.844-0.737-1.369V118.47z M100.164,194.262
	l-0.842,0.421l-1.053-0.525L100.164,194.262z M19.53,151.84l-0.631-0.316v-0.104L19.53,151.84z"/>
<path fill="#FFFFFF" d="M106.795,147.208H91.533l0.315-1.895h0.947c0.519-0.034,1.006-0.26,1.368-0.632
	c0.421-0.421,0.737-0.842,0.737-1.264l4.316-30.526v-0.316c0-0.42-0.105-0.843-0.421-1.157c-0.421-0.316-0.737-0.527-1.158-0.527
	c-0.465,0.004-0.845-0.37-0.849-0.835c0-0.038,0.002-0.074,0.006-0.111v-0.948h12.632l-4.843,34.422v0.211
	c0,0.422,0.211,0.842,0.526,1.158c0.316,0.315,0.737,0.526,1.053,0.526h1.054l-0.317,1.895H106.795z"/>
<path fill="#FFFFFF" d="M85.637,153.208h-0.736v-0.736c-0.1-0.133-0.256-0.211-0.421-0.211h-2.105l-1.473,10.421l0.105,0.422
	l0.421,0.21h0.316v0.632h-5.264l0.105-0.632H76.9c0.211,0,0.316,0,0.422-0.21c0.21-0.105,0.315-0.316,0.315-0.422l1.474-10.421
	h-2.105c-0.105,0-0.316,0-0.421,0.211c-0.21,0.104-0.316,0.314-0.316,0.421v0.315h-0.737l0.316-2.21h10.105L85.637,153.208z
	 M90.585,163.945h-5.158l0.105-0.632h0.316c0.21,0,0.315,0,0.526-0.21l0.211-0.422l1.474-10.421c0-0.211,0-0.316-0.21-0.421
	c-0.076-0.107-0.188-0.182-0.316-0.21h-0.315v-0.632h5.264l-0.105,0.632h-0.316c-0.21,0-0.315,0-0.526,0.21l-0.211,0.421
	l-1.474,10.421c0,0.211,0,0.316,0.21,0.422l0.316,0.21h0.315v0.632H90.585z M109.006,163.945h-4.21l1.368-9.895
	c0.015-0.176,0.015-0.353,0-0.527c0-0.526,0-0.947-0.211-1.263c-0.169-0.299-0.501-0.466-0.842-0.421l-0.421,0.104l-0.525,0.422
	c-0.261,0.302-0.44,0.663-0.527,1.052l-1.263,9.264c0,0.211,0,0.316,0.211,0.422l0.314,0.21h0.316v0.632h-5.264v-0.632h0.422
	c0.105,0,0.315,0,0.421-0.21c0.21-0.105,0.316-0.316,0.316-0.422l1.263-9.158c0-0.526,0-0.947-0.316-1.263
	c-0.105-0.316-0.421-0.421-0.736-0.421l-0.526,0.104l-0.526,0.527l-0.316,0.736l-0.21,0.843l-1.368,9.895h-4.21v-0.632h0.421
	c0.105,0,0.316,0,0.421-0.21c0.21-0.105,0.316-0.316,0.316-0.422l1.369-10.526c0-0.211,0-0.315-0.211-0.421
	c-0.099-0.132-0.255-0.211-0.421-0.211h-0.316l0.105-0.631h11.159l1.788,0.105c0.527,0,1.055,0.21,1.369,0.421
	c0.421,0.104,0.737,0.315,0.947,0.525c0.259,0.243,0.377,0.599,0.316,0.948l-1.368,9.684c0,0.211,0,0.316,0.21,0.422l0.315,0.21
	h0.421l-0.104,0.632L109.006,163.945z M120.375,161.63l-0.315,2.315h-10.105l0.104-0.632h0.316c0.21,0,0.315,0,0.527-0.21
	l0.21-0.422l1.474-10.526c0-0.211,0-0.315-0.211-0.421c-0.075-0.106-0.188-0.183-0.316-0.211h-0.314v-0.631h10.104l-0.314,2.211
	h-0.633v-0.317l-0.104-0.42c-0.101-0.133-0.257-0.211-0.422-0.211h-4.632l-0.632,4.001l-0.314,2.525l-0.527,3.895h4.526l0.421-0.21
	l0.316-0.422v-0.42h0.736L120.375,161.63z"/>
<path fill="#FFFFFF" d="M114.06,158.155h5.368l-0.211,1.158h-5.157V158.155z M114.06,155.839h5.789l-0.211,1.159h-5.578V155.839z"/>
</svg>
