<svg width="16" height="16" viewBox="0 0 16 16" fill="none" xmlns="http://www.w3.org/2000/svg">
<path d="M12.3695 0.546997C14.4324 1.18507 15.6289 2.18803 15.6289 3.91969V12.397C15.6977 13.4909 15.2163 15.6785 12.7408 15.6785H3.45766C2.4262 15.7241 0.363281 15.1316 0.363281 12.397V3.91969C0.363281 3.00815 1.10593 1.18507 3.45766 0.546997H12.3695Z" fill="#EFF2FB"/>
<path fill-rule="evenodd" clip-rule="evenodd" d="M3.41667 0.227905H12.4156L12.46 0.241616C13.5131 0.567373 14.3815 0.996417 14.9893 1.59328C15.608 2.20078 15.9413 2.96764 15.9413 3.91969V12.3871C15.9768 12.9815 15.8658 13.8674 15.4034 14.6178C14.9255 15.3935 14.0868 15.9976 12.7407 15.9976H3.46404C2.89371 16.0213 2.04948 15.8716 1.33825 15.3374C0.607901 14.7887 0.0505371 13.8584 0.0505371 12.397V3.91969C0.0505371 2.86864 0.883707 0.915155 3.37721 0.238612L3.41667 0.227905ZM3.49891 0.866083C1.32017 1.47489 0.675697 3.15221 0.675697 3.91969V12.397C0.675697 13.6702 1.14979 14.4035 1.70877 14.8233C2.28396 15.2554 2.98293 15.3801 3.44398 15.3598L3.45074 15.3595H12.7407C13.87 15.3595 14.5097 14.8697 14.8742 14.2781C15.2515 13.6657 15.3482 12.9168 15.3168 12.4174L15.3162 12.4072V3.91969C15.3162 3.14007 15.0513 2.53962 14.5559 2.05321C14.0571 1.56341 13.3106 1.17613 12.3227 0.866083H3.49891Z" fill="#D6DCEA"/>
<path fill-rule="evenodd" clip-rule="evenodd" d="M15.5361 13.4207L13.3908 11.7472L13.7704 11.2402L15.9157 12.9136L15.5361 13.4207Z" fill="#D6DCEA"/>
<path fill-rule="evenodd" clip-rule="evenodd" d="M13.4396 15.598L12.7311 12.9384L13.3344 12.7709L14.0428 15.4305L13.4396 15.598Z" fill="#D6DCEA"/>
<path fill-rule="evenodd" clip-rule="evenodd" d="M0.463862 13.4207L2.60917 11.7472L2.22959 11.2402L0.0842855 12.9136L0.463862 13.4207Z" fill="#D6DCEA"/>
<path fill-rule="evenodd" clip-rule="evenodd" d="M2.56041 15.598L3.26888 12.9384L2.66563 12.7709L1.95716 15.4305L2.56041 15.598Z" fill="#D6DCEA"/>
<path d="M1.56885 2.09687C1.56885 0.9388 2.4885 0 3.62294 0H12.3752C13.5096 0 14.4293 0.938801 14.4293 2.09687V11.0314C14.4293 12.1894 13.5096 13.1282 12.3752 13.1282H3.62294C2.4885 13.1282 1.56885 12.1894 1.56885 11.0314V2.09687Z" fill="white"/>
<path fill-rule="evenodd" clip-rule="evenodd" d="M12.3752 0.638178H3.62294C2.83376 0.638178 2.19401 1.29126 2.19401 2.09687V11.0314C2.19401 11.837 2.83376 12.4901 3.62294 12.4901H12.3752C13.1644 12.4901 13.8041 11.837 13.8041 11.0314V2.09687C13.8041 1.29126 13.1644 0.638178 12.3752 0.638178ZM3.62294 0C2.4885 0 1.56885 0.9388 1.56885 2.09687V11.0314C1.56885 12.1894 2.4885 13.1282 3.62294 13.1282H12.3752C13.5096 13.1282 14.4293 12.1894 14.4293 11.0314V2.09687C14.4293 0.938801 13.5096 0 12.3752 0H3.62294Z" fill="#D6DCEA"/>
<path d="M5.58765 10.1197L9.26907 3.00854H10.4103L6.72889 10.1197H5.58765Z" fill="#000C79"/>
</svg>
