<svg width="41" height="40" viewBox="0 0 41 40" fill="none" xmlns="http://www.w3.org/2000/svg">
<path d="M13.2433 2.28571C13.1007 2.28571 12.9772 2.25829 12.8727 2.20343C12.7683 2.14857 12.6869 2.07137 12.6287 1.97181C12.5725 1.87225 12.5444 1.75543 12.5444 1.62133V0.664381C12.5444 0.530286 12.5725 0.41346 12.6287 0.313905C12.6869 0.214349 12.7683 0.137143 12.8727 0.0822856C12.9772 0.0274285 13.1007 0 13.2433 0C13.3879 0 13.5114 0.0274285 13.6138 0.0822856C13.7182 0.137143 13.7986 0.214349 13.8548 0.313905C13.9131 0.41346 13.9422 0.530286 13.9422 0.664381V1.62133C13.9422 1.75543 13.9131 1.87225 13.8548 1.97181C13.7986 2.07137 13.7182 2.14857 13.6138 2.20343C13.5094 2.25829 13.3859 2.28571 13.2433 2.28571ZM13.2433 1.95657C13.3477 1.95657 13.431 1.9261 13.4933 1.86514C13.5556 1.80419 13.5867 1.72292 13.5867 1.62133V0.664381C13.5867 0.562794 13.5556 0.481524 13.4933 0.420571C13.431 0.359619 13.3477 0.329143 13.2433 0.329143C13.1388 0.329143 13.0555 0.359619 12.9932 0.420571C12.931 0.481524 12.8998 0.562794 12.8998 0.664381V1.62133C12.8998 1.72292 12.931 1.80419 12.9932 1.86514C13.0555 1.9261 13.1388 1.95657 13.2433 1.95657ZM13.2433 1.34095C13.185 1.34095 13.1368 1.32165 13.0987 1.28305C13.0625 1.24444 13.0444 1.19467 13.0444 1.13371C13.0444 1.07276 13.0625 1.024 13.0987 0.987429C13.1348 0.950857 13.183 0.932571 13.2433 0.932571C13.3035 0.932571 13.3517 0.950857 13.3879 0.987429C13.424 1.024 13.4421 1.07276 13.4421 1.13371C13.4421 1.19467 13.424 1.24444 13.3879 1.28305C13.3517 1.32165 13.3035 1.34095 13.2433 1.34095Z" fill="white"/>
<path d="M15.0014 2.25524V1.92H15.5738V0.368762L14.9984 0.801524V0.399238L15.5045 0.0304762H15.9504V1.92H16.4113V2.25524H15.0014Z" fill="white"/>
<path d="M18.061 2.28571C17.9184 2.28571 17.7949 2.25829 17.6905 2.20343C17.586 2.14857 17.5047 2.07137 17.4464 1.97181C17.3902 1.87225 17.3621 1.75543 17.3621 1.62133V0.664381C17.3621 0.530286 17.3902 0.41346 17.4464 0.313905C17.5047 0.214349 17.586 0.137143 17.6905 0.0822856C17.7949 0.0274285 17.9184 0 18.061 0C18.2056 0 18.3291 0.0274285 18.4315 0.0822856C18.536 0.137143 18.6163 0.214349 18.6726 0.313905C18.7308 0.41346 18.7599 0.530286 18.7599 0.664381V1.62133C18.7599 1.75543 18.7308 1.87225 18.6726 1.97181C18.6163 2.07137 18.536 2.14857 18.4315 2.20343C18.3271 2.25829 18.2036 2.28571 18.061 2.28571ZM18.061 1.95657C18.1654 1.95657 18.2488 1.9261 18.311 1.86514C18.3733 1.80419 18.4044 1.72292 18.4044 1.62133V0.664381C18.4044 0.562794 18.3733 0.481524 18.311 0.420571C18.2488 0.359619 18.1654 0.329143 18.061 0.329143C17.9566 0.329143 17.8732 0.359619 17.811 0.420571C17.7487 0.481524 17.7176 0.562794 17.7176 0.664381V1.62133C17.7176 1.72292 17.7487 1.80419 17.811 1.86514C17.8732 1.9261 17.9566 1.95657 18.061 1.95657ZM18.061 1.34095C18.0028 1.34095 17.9546 1.32165 17.9164 1.28305C17.8803 1.24444 17.8622 1.19467 17.8622 1.13371C17.8622 1.07276 17.8803 1.024 17.9164 0.987429C17.9526 0.950857 18.0008 0.932571 18.061 0.932571C18.1213 0.932571 18.1695 0.950857 18.2056 0.987429C18.2418 1.024 18.2598 1.07276 18.2598 1.13371C18.2598 1.19467 18.2418 1.24444 18.2056 1.28305C18.1695 1.32165 18.1213 1.34095 18.061 1.34095Z" fill="white"/>
<path d="M19.8192 2.25524V1.92H20.3916V0.368762L19.8162 0.801524V0.399238L20.3223 0.0304762H20.7681V1.92H21.229V2.25524H19.8192Z" fill="white"/>
<path d="M22.8787 2.28571C22.7362 2.28571 22.6126 2.25829 22.5082 2.20343C22.4038 2.14857 22.3224 2.07137 22.2642 1.97181C22.208 1.87225 22.1798 1.75543 22.1798 1.62133V0.664381C22.1798 0.530286 22.208 0.41346 22.2642 0.313905C22.3224 0.214349 22.4038 0.137143 22.5082 0.0822856C22.6126 0.0274285 22.7362 0 22.8787 0C23.0233 0 23.1469 0.0274285 23.2493 0.0822856C23.3537 0.137143 23.4341 0.214349 23.4903 0.313905C23.5485 0.41346 23.5777 0.530286 23.5777 0.664381V1.62133C23.5777 1.75543 23.5485 1.87225 23.4903 1.97181C23.4341 2.07137 23.3537 2.14857 23.2493 2.20343C23.1449 2.25829 23.0213 2.28571 22.8787 2.28571ZM22.8787 1.95657C22.9832 1.95657 23.0665 1.9261 23.1288 1.86514C23.191 1.80419 23.2222 1.72292 23.2222 1.62133V0.664381C23.2222 0.562794 23.191 0.481524 23.1288 0.420571C23.0665 0.359619 22.9832 0.329143 22.8787 0.329143C22.7743 0.329143 22.691 0.359619 22.6287 0.420571C22.5664 0.481524 22.5353 0.562794 22.5353 0.664381V1.62133C22.5353 1.72292 22.5664 1.80419 22.6287 1.86514C22.691 1.9261 22.7743 1.95657 22.8787 1.95657ZM22.8787 1.34095C22.8205 1.34095 22.7723 1.32165 22.7341 1.28305C22.698 1.24444 22.6799 1.19467 22.6799 1.13371C22.6799 1.07276 22.698 1.024 22.7341 0.987429C22.7703 0.950857 22.8185 0.932571 22.8787 0.932571C22.939 0.932571 22.9872 0.950857 23.0233 0.987429C23.0595 1.024 23.0776 1.07276 23.0776 1.13371C23.0776 1.19467 23.0595 1.24444 23.0233 1.28305C22.9872 1.32165 22.939 1.34095 22.8787 1.34095Z" fill="white"/>
<path d="M24.6369 2.25524V1.92H25.2093V0.368762L24.6339 0.801524V0.399238L25.14 0.0304762H25.5859V1.92H26.0468V2.25524H24.6369Z" fill="white"/>
<path d="M27.6965 2.28571C27.5539 2.28571 27.4304 2.25829 27.3259 2.20343C27.2215 2.14857 27.1402 2.07137 27.0819 1.97181C27.0257 1.87225 26.9976 1.75543 26.9976 1.62133V0.664381C26.9976 0.530286 27.0257 0.41346 27.0819 0.313905C27.1402 0.214349 27.2215 0.137143 27.3259 0.0822856C27.4304 0.0274285 27.5539 0 27.6965 0C27.8411 0 27.9646 0.0274285 28.067 0.0822856C28.1715 0.137143 28.2518 0.214349 28.308 0.313905C28.3663 0.41346 28.3954 0.530286 28.3954 0.664381V1.62133C28.3954 1.75543 28.3663 1.87225 28.308 1.97181C28.2518 2.07137 28.1715 2.14857 28.067 2.20343C27.9626 2.25829 27.8391 2.28571 27.6965 2.28571ZM27.6965 1.95657C27.8009 1.95657 27.8843 1.9261 27.9465 1.86514C28.0088 1.80419 28.0399 1.72292 28.0399 1.62133V0.664381C28.0399 0.562794 28.0088 0.481524 27.9465 0.420571C27.8843 0.359619 27.8009 0.329143 27.6965 0.329143C27.5921 0.329143 27.5087 0.359619 27.4464 0.420571C27.3842 0.481524 27.3531 0.562794 27.3531 0.664381V1.62133C27.3531 1.72292 27.3842 1.80419 27.4464 1.86514C27.5087 1.9261 27.5921 1.95657 27.6965 1.95657ZM27.6965 1.34095C27.6382 1.34095 27.59 1.32165 27.5519 1.28305C27.5157 1.24444 27.4977 1.19467 27.4977 1.13371C27.4977 1.07276 27.5157 1.024 27.5519 0.987429C27.588 0.950857 27.6362 0.932571 27.6965 0.932571C27.7567 0.932571 27.8049 0.950857 27.8411 0.987429C27.8772 1.024 27.8953 1.07276 27.8953 1.13371C27.8953 1.19467 27.8772 1.24444 27.8411 1.28305C27.8049 1.32165 27.7567 1.34095 27.6965 1.34095Z" fill="white"/>
<path d="M10.8344 5.71429C10.6918 5.71429 10.5683 5.68686 10.4638 5.632C10.3594 5.57714 10.2781 5.49994 10.2198 5.40038C10.1636 5.30083 10.1355 5.184 10.1355 5.0499V4.09295C10.1355 3.95886 10.1636 3.84203 10.2198 3.74248C10.2781 3.64292 10.3594 3.56571 10.4638 3.51086C10.5683 3.456 10.6918 3.42857 10.8344 3.42857C10.979 3.42857 11.1025 3.456 11.2049 3.51086C11.3094 3.56571 11.3897 3.64292 11.4459 3.74248C11.5042 3.84203 11.5333 3.95886 11.5333 4.09295V5.0499C11.5333 5.184 11.5042 5.30083 11.4459 5.40038C11.3897 5.49994 11.3094 5.57714 11.2049 5.632C11.1005 5.68686 10.977 5.71429 10.8344 5.71429ZM10.8344 5.38514C10.9388 5.38514 11.0222 5.35467 11.0844 5.29371C11.1467 5.23276 11.1778 5.15149 11.1778 5.0499V4.09295C11.1778 3.99136 11.1467 3.9101 11.0844 3.84914C11.0222 3.78819 10.9388 3.75771 10.8344 3.75771C10.73 3.75771 10.6466 3.78819 10.5844 3.84914C10.5221 3.9101 10.491 3.99136 10.491 4.09295V5.0499C10.491 5.15149 10.5221 5.23276 10.5844 5.29371C10.6466 5.35467 10.73 5.38514 10.8344 5.38514ZM10.8344 4.76952C10.7762 4.76952 10.728 4.75022 10.6898 4.71162C10.6536 4.67302 10.6356 4.62324 10.6356 4.56229C10.6356 4.50133 10.6536 4.45257 10.6898 4.416C10.7259 4.37943 10.7741 4.36114 10.8344 4.36114C10.8946 4.36114 10.9428 4.37943 10.979 4.416C11.0151 4.45257 11.0332 4.50133 11.0332 4.56229C11.0332 4.62324 11.0151 4.67302 10.979 4.71162C10.9428 4.75022 10.8946 4.76952 10.8344 4.76952Z" fill="white"/>
<path d="M12.5926 5.68381V5.34857H13.1649V3.79733L12.5895 4.2301V3.82781L13.0956 3.45905H13.5415V5.34857H14.0024V5.68381H12.5926Z" fill="white"/>
<path d="M15.6521 5.71429C15.5095 5.71429 15.386 5.68686 15.2816 5.632C15.1772 5.57714 15.0958 5.49994 15.0376 5.40038C14.9813 5.30083 14.9532 5.184 14.9532 5.0499V4.09295C14.9532 3.95886 14.9813 3.84203 15.0376 3.74248C15.0958 3.64292 15.1772 3.56571 15.2816 3.51086C15.386 3.456 15.5095 3.42857 15.6521 3.42857C15.7967 3.42857 15.9203 3.456 16.0227 3.51086C16.1271 3.56571 16.2074 3.64292 16.2637 3.74248C16.3219 3.84203 16.351 3.95886 16.351 4.09295V5.0499C16.351 5.184 16.3219 5.30083 16.2637 5.40038C16.2074 5.49994 16.1271 5.57714 16.0227 5.632C15.9182 5.68686 15.7947 5.71429 15.6521 5.71429ZM15.6521 5.38514C15.7566 5.38514 15.8399 5.35467 15.9022 5.29371C15.9644 5.23276 15.9956 5.15149 15.9956 5.0499V4.09295C15.9956 3.99136 15.9644 3.9101 15.9022 3.84914C15.8399 3.78819 15.7566 3.75771 15.6521 3.75771C15.5477 3.75771 15.4644 3.78819 15.4021 3.84914C15.3398 3.9101 15.3087 3.99136 15.3087 4.09295V5.0499C15.3087 5.15149 15.3398 5.23276 15.4021 5.29371C15.4644 5.35467 15.5477 5.38514 15.6521 5.38514ZM15.6521 4.76952C15.5939 4.76952 15.5457 4.75022 15.5075 4.71162C15.4714 4.67302 15.4533 4.62324 15.4533 4.56229C15.4533 4.50133 15.4714 4.45257 15.5075 4.416C15.5437 4.37943 15.5919 4.36114 15.6521 4.36114C15.7124 4.36114 15.7606 4.37943 15.7967 4.416C15.8329 4.45257 15.851 4.50133 15.851 4.56229C15.851 4.62324 15.8329 4.67302 15.7967 4.71162C15.7606 4.75022 15.7124 4.76952 15.6521 4.76952Z" fill="white"/>
<path d="M17.4103 5.68381V5.34857H17.9827V3.79733L17.4073 4.2301V3.82781L17.9134 3.45905H18.3592V5.34857H18.8202V5.68381H17.4103Z" fill="white"/>
<path d="M20.4699 5.71429C20.3273 5.71429 20.2038 5.68686 20.0993 5.632C19.9949 5.57714 19.9136 5.49994 19.8553 5.40038C19.7991 5.30083 19.771 5.184 19.771 5.0499V4.09295C19.771 3.95886 19.7991 3.84203 19.8553 3.74248C19.9136 3.64292 19.9949 3.56571 20.0993 3.51086C20.2038 3.456 20.3273 3.42857 20.4699 3.42857C20.6145 3.42857 20.738 3.456 20.8404 3.51086C20.9449 3.56571 21.0252 3.64292 21.0814 3.74248C21.1397 3.84203 21.1688 3.95886 21.1688 4.09295V5.0499C21.1688 5.184 21.1397 5.30083 21.0814 5.40038C21.0252 5.49994 20.9449 5.57714 20.8404 5.632C20.736 5.68686 20.6125 5.71429 20.4699 5.71429ZM20.4699 5.38514C20.5743 5.38514 20.6577 5.35467 20.7199 5.29371C20.7822 5.23276 20.8133 5.15149 20.8133 5.0499V4.09295C20.8133 3.99136 20.7822 3.9101 20.7199 3.84914C20.6577 3.78819 20.5743 3.75771 20.4699 3.75771C20.3654 3.75771 20.2821 3.78819 20.2198 3.84914C20.1576 3.9101 20.1264 3.99136 20.1264 4.09295V5.0499C20.1264 5.15149 20.1576 5.23276 20.2198 5.29371C20.2821 5.35467 20.3654 5.38514 20.4699 5.38514ZM20.4699 4.76952C20.4116 4.76952 20.3634 4.75022 20.3253 4.71162C20.2891 4.67302 20.271 4.62324 20.271 4.56229C20.271 4.50133 20.2891 4.45257 20.3253 4.416C20.3614 4.37943 20.4096 4.36114 20.4699 4.36114C20.5301 4.36114 20.5783 4.37943 20.6145 4.416C20.6506 4.45257 20.6687 4.50133 20.6687 4.56229C20.6687 4.62324 20.6506 4.67302 20.6145 4.71162C20.5783 4.75022 20.5301 4.76952 20.4699 4.76952Z" fill="white"/>
<path d="M22.228 5.68381V5.34857H22.8004V3.79733L22.225 4.2301V3.82781L22.7311 3.45905H23.177V5.34857H23.6379V5.68381H22.228Z" fill="white"/>
<path d="M25.2876 5.71429C25.145 5.71429 25.0215 5.68686 24.9171 5.632C24.8126 5.57714 24.7313 5.49994 24.673 5.40038C24.6168 5.30083 24.5887 5.184 24.5887 5.0499V4.09295C24.5887 3.95886 24.6168 3.84203 24.673 3.74248C24.7313 3.64292 24.8126 3.56571 24.9171 3.51086C25.0215 3.456 25.145 3.42857 25.2876 3.42857C25.4322 3.42857 25.5557 3.456 25.6582 3.51086C25.7626 3.56571 25.8429 3.64292 25.8992 3.74248C25.9574 3.84203 25.9865 3.95886 25.9865 4.09295V5.0499C25.9865 5.184 25.9574 5.30083 25.8992 5.40038C25.8429 5.49994 25.7626 5.57714 25.6582 5.632C25.5537 5.68686 25.4302 5.71429 25.2876 5.71429ZM25.2876 5.38514C25.392 5.38514 25.4754 5.35467 25.5377 5.29371C25.5999 5.23276 25.631 5.15149 25.631 5.0499V4.09295C25.631 3.99136 25.5999 3.9101 25.5377 3.84914C25.4754 3.78819 25.392 3.75771 25.2876 3.75771C25.1832 3.75771 25.0998 3.78819 25.0376 3.84914C24.9753 3.9101 24.9442 3.99136 24.9442 4.09295V5.0499C24.9442 5.15149 24.9753 5.23276 25.0376 5.29371C25.0998 5.35467 25.1832 5.38514 25.2876 5.38514ZM25.2876 4.76952C25.2294 4.76952 25.1812 4.75022 25.143 4.71162C25.1069 4.67302 25.0888 4.62324 25.0888 4.56229C25.0888 4.50133 25.1069 4.45257 25.143 4.416C25.1792 4.37943 25.2274 4.36114 25.2876 4.36114C25.3479 4.36114 25.3961 4.37943 25.4322 4.416C25.4684 4.45257 25.4864 4.50133 25.4864 4.56229C25.4864 4.62324 25.4684 4.67302 25.4322 4.71162C25.3961 4.75022 25.3479 4.76952 25.2876 4.76952Z" fill="white"/>
<path d="M27.0458 5.68381V5.34857H27.6182V3.79733L27.0428 4.2301V3.82781L27.5489 3.45905H27.9947V5.34857H28.4557V5.68381H27.0458Z" fill="white"/>
<path d="M30.1054 5.71429C29.9628 5.71429 29.8392 5.68686 29.7348 5.632C29.6304 5.57714 29.549 5.49994 29.4908 5.40038C29.4346 5.30083 29.4064 5.184 29.4064 5.0499V4.09295C29.4064 3.95886 29.4346 3.84203 29.4908 3.74248C29.549 3.64292 29.6304 3.56571 29.7348 3.51086C29.8392 3.456 29.9628 3.42857 30.1054 3.42857C30.25 3.42857 30.3735 3.456 30.4759 3.51086C30.5803 3.56571 30.6607 3.64292 30.7169 3.74248C30.7751 3.84203 30.8043 3.95886 30.8043 4.09295V5.0499C30.8043 5.184 30.7751 5.30083 30.7169 5.40038C30.6607 5.49994 30.5803 5.57714 30.4759 5.632C30.3715 5.68686 30.2479 5.71429 30.1054 5.71429ZM30.1054 5.38514C30.2098 5.38514 30.2931 5.35467 30.3554 5.29371C30.4177 5.23276 30.4488 5.15149 30.4488 5.0499V4.09295C30.4488 3.99136 30.4177 3.9101 30.3554 3.84914C30.2931 3.78819 30.2098 3.75771 30.1054 3.75771C30.0009 3.75771 29.9176 3.78819 29.8553 3.84914C29.7931 3.9101 29.7619 3.99136 29.7619 4.09295V5.0499C29.7619 5.15149 29.7931 5.23276 29.8553 5.29371C29.9176 5.35467 30.0009 5.38514 30.1054 5.38514ZM30.1054 4.76952C30.0471 4.76952 29.9989 4.75022 29.9607 4.71162C29.9246 4.67302 29.9065 4.62324 29.9065 4.56229C29.9065 4.50133 29.9246 4.45257 29.9607 4.416C29.9969 4.37943 30.0451 4.36114 30.1054 4.36114C30.1656 4.36114 30.2138 4.37943 30.25 4.416C30.2861 4.45257 30.3042 4.50133 30.3042 4.56229C30.3042 4.62324 30.2861 4.67302 30.25 4.71162C30.2138 4.75022 30.1656 4.76952 30.1054 4.76952Z" fill="white"/>
<path d="M6.01665 9.14286C5.87406 9.14286 5.75055 9.11543 5.64611 9.06057C5.54167 9.00571 5.46033 8.92851 5.40209 8.82895C5.34586 8.7294 5.31774 8.61257 5.31774 8.47848V7.52152C5.31774 7.38743 5.34586 7.2706 5.40209 7.17105C5.46033 7.07149 5.54167 6.99429 5.64611 6.93943C5.75055 6.88457 5.87406 6.85714 6.01665 6.85714C6.16126 6.85714 6.28477 6.88457 6.3872 6.93943C6.49163 6.99429 6.57197 7.07149 6.6282 7.17105C6.68645 7.2706 6.71557 7.38743 6.71557 7.52152V8.47848C6.71557 8.61257 6.68645 8.7294 6.6282 8.82895C6.57197 8.92851 6.49163 9.00571 6.3872 9.06057C6.28276 9.11543 6.15925 9.14286 6.01665 9.14286ZM6.01665 8.81371C6.12109 8.81371 6.20444 8.78324 6.2667 8.72229C6.32896 8.66133 6.36009 8.58006 6.36009 8.47848V7.52152C6.36009 7.41994 6.32896 7.33867 6.2667 7.27771C6.20444 7.21676 6.12109 7.18629 6.01665 7.18629C5.91222 7.18629 5.82887 7.21676 5.76661 7.27771C5.70435 7.33867 5.67322 7.41994 5.67322 7.52152V8.47848C5.67322 8.58006 5.70435 8.66133 5.76661 8.72229C5.82887 8.78324 5.91222 8.81371 6.01665 8.81371ZM6.01665 8.1981C5.95841 8.1981 5.91021 8.17879 5.87205 8.14019C5.8359 8.10159 5.81782 8.05181 5.81782 7.99086C5.81782 7.9299 5.8359 7.88114 5.87205 7.84457C5.9082 7.808 5.9564 7.78971 6.01665 7.78971C6.07691 7.78971 6.12511 7.808 6.16126 7.84457C6.19741 7.88114 6.21548 7.9299 6.21548 7.99086C6.21548 8.05181 6.19741 8.10159 6.16126 8.14019C6.12511 8.17879 6.07691 8.1981 6.01665 8.1981Z" fill="white"/>
<path d="M7.77481 9.11238V8.77714H8.3472V7.2259L7.7718 7.65867V7.25638L8.27791 6.88762H8.72377V8.77714H9.18469V9.11238H7.77481Z" fill="white"/>
<path d="M10.8344 9.14286C10.6918 9.14286 10.5683 9.11543 10.4638 9.06057C10.3594 9.00571 10.2781 8.92851 10.2198 8.82895C10.1636 8.7294 10.1355 8.61257 10.1355 8.47848V7.52152C10.1355 7.38743 10.1636 7.2706 10.2198 7.17105C10.2781 7.07149 10.3594 6.99429 10.4638 6.93943C10.5683 6.88457 10.6918 6.85714 10.8344 6.85714C10.979 6.85714 11.1025 6.88457 11.2049 6.93943C11.3094 6.99429 11.3897 7.07149 11.4459 7.17105C11.5042 7.2706 11.5333 7.38743 11.5333 7.52152V8.47848C11.5333 8.61257 11.5042 8.7294 11.4459 8.82895C11.3897 8.92851 11.3094 9.00571 11.2049 9.06057C11.1005 9.11543 10.977 9.14286 10.8344 9.14286ZM10.8344 8.81371C10.9388 8.81371 11.0222 8.78324 11.0844 8.72229C11.1467 8.66133 11.1778 8.58006 11.1778 8.47848V7.52152C11.1778 7.41994 11.1467 7.33867 11.0844 7.27771C11.0222 7.21676 10.9388 7.18629 10.8344 7.18629C10.73 7.18629 10.6466 7.21676 10.5844 7.27771C10.5221 7.33867 10.491 7.41994 10.491 7.52152V8.47848C10.491 8.58006 10.5221 8.66133 10.5844 8.72229C10.6466 8.78324 10.73 8.81371 10.8344 8.81371ZM10.8344 8.1981C10.7762 8.1981 10.728 8.17879 10.6898 8.14019C10.6536 8.10159 10.6356 8.05181 10.6356 7.99086C10.6356 7.9299 10.6536 7.88114 10.6898 7.84457C10.7259 7.808 10.7741 7.78971 10.8344 7.78971C10.8946 7.78971 10.9428 7.808 10.979 7.84457C11.0151 7.88114 11.0332 7.9299 11.0332 7.99086C11.0332 8.05181 11.0151 8.10159 10.979 8.14019C10.9428 8.17879 10.8946 8.1981 10.8344 8.1981Z" fill="white"/>
<path d="M12.5926 9.11238V8.77714H13.1649V7.2259L12.5895 7.65867V7.25638L13.0956 6.88762H13.5415V8.77714H14.0024V9.11238H12.5926Z" fill="white"/>
<path d="M15.6792 7.69524L15.9203 6.74743H16.3992L16.0076 7.69524H15.6792ZM14.9351 7.69524L15.1762 6.74743H15.6551L15.2635 7.69524H14.9351Z" fill="white"/>
<path d="M18.0881 7.69524L18.3291 6.74743H18.8081L18.4165 7.69524H18.0881ZM17.344 7.69524L17.585 6.74743H18.064L17.6724 7.69524H17.344Z" fill="white"/>
<path d="M20.497 7.69524L20.738 6.74743H21.217L20.8254 7.69524H20.497ZM19.7529 7.69524L19.9939 6.74743H20.4729L20.0813 7.69524H19.7529Z" fill="white"/>
<path d="M22.9059 7.69524L23.1469 6.74743H23.6259L23.2342 7.69524H22.9059ZM22.1618 7.69524L22.4028 6.74743H22.8818L22.4901 7.69524H22.1618Z" fill="white"/>
<path d="M25.3147 7.69524L25.5557 6.74743H26.0347L25.6431 7.69524H25.3147ZM24.5706 7.69524L24.8116 6.74743H25.2906L24.899 7.69524H24.5706Z" fill="white"/>
<path d="M27.0458 9.11238V8.77714H27.6182V7.2259L27.0428 7.65867V7.25638L27.5489 6.88762H27.9947V8.77714H28.4557V9.11238H27.0458Z" fill="white"/>
<path d="M30.1054 9.14286C29.9628 9.14286 29.8392 9.11543 29.7348 9.06057C29.6304 9.00571 29.549 8.92851 29.4908 8.82895C29.4346 8.7294 29.4064 8.61257 29.4064 8.47848V7.52152C29.4064 7.38743 29.4346 7.2706 29.4908 7.17105C29.549 7.07149 29.6304 6.99429 29.7348 6.93943C29.8392 6.88457 29.9628 6.85714 30.1054 6.85714C30.25 6.85714 30.3735 6.88457 30.4759 6.93943C30.5803 6.99429 30.6607 7.07149 30.7169 7.17105C30.7751 7.2706 30.8043 7.38743 30.8043 7.52152V8.47848C30.8043 8.61257 30.7751 8.7294 30.7169 8.82895C30.6607 8.92851 30.5803 9.00571 30.4759 9.06057C30.3715 9.11543 30.2479 9.14286 30.1054 9.14286ZM30.1054 8.81371C30.2098 8.81371 30.2931 8.78324 30.3554 8.72229C30.4177 8.66133 30.4488 8.58006 30.4488 8.47848V7.52152C30.4488 7.41994 30.4177 7.33867 30.3554 7.27771C30.2931 7.21676 30.2098 7.18629 30.1054 7.18629C30.0009 7.18629 29.9176 7.21676 29.8553 7.27771C29.7931 7.33867 29.7619 7.41994 29.7619 7.52152V8.47848C29.7619 8.58006 29.7931 8.66133 29.8553 8.72229C29.9176 8.78324 30.0009 8.81371 30.1054 8.81371ZM30.1054 8.1981C30.0471 8.1981 29.9989 8.17879 29.9607 8.14019C29.9246 8.10159 29.9065 8.05181 29.9065 7.99086C29.9065 7.9299 29.9246 7.88114 29.9607 7.84457C29.9969 7.808 30.0451 7.78971 30.1054 7.78971C30.1656 7.78971 30.2138 7.808 30.25 7.84457C30.2861 7.88114 30.3042 7.9299 30.3042 7.99086C30.3042 8.05181 30.2861 8.10159 30.25 8.14019C30.2138 8.17879 30.1656 8.1981 30.1054 8.1981Z" fill="white"/>
<path d="M31.8635 9.11238V8.77714H32.4359V7.2259L31.8605 7.65867V7.25638L32.3666 6.88762H32.8125V8.77714H33.2734V9.11238H31.8635Z" fill="white"/>
<path d="M34.9231 9.14286C34.7805 9.14286 34.657 9.11543 34.5526 9.06057C34.4481 9.00571 34.3668 8.92851 34.3085 8.82895C34.2523 8.7294 34.2242 8.61257 34.2242 8.47848V7.52152C34.2242 7.38743 34.2523 7.2706 34.3085 7.17105C34.3668 7.07149 34.4481 6.99429 34.5526 6.93943C34.657 6.88457 34.7805 6.85714 34.9231 6.85714C35.0677 6.85714 35.1912 6.88457 35.2936 6.93943C35.3981 6.99429 35.4784 7.07149 35.5346 7.17105C35.5929 7.2706 35.622 7.38743 35.622 7.52152V8.47848C35.622 8.61257 35.5929 8.7294 35.5346 8.82895C35.4784 8.92851 35.3981 9.00571 35.2936 9.06057C35.1892 9.11543 35.0657 9.14286 34.9231 9.14286ZM34.9231 8.81371C35.0275 8.81371 35.1109 8.78324 35.1731 8.72229C35.2354 8.66133 35.2665 8.58006 35.2665 8.47848V7.52152C35.2665 7.41994 35.2354 7.33867 35.1731 7.27771C35.1109 7.21676 35.0275 7.18629 34.9231 7.18629C34.8187 7.18629 34.7353 7.21676 34.6731 7.27771C34.6108 7.33867 34.5797 7.41994 34.5797 7.52152V8.47848C34.5797 8.58006 34.6108 8.66133 34.6731 8.72229C34.7353 8.78324 34.8187 8.81371 34.9231 8.81371ZM34.9231 8.1981C34.8649 8.1981 34.8167 8.17879 34.7785 8.14019C34.7423 8.10159 34.7243 8.05181 34.7243 7.99086C34.7243 7.9299 34.7423 7.88114 34.7785 7.84457C34.8146 7.808 34.8628 7.78971 34.9231 7.78971C34.9833 7.78971 35.0315 7.808 35.0677 7.84457C35.1039 7.88114 35.1219 7.9299 35.1219 7.99086C35.1219 8.05181 35.1039 8.10159 35.0677 8.14019C35.0315 8.17879 34.9833 8.1981 34.9231 8.1981Z" fill="white"/>
<path d="M3.60778 12.5714C3.46519 12.5714 3.34167 12.544 3.23724 12.4891C3.1328 12.4343 3.05146 12.3571 2.99322 12.2575C2.93699 12.158 2.90887 12.0411 2.90887 11.907V10.9501C2.90887 10.816 2.93699 10.6992 2.99322 10.5996C3.05146 10.5001 3.1328 10.4229 3.23724 10.368C3.34167 10.3131 3.46519 10.2857 3.60778 10.2857C3.75239 10.2857 3.8759 10.3131 3.97833 10.368C4.08276 10.4229 4.1631 10.5001 4.21933 10.5996C4.27758 10.6992 4.3067 10.816 4.3067 10.9501V11.907C4.3067 12.0411 4.27758 12.158 4.21933 12.2575C4.1631 12.3571 4.08276 12.4343 3.97833 12.4891C3.87389 12.544 3.75038 12.5714 3.60778 12.5714ZM3.60778 12.2423C3.71222 12.2423 3.79557 12.2118 3.85783 12.1509C3.92009 12.0899 3.95122 12.0086 3.95122 11.907V10.9501C3.95122 10.8485 3.92009 10.7672 3.85783 10.7063C3.79557 10.6453 3.71222 10.6149 3.60778 10.6149C3.50335 10.6149 3.42 10.6453 3.35774 10.7063C3.29548 10.7672 3.26435 10.8485 3.26435 10.9501V11.907C3.26435 12.0086 3.29548 12.0899 3.35774 12.1509C3.42 12.2118 3.50335 12.2423 3.60778 12.2423ZM3.60778 11.6267C3.54954 11.6267 3.50134 11.6074 3.46318 11.5688C3.42703 11.5302 3.40895 11.4804 3.40895 11.4194C3.40895 11.3585 3.42703 11.3097 3.46318 11.2731C3.49933 11.2366 3.54753 11.2183 3.60778 11.2183C3.66804 11.2183 3.71624 11.2366 3.75239 11.2731C3.78854 11.3097 3.80661 11.3585 3.80661 11.4194C3.80661 11.4804 3.78854 11.5302 3.75239 11.5688C3.71624 11.6074 3.66804 11.6267 3.60778 11.6267Z" fill="white"/>
<path d="M5.36594 12.541V12.2057H5.93833V10.6545L5.36293 11.0872V10.685L5.86904 10.3162H6.3149V12.2057H6.77582V12.541H5.36594Z" fill="white"/>
<path d="M8.42552 12.5714C8.28293 12.5714 8.15942 12.544 8.05498 12.4891C7.95054 12.4343 7.8692 12.3571 7.81096 12.2575C7.75473 12.158 7.72661 12.0411 7.72661 11.907V10.9501C7.72661 10.816 7.75473 10.6992 7.81096 10.5996C7.8692 10.5001 7.95054 10.4229 8.05498 10.368C8.15942 10.3131 8.28293 10.2857 8.42552 10.2857C8.57013 10.2857 8.69364 10.3131 8.79607 10.368C8.9005 10.4229 8.98084 10.5001 9.03707 10.5996C9.09532 10.6992 9.12444 10.816 9.12444 10.9501V11.907C9.12444 12.0411 9.09532 12.158 9.03707 12.2575C8.98084 12.3571 8.9005 12.4343 8.79607 12.4891C8.69163 12.544 8.56812 12.5714 8.42552 12.5714ZM8.42552 12.2423C8.52996 12.2423 8.61331 12.2118 8.67557 12.1509C8.73783 12.0899 8.76896 12.0086 8.76896 11.907V10.9501C8.76896 10.8485 8.73783 10.7672 8.67557 10.7063C8.61331 10.6453 8.52996 10.6149 8.42552 10.6149C8.32109 10.6149 8.23774 10.6453 8.17548 10.7063C8.11322 10.7672 8.08209 10.8485 8.08209 10.9501V11.907C8.08209 12.0086 8.11322 12.0899 8.17548 12.1509C8.23774 12.2118 8.32109 12.2423 8.42552 12.2423ZM8.42552 11.6267C8.36728 11.6267 8.31908 11.6074 8.28092 11.5688C8.24477 11.5302 8.22669 11.4804 8.22669 11.4194C8.22669 11.3585 8.24477 11.3097 8.28092 11.2731C8.31707 11.2366 8.36527 11.2183 8.42552 11.2183C8.48577 11.2183 8.53398 11.2366 8.57013 11.2731C8.60628 11.3097 8.62435 11.3585 8.62435 11.4194C8.62435 11.4804 8.60628 11.5302 8.57013 11.5688C8.53398 11.6074 8.48577 11.6267 8.42552 11.6267Z" fill="white"/>
<path d="M10.1837 12.541V12.2057H10.7561V10.6545L10.1807 11.0872V10.685L10.6868 10.3162H11.1326V12.2057H11.5936V12.541H10.1837Z" fill="white"/>
<path d="M30.1054 12.5714C29.9628 12.5714 29.8392 12.544 29.7348 12.4891C29.6304 12.4343 29.549 12.3571 29.4908 12.2575C29.4346 12.158 29.4064 12.0411 29.4064 11.907V10.9501C29.4064 10.816 29.4346 10.6992 29.4908 10.5996C29.549 10.5001 29.6304 10.4229 29.7348 10.368C29.8392 10.3131 29.9628 10.2857 30.1054 10.2857C30.25 10.2857 30.3735 10.3131 30.4759 10.368C30.5803 10.4229 30.6607 10.5001 30.7169 10.5996C30.7751 10.6992 30.8043 10.816 30.8043 10.9501V11.907C30.8043 12.0411 30.7751 12.158 30.7169 12.2575C30.6607 12.3571 30.5803 12.4343 30.4759 12.4891C30.3715 12.544 30.2479 12.5714 30.1054 12.5714ZM30.1054 12.2423C30.2098 12.2423 30.2931 12.2118 30.3554 12.1509C30.4177 12.0899 30.4488 12.0086 30.4488 11.907V10.9501C30.4488 10.8485 30.4177 10.7672 30.3554 10.7063C30.2931 10.6453 30.2098 10.6149 30.1054 10.6149C30.0009 10.6149 29.9176 10.6453 29.8553 10.7063C29.7931 10.7672 29.7619 10.8485 29.7619 10.9501V11.907C29.7619 12.0086 29.7931 12.0899 29.8553 12.1509C29.9176 12.2118 30.0009 12.2423 30.1054 12.2423ZM30.1054 11.6267C30.0471 11.6267 29.9989 11.6074 29.9607 11.5688C29.9246 11.5302 29.9065 11.4804 29.9065 11.4194C29.9065 11.3585 29.9246 11.3097 29.9607 11.2731C29.9969 11.2366 30.0451 11.2183 30.1054 11.2183C30.1656 11.2183 30.2138 11.2366 30.25 11.2731C30.2861 11.3097 30.3042 11.3585 30.3042 11.4194C30.3042 11.4804 30.2861 11.5302 30.25 11.5688C30.2138 11.6074 30.1656 11.6267 30.1054 11.6267Z" fill="white"/>
<path d="M31.8635 12.541V12.2057H32.4359V10.6545L31.8605 11.0872V10.685L32.3666 10.3162H32.8125V12.2057H33.2734V12.541H31.8635Z" fill="white"/>
<path d="M34.9231 12.5714C34.7805 12.5714 34.657 12.544 34.5526 12.4891C34.4481 12.4343 34.3668 12.3571 34.3085 12.2575C34.2523 12.158 34.2242 12.0411 34.2242 11.907V10.9501C34.2242 10.816 34.2523 10.6992 34.3085 10.5996C34.3668 10.5001 34.4481 10.4229 34.5526 10.368C34.657 10.3131 34.7805 10.2857 34.9231 10.2857C35.0677 10.2857 35.1912 10.3131 35.2936 10.368C35.3981 10.4229 35.4784 10.5001 35.5346 10.5996C35.5929 10.6992 35.622 10.816 35.622 10.9501V11.907C35.622 12.0411 35.5929 12.158 35.5346 12.2575C35.4784 12.3571 35.3981 12.4343 35.2936 12.4891C35.1892 12.544 35.0657 12.5714 34.9231 12.5714ZM34.9231 12.2423C35.0275 12.2423 35.1109 12.2118 35.1731 12.1509C35.2354 12.0899 35.2665 12.0086 35.2665 11.907V10.9501C35.2665 10.8485 35.2354 10.7672 35.1731 10.7063C35.1109 10.6453 35.0275 10.6149 34.9231 10.6149C34.8187 10.6149 34.7353 10.6453 34.6731 10.7063C34.6108 10.7672 34.5797 10.8485 34.5797 10.9501V11.907C34.5797 12.0086 34.6108 12.0899 34.6731 12.1509C34.7353 12.2118 34.8187 12.2423 34.9231 12.2423ZM34.9231 11.6267C34.8649 11.6267 34.8167 11.6074 34.7785 11.5688C34.7423 11.5302 34.7243 11.4804 34.7243 11.4194C34.7243 11.3585 34.7423 11.3097 34.7785 11.2731C34.8146 11.2366 34.8628 11.2183 34.9231 11.2183C34.9833 11.2183 35.0315 11.2366 35.0677 11.2731C35.1039 11.3097 35.1219 11.3585 35.1219 11.4194C35.1219 11.4804 35.1039 11.5302 35.0677 11.5688C35.0315 11.6074 34.9833 11.6267 34.9231 11.6267Z" fill="white"/>
<path d="M36.6813 12.541V12.2057H37.2536V10.6545L36.6782 11.0872V10.685L37.1843 10.3162H37.6302V12.2057H38.0911V12.541H36.6813Z" fill="white"/>
<path d="M1.19891 16C1.05632 16 0.932804 15.9726 0.828369 15.9177C0.723934 15.8629 0.642594 15.7857 0.584352 15.6861C0.528117 15.5865 0.5 15.4697 0.5 15.3356V14.3787C0.5 14.2446 0.528117 14.1277 0.584352 14.0282C0.642594 13.9286 0.723934 13.8514 0.828369 13.7966C0.932804 13.7417 1.05632 13.7143 1.19891 13.7143C1.34352 13.7143 1.46703 13.7417 1.56946 13.7966C1.67389 13.8514 1.75423 13.9286 1.81046 14.0282C1.86871 14.1277 1.89783 14.2446 1.89783 14.3787V15.3356C1.89783 15.4697 1.86871 15.5865 1.81046 15.6861C1.75423 15.7857 1.67389 15.8629 1.56946 15.9177C1.46502 15.9726 1.34151 16 1.19891 16ZM1.19891 15.6709C1.30335 15.6709 1.3867 15.6404 1.44896 15.5794C1.51122 15.5185 1.54235 15.4372 1.54235 15.3356V14.3787C1.54235 14.2771 1.51122 14.1958 1.44896 14.1349C1.3867 14.0739 1.30335 14.0434 1.19891 14.0434C1.09448 14.0434 1.01113 14.0739 0.948871 14.1349C0.886612 14.1958 0.855482 14.2771 0.855482 14.3787V15.3356C0.855482 15.4372 0.886612 15.5185 0.948871 15.5794C1.01113 15.6404 1.09448 15.6709 1.19891 15.6709ZM1.19891 15.0552C1.14067 15.0552 1.09247 15.0359 1.05431 14.9973C1.01816 14.9587 1.00008 14.909 1.00008 14.848C1.00008 14.787 1.01816 14.7383 1.05431 14.7017C1.09046 14.6651 1.13866 14.6469 1.19891 14.6469C1.25916 14.6469 1.30737 14.6651 1.34352 14.7017C1.37967 14.7383 1.39774 14.787 1.39774 14.848C1.39774 14.909 1.37967 14.9587 1.34352 14.9973C1.30737 15.0359 1.25916 15.0552 1.19891 15.0552Z" fill="white"/>
<path d="M2.95707 15.9695V15.6343H3.52946V14.083L2.95406 14.5158V14.1135L3.46017 13.7448H3.90603V15.6343H4.36695V15.9695H2.95707Z" fill="white"/>
<path d="M6.01665 16C5.87406 16 5.75055 15.9726 5.64611 15.9177C5.54167 15.8629 5.46033 15.7857 5.40209 15.6861C5.34586 15.5865 5.31774 15.4697 5.31774 15.3356V14.3787C5.31774 14.2446 5.34586 14.1277 5.40209 14.0282C5.46033 13.9286 5.54167 13.8514 5.64611 13.7966C5.75055 13.7417 5.87406 13.7143 6.01665 13.7143C6.16126 13.7143 6.28477 13.7417 6.3872 13.7966C6.49163 13.8514 6.57197 13.9286 6.6282 14.0282C6.68645 14.1277 6.71557 14.2446 6.71557 14.3787V15.3356C6.71557 15.4697 6.68645 15.5865 6.6282 15.6861C6.57197 15.7857 6.49163 15.8629 6.3872 15.9177C6.28276 15.9726 6.15925 16 6.01665 16ZM6.01665 15.6709C6.12109 15.6709 6.20444 15.6404 6.2667 15.5794C6.32896 15.5185 6.36009 15.4372 6.36009 15.3356V14.3787C6.36009 14.2771 6.32896 14.1958 6.2667 14.1349C6.20444 14.0739 6.12109 14.0434 6.01665 14.0434C5.91222 14.0434 5.82887 14.0739 5.76661 14.1349C5.70435 14.1958 5.67322 14.2771 5.67322 14.3787V15.3356C5.67322 15.4372 5.70435 15.5185 5.76661 15.5794C5.82887 15.6404 5.91222 15.6709 6.01665 15.6709ZM6.01665 15.0552C5.95841 15.0552 5.91021 15.0359 5.87205 14.9973C5.8359 14.9587 5.81782 14.909 5.81782 14.848C5.81782 14.787 5.8359 14.7383 5.87205 14.7017C5.9082 14.6651 5.9564 14.6469 6.01665 14.6469C6.07691 14.6469 6.12511 14.6651 6.16126 14.7017C6.19741 14.7383 6.21548 14.787 6.21548 14.848C6.21548 14.909 6.19741 14.9587 6.16126 14.9973C6.12511 15.0359 6.07691 15.0552 6.01665 15.0552Z" fill="white"/>
<path d="M7.77481 15.9695V15.6343H8.3472V14.083L7.7718 14.5158V14.1135L8.27791 13.7448H8.72377V15.6343H9.18469V15.9695H7.77481Z" fill="white"/>
<path d="M32.5142 16C32.3716 16 32.2481 15.9726 32.1437 15.9177C32.0392 15.8629 31.9579 15.7857 31.8997 15.6861C31.8434 15.5865 31.8153 15.4697 31.8153 15.3356V14.3787C31.8153 14.2446 31.8434 14.1277 31.8997 14.0282C31.9579 13.9286 32.0392 13.8514 32.1437 13.7966C32.2481 13.7417 32.3716 13.7143 32.5142 13.7143C32.6588 13.7143 32.7823 13.7417 32.8848 13.7966C32.9892 13.8514 33.0695 13.9286 33.1258 14.0282C33.184 14.1277 33.2131 14.2446 33.2131 14.3787V15.3356C33.2131 15.4697 33.184 15.5865 33.1258 15.6861C33.0695 15.7857 32.9892 15.8629 32.8848 15.9177C32.7803 15.9726 32.6568 16 32.5142 16ZM32.5142 15.6709C32.6187 15.6709 32.702 15.6404 32.7643 15.5794C32.8265 15.5185 32.8577 15.4372 32.8577 15.3356V14.3787C32.8577 14.2771 32.8265 14.1958 32.7643 14.1349C32.702 14.0739 32.6187 14.0434 32.5142 14.0434C32.4098 14.0434 32.3264 14.0739 32.2642 14.1349C32.2019 14.1958 32.1708 14.2771 32.1708 14.3787V15.3356C32.1708 15.4372 32.2019 15.5185 32.2642 15.5794C32.3264 15.6404 32.4098 15.6709 32.5142 15.6709ZM32.5142 15.0552C32.456 15.0552 32.4078 15.0359 32.3696 14.9973C32.3335 14.9587 32.3154 14.909 32.3154 14.848C32.3154 14.787 32.3335 14.7383 32.3696 14.7017C32.4058 14.6651 32.454 14.6469 32.5142 14.6469C32.5745 14.6469 32.6227 14.6651 32.6588 14.7017C32.695 14.7383 32.7131 14.787 32.7131 14.848C32.7131 14.909 32.695 14.9587 32.6588 14.9973C32.6227 15.0359 32.5745 15.0552 32.5142 15.0552Z" fill="white"/>
<path d="M34.2724 15.9695V15.6343H34.8448V14.083L34.2694 14.5158V14.1135L34.7755 13.7448H35.2213V15.6343H35.6823V15.9695H34.2724Z" fill="white"/>
<path d="M37.332 16C37.1894 16 37.0659 15.9726 36.9614 15.9177C36.857 15.8629 36.7756 15.7857 36.7174 15.6861C36.6612 15.5865 36.633 15.4697 36.633 15.3356V14.3787C36.633 14.2446 36.6612 14.1277 36.7174 14.0282C36.7756 13.9286 36.857 13.8514 36.9614 13.7966C37.0659 13.7417 37.1894 13.7143 37.332 13.7143C37.4766 13.7143 37.6001 13.7417 37.7025 13.7966C37.8069 13.8514 37.8873 13.9286 37.9435 14.0282C38.0018 14.1277 38.0309 14.2446 38.0309 14.3787V15.3356C38.0309 15.4697 38.0018 15.5865 37.9435 15.6861C37.8873 15.7857 37.8069 15.8629 37.7025 15.9177C37.5981 15.9726 37.4746 16 37.332 16ZM37.332 15.6709C37.4364 15.6709 37.5197 15.6404 37.582 15.5794C37.6443 15.5185 37.6754 15.4372 37.6754 15.3356V14.3787C37.6754 14.2771 37.6443 14.1958 37.582 14.1349C37.5197 14.0739 37.4364 14.0434 37.332 14.0434C37.2275 14.0434 37.1442 14.0739 37.0819 14.1349C37.0197 14.1958 36.9885 14.2771 36.9885 14.3787V15.3356C36.9885 15.4372 37.0197 15.5185 37.0819 15.5794C37.1442 15.6404 37.2275 15.6709 37.332 15.6709ZM37.332 15.0552C37.2737 15.0552 37.2255 15.0359 37.1874 14.9973C37.1512 14.9587 37.1331 14.909 37.1331 14.848C37.1331 14.787 37.1512 14.7383 37.1874 14.7017C37.2235 14.6651 37.2717 14.6469 37.332 14.6469C37.3922 14.6469 37.4404 14.6651 37.4766 14.7017C37.5127 14.7383 37.5308 14.787 37.5308 14.848C37.5308 14.909 37.5127 14.9587 37.4766 14.9973C37.4404 15.0359 37.3922 15.0552 37.332 15.0552Z" fill="white"/>
<path d="M39.0901 15.9695V15.6343H39.6625V14.083L39.0871 14.5158V14.1135L39.5932 13.7448H40.0391V15.6343H40.5V15.9695H39.0901Z" fill="white"/>
<path d="M1.19891 19.4286C1.05632 19.4286 0.932804 19.4011 0.828369 19.3463C0.723934 19.2914 0.642594 19.2142 0.584352 19.1147C0.528117 19.0151 0.5 18.8983 0.5 18.7642V17.8072C0.5 17.6731 0.528117 17.5563 0.584352 17.4568C0.642594 17.3572 0.723934 17.28 0.828369 17.2251C0.932804 17.1703 1.05632 17.1429 1.19891 17.1429C1.34352 17.1429 1.46703 17.1703 1.56946 17.2251C1.67389 17.28 1.75423 17.3572 1.81046 17.4568C1.86871 17.5563 1.89783 17.6731 1.89783 17.8072V18.7642C1.89783 18.8983 1.86871 19.0151 1.81046 19.1147C1.75423 19.2142 1.67389 19.2914 1.56946 19.3463C1.46502 19.4011 1.34151 19.4286 1.19891 19.4286ZM1.19891 19.0994C1.30335 19.0994 1.3867 19.069 1.44896 19.008C1.51122 18.9471 1.54235 18.8658 1.54235 18.7642V17.8072C1.54235 17.7057 1.51122 17.6244 1.44896 17.5634C1.3867 17.5025 1.30335 17.472 1.19891 17.472C1.09448 17.472 1.01113 17.5025 0.948871 17.5634C0.886612 17.6244 0.855482 17.7057 0.855482 17.8072V18.7642C0.855482 18.8658 0.886612 18.9471 0.948871 19.008C1.01113 19.069 1.09448 19.0994 1.19891 19.0994ZM1.19891 18.4838C1.14067 18.4838 1.09247 18.4645 1.05431 18.4259C1.01816 18.3873 1.00008 18.3375 1.00008 18.2766C1.00008 18.2156 1.01816 18.1669 1.05431 18.1303C1.09046 18.0937 1.13866 18.0754 1.19891 18.0754C1.25916 18.0754 1.30737 18.0937 1.34352 18.1303C1.37967 18.1669 1.39774 18.2156 1.39774 18.2766C1.39774 18.3375 1.37967 18.3873 1.34352 18.4259C1.30737 18.4645 1.25916 18.4838 1.19891 18.4838Z" fill="white"/>
<path d="M2.95707 19.3981V19.0629H3.52946V17.5116L2.95406 17.9444V17.5421L3.46017 17.1733H3.90603V19.0629H4.36695V19.3981H2.95707Z" fill="white"/>
<path d="M6.01665 19.4286C5.87406 19.4286 5.75055 19.4011 5.64611 19.3463C5.54167 19.2914 5.46033 19.2142 5.40209 19.1147C5.34586 19.0151 5.31774 18.8983 5.31774 18.7642V17.8072C5.31774 17.6731 5.34586 17.5563 5.40209 17.4568C5.46033 17.3572 5.54167 17.28 5.64611 17.2251C5.75055 17.1703 5.87406 17.1429 6.01665 17.1429C6.16126 17.1429 6.28477 17.1703 6.3872 17.2251C6.49163 17.28 6.57197 17.3572 6.6282 17.4568C6.68645 17.5563 6.71557 17.6731 6.71557 17.8072V18.7642C6.71557 18.8983 6.68645 19.0151 6.6282 19.1147C6.57197 19.2142 6.49163 19.2914 6.3872 19.3463C6.28276 19.4011 6.15925 19.4286 6.01665 19.4286ZM6.01665 19.0994C6.12109 19.0994 6.20444 19.069 6.2667 19.008C6.32896 18.9471 6.36009 18.8658 6.36009 18.7642V17.8072C6.36009 17.7057 6.32896 17.6244 6.2667 17.5634C6.20444 17.5025 6.12109 17.472 6.01665 17.472C5.91222 17.472 5.82887 17.5025 5.76661 17.5634C5.70435 17.6244 5.67322 17.7057 5.67322 17.8072V18.7642C5.67322 18.8658 5.70435 18.9471 5.76661 19.008C5.82887 19.069 5.91222 19.0994 6.01665 19.0994ZM6.01665 18.4838C5.95841 18.4838 5.91021 18.4645 5.87205 18.4259C5.8359 18.3873 5.81782 18.3375 5.81782 18.2766C5.81782 18.2156 5.8359 18.1669 5.87205 18.1303C5.9082 18.0937 5.9564 18.0754 6.01665 18.0754C6.07691 18.0754 6.12511 18.0937 6.16126 18.1303C6.19741 18.1669 6.21548 18.2156 6.21548 18.2766C6.21548 18.3375 6.19741 18.3873 6.16126 18.4259C6.12511 18.4645 6.07691 18.4838 6.01665 18.4838Z" fill="white"/>
<path d="M34.9231 19.4286C34.7805 19.4286 34.657 19.4011 34.5526 19.3463C34.4481 19.2914 34.3668 19.2142 34.3085 19.1147C34.2523 19.0151 34.2242 18.8983 34.2242 18.7642V17.8072C34.2242 17.6731 34.2523 17.5563 34.3085 17.4568C34.3668 17.3572 34.4481 17.28 34.5526 17.2251C34.657 17.1703 34.7805 17.1429 34.9231 17.1429C35.0677 17.1429 35.1912 17.1703 35.2936 17.2251C35.3981 17.28 35.4784 17.3572 35.5346 17.4568C35.5929 17.5563 35.622 17.6731 35.622 17.8072V18.7642C35.622 18.8983 35.5929 19.0151 35.5346 19.1147C35.4784 19.2142 35.3981 19.2914 35.2936 19.3463C35.1892 19.4011 35.0657 19.4286 34.9231 19.4286ZM34.9231 19.0994C35.0275 19.0994 35.1109 19.069 35.1731 19.008C35.2354 18.9471 35.2665 18.8658 35.2665 18.7642V17.8072C35.2665 17.7057 35.2354 17.6244 35.1731 17.5634C35.1109 17.5025 35.0275 17.472 34.9231 17.472C34.8187 17.472 34.7353 17.5025 34.6731 17.5634C34.6108 17.6244 34.5797 17.7057 34.5797 17.8072V18.7642C34.5797 18.8658 34.6108 18.9471 34.6731 19.008C34.7353 19.069 34.8187 19.0994 34.9231 19.0994ZM34.9231 18.4838C34.8649 18.4838 34.8167 18.4645 34.7785 18.4259C34.7423 18.3873 34.7243 18.3375 34.7243 18.2766C34.7243 18.2156 34.7423 18.1669 34.7785 18.1303C34.8146 18.0937 34.8628 18.0754 34.9231 18.0754C34.9833 18.0754 35.0315 18.0937 35.0677 18.1303C35.1039 18.1669 35.1219 18.2156 35.1219 18.2766C35.1219 18.3375 35.1039 18.3873 35.0677 18.4259C35.0315 18.4645 34.9833 18.4838 34.9231 18.4838Z" fill="white"/>
<path d="M36.6813 19.3981V19.0629H37.2536V17.5116L36.6782 17.9444V17.5421L37.1843 17.1733H37.6302V19.0629H38.0911V19.3981H36.6813Z" fill="white"/>
<path d="M39.7408 19.4286C39.5982 19.4286 39.4747 19.4011 39.3703 19.3463C39.2659 19.2914 39.1845 19.2142 39.1263 19.1147C39.07 19.0151 39.0419 18.8983 39.0419 18.7642V17.8072C39.0419 17.6731 39.07 17.5563 39.1263 17.4568C39.1845 17.3572 39.2659 17.28 39.3703 17.2251C39.4747 17.1703 39.5982 17.1429 39.7408 17.1429C39.8854 17.1429 40.009 17.1703 40.1114 17.2251C40.2158 17.28 40.2962 17.3572 40.3524 17.4568C40.4106 17.5563 40.4397 17.6731 40.4397 17.8072V18.7642C40.4397 18.8983 40.4106 19.0151 40.3524 19.1147C40.2962 19.2142 40.2158 19.2914 40.1114 19.3463C40.0069 19.4011 39.8834 19.4286 39.7408 19.4286ZM39.7408 19.0994C39.8453 19.0994 39.9286 19.069 39.9909 19.008C40.0531 18.9471 40.0843 18.8658 40.0843 18.7642V17.8072C40.0843 17.7057 40.0531 17.6244 39.9909 17.5634C39.9286 17.5025 39.8453 17.472 39.7408 17.472C39.6364 17.472 39.5531 17.5025 39.4908 17.5634C39.4285 17.6244 39.3974 17.7057 39.3974 17.8072V18.7642C39.3974 18.8658 39.4285 18.9471 39.4908 19.008C39.5531 19.069 39.6364 19.0994 39.7408 19.0994ZM39.7408 18.4838C39.6826 18.4838 39.6344 18.4645 39.5962 18.4259C39.5601 18.3873 39.542 18.3375 39.542 18.2766C39.542 18.2156 39.5601 18.1669 39.5962 18.1303C39.6324 18.0937 39.6806 18.0754 39.7408 18.0754C39.8011 18.0754 39.8493 18.0937 39.8854 18.1303C39.9216 18.1669 39.9397 18.2156 39.9397 18.2766C39.9397 18.3375 39.9216 18.3873 39.8854 18.4259C39.8493 18.4645 39.8011 18.4838 39.7408 18.4838Z" fill="white"/>
<path d="M34.9231 22.8571C34.7805 22.8571 34.657 22.8297 34.5526 22.7749C34.4481 22.72 34.3668 22.6428 34.3085 22.5432C34.2523 22.4437 34.2242 22.3269 34.2242 22.1928V21.2358C34.2242 21.1017 34.2523 20.9849 34.3085 20.8853C34.3668 20.7858 34.4481 20.7086 34.5526 20.6537C34.657 20.5989 34.7805 20.5714 34.9231 20.5714C35.0677 20.5714 35.1912 20.5989 35.2936 20.6537C35.3981 20.7086 35.4784 20.7858 35.5346 20.8853C35.5929 20.9849 35.622 21.1017 35.622 21.2358V22.1928C35.622 22.3269 35.5929 22.4437 35.5346 22.5432C35.4784 22.6428 35.3981 22.72 35.2936 22.7749C35.1892 22.8297 35.0657 22.8571 34.9231 22.8571ZM34.9231 22.528C35.0275 22.528 35.1109 22.4975 35.1731 22.4366C35.2354 22.3756 35.2665 22.2943 35.2665 22.1928V21.2358C35.2665 21.1342 35.2354 21.053 35.1731 20.992C35.1109 20.931 35.0275 20.9006 34.9231 20.9006C34.8187 20.9006 34.7353 20.931 34.6731 20.992C34.6108 21.053 34.5797 21.1342 34.5797 21.2358V22.1928C34.5797 22.2943 34.6108 22.3756 34.6731 22.4366C34.7353 22.4975 34.8187 22.528 34.9231 22.528ZM34.9231 21.9124C34.8649 21.9124 34.8167 21.8931 34.7785 21.8545C34.7423 21.8159 34.7243 21.7661 34.7243 21.7051C34.7243 21.6442 34.7423 21.5954 34.7785 21.5589C34.8146 21.5223 34.8628 21.504 34.9231 21.504C34.9833 21.504 35.0315 21.5223 35.0677 21.5589C35.1039 21.5954 35.1219 21.6442 35.1219 21.7051C35.1219 21.7661 35.1039 21.8159 35.0677 21.8545C35.0315 21.8931 34.9833 21.9124 34.9231 21.9124Z" fill="white"/>
<path d="M36.6813 22.8267V22.4914H37.2536V20.9402L36.6782 21.373V20.9707L37.1843 20.6019H37.6302V22.4914H38.0911V22.8267H36.6813Z" fill="white"/>
<path d="M39.7408 22.8571C39.5982 22.8571 39.4747 22.8297 39.3703 22.7749C39.2659 22.72 39.1845 22.6428 39.1263 22.5432C39.07 22.4437 39.0419 22.3269 39.0419 22.1928V21.2358C39.0419 21.1017 39.07 20.9849 39.1263 20.8853C39.1845 20.7858 39.2659 20.7086 39.3703 20.6537C39.4747 20.5989 39.5982 20.5714 39.7408 20.5714C39.8854 20.5714 40.009 20.5989 40.1114 20.6537C40.2158 20.7086 40.2962 20.7858 40.3524 20.8853C40.4106 20.9849 40.4397 21.1017 40.4397 21.2358V22.1928C40.4397 22.3269 40.4106 22.4437 40.3524 22.5432C40.2962 22.6428 40.2158 22.72 40.1114 22.7749C40.0069 22.8297 39.8834 22.8571 39.7408 22.8571ZM39.7408 22.528C39.8453 22.528 39.9286 22.4975 39.9909 22.4366C40.0531 22.3756 40.0843 22.2943 40.0843 22.1928V21.2358C40.0843 21.1342 40.0531 21.053 39.9909 20.992C39.9286 20.931 39.8453 20.9006 39.7408 20.9006C39.6364 20.9006 39.5531 20.931 39.4908 20.992C39.4285 21.053 39.3974 21.1342 39.3974 21.2358V22.1928C39.3974 22.2943 39.4285 22.3756 39.4908 22.4366C39.5531 22.4975 39.6364 22.528 39.7408 22.528ZM39.7408 21.9124C39.6826 21.9124 39.6344 21.8931 39.5962 21.8545C39.5601 21.8159 39.542 21.7661 39.542 21.7051C39.542 21.6442 39.5601 21.5954 39.5962 21.5589C39.6324 21.5223 39.6806 21.504 39.7408 21.504C39.8011 21.504 39.8493 21.5223 39.8854 21.5589C39.9216 21.5954 39.9397 21.6442 39.9397 21.7051C39.9397 21.7661 39.9216 21.8159 39.8854 21.8545C39.8493 21.8931 39.8011 21.9124 39.7408 21.9124Z" fill="white"/>
<path d="M32.5142 26.2857C32.3716 26.2857 32.2481 26.2583 32.1437 26.2034C32.0392 26.1486 31.9579 26.0714 31.8997 25.9718C31.8434 25.8723 31.8153 25.7554 31.8153 25.6213V24.6644C31.8153 24.5303 31.8434 24.4135 31.8997 24.3139C31.9579 24.2143 32.0392 24.1371 32.1437 24.0823C32.2481 24.0274 32.3716 24 32.5142 24C32.6588 24 32.7823 24.0274 32.8848 24.0823C32.9892 24.1371 33.0695 24.2143 33.1258 24.3139C33.184 24.4135 33.2131 24.5303 33.2131 24.6644V25.6213C33.2131 25.7554 33.184 25.8723 33.1258 25.9718C33.0695 26.0714 32.9892 26.1486 32.8848 26.2034C32.7803 26.2583 32.6568 26.2857 32.5142 26.2857ZM32.5142 25.9566C32.6187 25.9566 32.702 25.9261 32.7643 25.8651C32.8265 25.8042 32.8577 25.7229 32.8577 25.6213V24.6644C32.8577 24.5628 32.8265 24.4815 32.7643 24.4206C32.702 24.3596 32.6187 24.3291 32.5142 24.3291C32.4098 24.3291 32.3264 24.3596 32.2642 24.4206C32.2019 24.4815 32.1708 24.5628 32.1708 24.6644V25.6213C32.1708 25.7229 32.2019 25.8042 32.2642 25.8651C32.3264 25.9261 32.4098 25.9566 32.5142 25.9566ZM32.5142 25.341C32.456 25.341 32.4078 25.3216 32.3696 25.283C32.3335 25.2444 32.3154 25.1947 32.3154 25.1337C32.3154 25.0728 32.3335 25.024 32.3696 24.9874C32.4058 24.9509 32.454 24.9326 32.5142 24.9326C32.5745 24.9326 32.6227 24.9509 32.6588 24.9874C32.695 25.024 32.7131 25.0728 32.7131 25.1337C32.7131 25.1947 32.695 25.2444 32.6588 25.283C32.6227 25.3216 32.5745 25.341 32.5142 25.341Z" fill="white"/>
<path d="M34.2724 26.2552V25.92H34.8448V24.3688L34.2694 24.8015V24.3992L34.7755 24.0305H35.2213V25.92H35.6823V26.2552H34.2724Z" fill="white"/>
<path d="M37.332 26.2857C37.1894 26.2857 37.0659 26.2583 36.9614 26.2034C36.857 26.1486 36.7756 26.0714 36.7174 25.9718C36.6612 25.8723 36.633 25.7554 36.633 25.6213V24.6644C36.633 24.5303 36.6612 24.4135 36.7174 24.3139C36.7756 24.2143 36.857 24.1371 36.9614 24.0823C37.0659 24.0274 37.1894 24 37.332 24C37.4766 24 37.6001 24.0274 37.7025 24.0823C37.8069 24.1371 37.8873 24.2143 37.9435 24.3139C38.0018 24.4135 38.0309 24.5303 38.0309 24.6644V25.6213C38.0309 25.7554 38.0018 25.8723 37.9435 25.9718C37.8873 26.0714 37.8069 26.1486 37.7025 26.2034C37.5981 26.2583 37.4746 26.2857 37.332 26.2857ZM37.332 25.9566C37.4364 25.9566 37.5197 25.9261 37.582 25.8651C37.6443 25.8042 37.6754 25.7229 37.6754 25.6213V24.6644C37.6754 24.5628 37.6443 24.4815 37.582 24.4206C37.5197 24.3596 37.4364 24.3291 37.332 24.3291C37.2275 24.3291 37.1442 24.3596 37.0819 24.4206C37.0197 24.4815 36.9885 24.5628 36.9885 24.6644V25.6213C36.9885 25.7229 37.0197 25.8042 37.0819 25.8651C37.1442 25.9261 37.2275 25.9566 37.332 25.9566ZM37.332 25.341C37.2737 25.341 37.2255 25.3216 37.1874 25.283C37.1512 25.2444 37.1331 25.1947 37.1331 25.1337C37.1331 25.0728 37.1512 25.024 37.1874 24.9874C37.2235 24.9509 37.2717 24.9326 37.332 24.9326C37.3922 24.9326 37.4404 24.9509 37.4766 24.9874C37.5127 25.024 37.5308 25.0728 37.5308 25.1337C37.5308 25.1947 37.5127 25.2444 37.4766 25.283C37.4404 25.3216 37.3922 25.341 37.332 25.341Z" fill="white"/>
<path d="M39.0901 26.2552V25.92H39.6625V24.3688L39.0871 24.8015V24.3992L39.5932 24.0305H40.0391V25.92H40.5V26.2552H39.0901Z" fill="white"/>
<path d="M13.2433 29.7143C13.1007 29.7143 12.9772 29.6869 12.8727 29.632C12.7683 29.5771 12.6869 29.4999 12.6287 29.4004C12.5725 29.3008 12.5444 29.184 12.5444 29.0499V28.093C12.5444 27.9589 12.5725 27.842 12.6287 27.7425C12.6869 27.6429 12.7683 27.5657 12.8727 27.5109C12.9772 27.456 13.1007 27.4286 13.2433 27.4286C13.3879 27.4286 13.5114 27.456 13.6138 27.5109C13.7182 27.5657 13.7986 27.6429 13.8548 27.7425C13.9131 27.842 13.9422 27.9589 13.9422 28.093V29.0499C13.9422 29.184 13.9131 29.3008 13.8548 29.4004C13.7986 29.4999 13.7182 29.5771 13.6138 29.632C13.5094 29.6869 13.3859 29.7143 13.2433 29.7143ZM13.2433 29.3851C13.3477 29.3851 13.431 29.3547 13.4933 29.2937C13.5556 29.2328 13.5867 29.1515 13.5867 29.0499V28.093C13.5867 27.9914 13.5556 27.9101 13.4933 27.8491C13.431 27.7882 13.3477 27.7577 13.2433 27.7577C13.1388 27.7577 13.0555 27.7882 12.9932 27.8491C12.931 27.9101 12.8998 27.9914 12.8998 28.093V29.0499C12.8998 29.1515 12.931 29.2328 12.9932 29.2937C13.0555 29.3547 13.1388 29.3851 13.2433 29.3851ZM13.2433 28.7695C13.185 28.7695 13.1368 28.7502 13.0987 28.7116C13.0625 28.673 13.0444 28.6232 13.0444 28.5623C13.0444 28.5013 13.0625 28.4526 13.0987 28.416C13.1348 28.3794 13.183 28.3611 13.2433 28.3611C13.3035 28.3611 13.3517 28.3794 13.3879 28.416C13.424 28.4526 13.4421 28.5013 13.4421 28.5623C13.4421 28.6232 13.424 28.673 13.3879 28.7116C13.3517 28.7502 13.3035 28.7695 13.2433 28.7695Z" fill="white"/>
<path d="M15.0014 29.6838V29.3486H15.5738V27.7973L14.9984 28.2301V27.8278L15.5045 27.459H15.9504V29.3486H16.4113V29.6838H15.0014Z" fill="white"/>
<path d="M18.061 29.7143C17.9184 29.7143 17.7949 29.6869 17.6905 29.632C17.586 29.5771 17.5047 29.4999 17.4464 29.4004C17.3902 29.3008 17.3621 29.184 17.3621 29.0499V28.093C17.3621 27.9589 17.3902 27.842 17.4464 27.7425C17.5047 27.6429 17.586 27.5657 17.6905 27.5109C17.7949 27.456 17.9184 27.4286 18.061 27.4286C18.2056 27.4286 18.3291 27.456 18.4315 27.5109C18.536 27.5657 18.6163 27.6429 18.6726 27.7425C18.7308 27.842 18.7599 27.9589 18.7599 28.093V29.0499C18.7599 29.184 18.7308 29.3008 18.6726 29.4004C18.6163 29.4999 18.536 29.5771 18.4315 29.632C18.3271 29.6869 18.2036 29.7143 18.061 29.7143ZM18.061 29.3851C18.1654 29.3851 18.2488 29.3547 18.311 29.2937C18.3733 29.2328 18.4044 29.1515 18.4044 29.0499V28.093C18.4044 27.9914 18.3733 27.9101 18.311 27.8491C18.2488 27.7882 18.1654 27.7577 18.061 27.7577C17.9566 27.7577 17.8732 27.7882 17.811 27.8491C17.7487 27.9101 17.7176 27.9914 17.7176 28.093V29.0499C17.7176 29.1515 17.7487 29.2328 17.811 29.2937C17.8732 29.3547 17.9566 29.3851 18.061 29.3851ZM18.061 28.7695C18.0028 28.7695 17.9546 28.7502 17.9164 28.7116C17.8803 28.673 17.8622 28.6232 17.8622 28.5623C17.8622 28.5013 17.8803 28.4526 17.9164 28.416C17.9526 28.3794 18.0008 28.3611 18.061 28.3611C18.1213 28.3611 18.1695 28.3794 18.2056 28.416C18.2418 28.4526 18.2598 28.5013 18.2598 28.5623C18.2598 28.6232 18.2418 28.673 18.2056 28.7116C18.1695 28.7502 18.1213 28.7695 18.061 28.7695Z" fill="white"/>
<path d="M30.1054 29.7143C29.9628 29.7143 29.8392 29.6869 29.7348 29.632C29.6304 29.5771 29.549 29.4999 29.4908 29.4004C29.4346 29.3008 29.4064 29.184 29.4064 29.0499V28.093C29.4064 27.9589 29.4346 27.842 29.4908 27.7425C29.549 27.6429 29.6304 27.5657 29.7348 27.5109C29.8392 27.456 29.9628 27.4286 30.1054 27.4286C30.25 27.4286 30.3735 27.456 30.4759 27.5109C30.5803 27.5657 30.6607 27.6429 30.7169 27.7425C30.7751 27.842 30.8043 27.9589 30.8043 28.093V29.0499C30.8043 29.184 30.7751 29.3008 30.7169 29.4004C30.6607 29.4999 30.5803 29.5771 30.4759 29.632C30.3715 29.6869 30.2479 29.7143 30.1054 29.7143ZM30.1054 29.3851C30.2098 29.3851 30.2931 29.3547 30.3554 29.2937C30.4177 29.2328 30.4488 29.1515 30.4488 29.0499V28.093C30.4488 27.9914 30.4177 27.9101 30.3554 27.8491C30.2931 27.7882 30.2098 27.7577 30.1054 27.7577C30.0009 27.7577 29.9176 27.7882 29.8553 27.8491C29.7931 27.9101 29.7619 27.9914 29.7619 28.093V29.0499C29.7619 29.1515 29.7931 29.2328 29.8553 29.2937C29.9176 29.3547 30.0009 29.3851 30.1054 29.3851ZM30.1054 28.7695C30.0471 28.7695 29.9989 28.7502 29.9607 28.7116C29.9246 28.673 29.9065 28.6232 29.9065 28.5623C29.9065 28.5013 29.9246 28.4526 29.9607 28.416C29.9969 28.3794 30.0451 28.3611 30.1054 28.3611C30.1656 28.3611 30.2138 28.3794 30.25 28.416C30.2861 28.4526 30.3042 28.5013 30.3042 28.5623C30.3042 28.6232 30.2861 28.673 30.25 28.7116C30.2138 28.7502 30.1656 28.7695 30.1054 28.7695Z" fill="white"/>
<path d="M31.8635 29.6838V29.3486H32.4359V27.7973L31.8605 28.2301V27.8278L32.3666 27.459H32.8125V29.3486H33.2734V29.6838H31.8635Z" fill="white"/>
<path d="M34.9231 29.7143C34.7805 29.7143 34.657 29.6869 34.5526 29.632C34.4481 29.5771 34.3668 29.4999 34.3085 29.4004C34.2523 29.3008 34.2242 29.184 34.2242 29.0499V28.093C34.2242 27.9589 34.2523 27.842 34.3085 27.7425C34.3668 27.6429 34.4481 27.5657 34.5526 27.5109C34.657 27.456 34.7805 27.4286 34.9231 27.4286C35.0677 27.4286 35.1912 27.456 35.2936 27.5109C35.3981 27.5657 35.4784 27.6429 35.5346 27.7425C35.5929 27.842 35.622 27.9589 35.622 28.093V29.0499C35.622 29.184 35.5929 29.3008 35.5346 29.4004C35.4784 29.4999 35.3981 29.5771 35.2936 29.632C35.1892 29.6869 35.0657 29.7143 34.9231 29.7143ZM34.9231 29.3851C35.0275 29.3851 35.1109 29.3547 35.1731 29.2937C35.2354 29.2328 35.2665 29.1515 35.2665 29.0499V28.093C35.2665 27.9914 35.2354 27.9101 35.1731 27.8491C35.1109 27.7882 35.0275 27.7577 34.9231 27.7577C34.8187 27.7577 34.7353 27.7882 34.6731 27.8491C34.6108 27.9101 34.5797 27.9914 34.5797 28.093V29.0499C34.5797 29.1515 34.6108 29.2328 34.6731 29.2937C34.7353 29.3547 34.8187 29.3851 34.9231 29.3851ZM34.9231 28.7695C34.8649 28.7695 34.8167 28.7502 34.7785 28.7116C34.7423 28.673 34.7243 28.6232 34.7243 28.5623C34.7243 28.5013 34.7423 28.4526 34.7785 28.416C34.8146 28.3794 34.8628 28.3611 34.9231 28.3611C34.9833 28.3611 35.0315 28.3794 35.0677 28.416C35.1039 28.4526 35.1219 28.5013 35.1219 28.5623C35.1219 28.6232 35.1039 28.673 35.0677 28.7116C35.0315 28.7502 34.9833 28.7695 34.9231 28.7695Z" fill="white"/>
<path d="M36.6813 29.6838V29.3486H37.2536V27.7973L36.6782 28.2301V27.8278L37.1843 27.459H37.6302V29.3486H38.0911V29.6838H36.6813Z" fill="white"/>
<path d="M3.60778 33.1429C3.46519 33.1429 3.34167 33.1154 3.23724 33.0606C3.1328 33.0057 3.05146 32.9285 2.99322 32.829C2.93699 32.7294 2.90887 32.6126 2.90887 32.4785V31.5215C2.90887 31.3874 2.93699 31.2706 2.99322 31.171C3.05146 31.0715 3.1328 30.9943 3.23724 30.9394C3.34167 30.8846 3.46519 30.8571 3.60778 30.8571C3.75239 30.8571 3.8759 30.8846 3.97833 30.9394C4.08276 30.9943 4.1631 31.0715 4.21933 31.171C4.27758 31.2706 4.3067 31.3874 4.3067 31.5215V32.4785C4.3067 32.6126 4.27758 32.7294 4.21933 32.829C4.1631 32.9285 4.08276 33.0057 3.97833 33.0606C3.87389 33.1154 3.75038 33.1429 3.60778 33.1429ZM3.60778 32.8137C3.71222 32.8137 3.79557 32.7832 3.85783 32.7223C3.92009 32.6613 3.95122 32.5801 3.95122 32.4785V31.5215C3.95122 31.4199 3.92009 31.3387 3.85783 31.2777C3.79557 31.2168 3.71222 31.1863 3.60778 31.1863C3.50335 31.1863 3.42 31.2168 3.35774 31.2777C3.29548 31.3387 3.26435 31.4199 3.26435 31.5215V32.4785C3.26435 32.5801 3.29548 32.6613 3.35774 32.7223C3.42 32.7832 3.50335 32.8137 3.60778 32.8137ZM3.60778 32.1981C3.54954 32.1981 3.50134 32.1788 3.46318 32.1402C3.42703 32.1016 3.40895 32.0518 3.40895 31.9909C3.40895 31.9299 3.42703 31.8811 3.46318 31.8446C3.49933 31.808 3.54753 31.7897 3.60778 31.7897C3.66804 31.7897 3.71624 31.808 3.75239 31.8446C3.78854 31.8811 3.80661 31.9299 3.80661 31.9909C3.80661 32.0518 3.78854 32.1016 3.75239 32.1402C3.71624 32.1788 3.66804 32.1981 3.60778 32.1981Z" fill="white"/>
<path d="M5.36594 33.1124V32.7771H5.93833V31.2259L5.36293 31.6587V31.2564L5.86904 30.8876H6.3149V32.7771H6.77582V33.1124H5.36594Z" fill="white"/>
<path d="M13.2433 33.1429C13.1007 33.1429 12.9772 33.1154 12.8727 33.0606C12.7683 33.0057 12.6869 32.9285 12.6287 32.829C12.5725 32.7294 12.5444 32.6126 12.5444 32.4785V31.5215C12.5444 31.3874 12.5725 31.2706 12.6287 31.171C12.6869 31.0715 12.7683 30.9943 12.8727 30.9394C12.9772 30.8846 13.1007 30.8571 13.2433 30.8571C13.3879 30.8571 13.5114 30.8846 13.6138 30.9394C13.7182 30.9943 13.7986 31.0715 13.8548 31.171C13.9131 31.2706 13.9422 31.3874 13.9422 31.5215V32.4785C13.9422 32.6126 13.9131 32.7294 13.8548 32.829C13.7986 32.9285 13.7182 33.0057 13.6138 33.0606C13.5094 33.1154 13.3859 33.1429 13.2433 33.1429ZM13.2433 32.8137C13.3477 32.8137 13.431 32.7832 13.4933 32.7223C13.5556 32.6613 13.5867 32.5801 13.5867 32.4785V31.5215C13.5867 31.4199 13.5556 31.3387 13.4933 31.2777C13.431 31.2168 13.3477 31.1863 13.2433 31.1863C13.1388 31.1863 13.0555 31.2168 12.9932 31.2777C12.931 31.3387 12.8998 31.4199 12.8998 31.5215V32.4785C12.8998 32.5801 12.931 32.6613 12.9932 32.7223C13.0555 32.7832 13.1388 32.8137 13.2433 32.8137ZM13.2433 32.1981C13.185 32.1981 13.1368 32.1788 13.0987 32.1402C13.0625 32.1016 13.0444 32.0518 13.0444 31.9909C13.0444 31.9299 13.0625 31.8811 13.0987 31.8446C13.1348 31.808 13.183 31.7897 13.2433 31.7897C13.3035 31.7897 13.3517 31.808 13.3879 31.8446C13.424 31.8811 13.4421 31.9299 13.4421 31.9909C13.4421 32.0518 13.424 32.1016 13.3879 32.1402C13.3517 32.1788 13.3035 32.1981 13.2433 32.1981Z" fill="white"/>
<path d="M15.0014 33.1124V32.7771H15.5738V31.2259L14.9984 31.6587V31.2564L15.5045 30.8876H15.9504V32.7771H16.4113V33.1124H15.0014Z" fill="white"/>
<path d="M18.061 33.1429C17.9184 33.1429 17.7949 33.1154 17.6905 33.0606C17.586 33.0057 17.5047 32.9285 17.4464 32.829C17.3902 32.7294 17.3621 32.6126 17.3621 32.4785V31.5215C17.3621 31.3874 17.3902 31.2706 17.4464 31.171C17.5047 31.0715 17.586 30.9943 17.6905 30.9394C17.7949 30.8846 17.9184 30.8571 18.061 30.8571C18.2056 30.8571 18.3291 30.8846 18.4315 30.9394C18.536 30.9943 18.6163 31.0715 18.6726 31.171C18.7308 31.2706 18.7599 31.3874 18.7599 31.5215V32.4785C18.7599 32.6126 18.7308 32.7294 18.6726 32.829C18.6163 32.9285 18.536 33.0057 18.4315 33.0606C18.3271 33.1154 18.2036 33.1429 18.061 33.1429ZM18.061 32.8137C18.1654 32.8137 18.2488 32.7832 18.311 32.7223C18.3733 32.6613 18.4044 32.5801 18.4044 32.4785V31.5215C18.4044 31.4199 18.3733 31.3387 18.311 31.2777C18.2488 31.2168 18.1654 31.1863 18.061 31.1863C17.9566 31.1863 17.8732 31.2168 17.811 31.2777C17.7487 31.3387 17.7176 31.4199 17.7176 31.5215V32.4785C17.7176 32.5801 17.7487 32.6613 17.811 32.7223C17.8732 32.7832 17.9566 32.8137 18.061 32.8137ZM18.061 32.1981C18.0028 32.1981 17.9546 32.1788 17.9164 32.1402C17.8803 32.1016 17.8622 32.0518 17.8622 31.9909C17.8622 31.9299 17.8803 31.8811 17.9164 31.8446C17.9526 31.808 18.0008 31.7897 18.061 31.7897C18.1213 31.7897 18.1695 31.808 18.2056 31.8446C18.2418 31.8811 18.2598 31.9299 18.2598 31.9909C18.2598 32.0518 18.2418 32.1016 18.2056 32.1402C18.1695 32.1788 18.1213 32.1981 18.061 32.1981Z" fill="white"/>
<path d="M20.8754 33.6L21.1164 32.6522H21.5984L21.2068 33.6H20.8754ZM21.2821 31.9177C21.2078 31.9177 21.1475 31.8933 21.1013 31.8446C21.0531 31.7958 21.029 31.7349 21.029 31.6617C21.029 31.5886 21.0531 31.5276 21.1013 31.4789C21.1495 31.4301 21.2098 31.4057 21.2821 31.4057H21.3423C21.4146 31.4057 21.4749 31.4301 21.5231 31.4789C21.5713 31.5276 21.5954 31.5886 21.5954 31.6617C21.5954 31.7349 21.5723 31.7958 21.5261 31.8446C21.4779 31.8933 21.4167 31.9177 21.3423 31.9177H21.2821ZM22.2009 33.6L22.4419 32.6522H22.9239L22.5323 33.6H22.2009ZM22.6076 31.9177C22.5333 31.9177 22.4721 31.8933 22.4239 31.8446C22.3777 31.7958 22.3546 31.7349 22.3546 31.6617C22.3546 31.5886 22.3787 31.5276 22.4269 31.4789C22.4751 31.4301 22.5353 31.4057 22.6076 31.4057H22.6679C22.7402 31.4057 22.8004 31.4301 22.8486 31.4789C22.8968 31.5276 22.9209 31.5886 22.9209 31.6617C22.9209 31.7349 22.8968 31.7958 22.8486 31.8446C22.8024 31.8933 22.7422 31.9177 22.6679 31.9177H22.6076Z" fill="white"/>
<path d="M25.2876 33.1429C25.145 33.1429 25.0215 33.1154 24.9171 33.0606C24.8126 33.0057 24.7313 32.9285 24.673 32.829C24.6168 32.7294 24.5887 32.6126 24.5887 32.4785V31.5215C24.5887 31.3874 24.6168 31.2706 24.673 31.171C24.7313 31.0715 24.8126 30.9943 24.9171 30.9394C25.0215 30.8846 25.145 30.8571 25.2876 30.8571C25.4322 30.8571 25.5557 30.8846 25.6582 30.9394C25.7626 30.9943 25.8429 31.0715 25.8992 31.171C25.9574 31.2706 25.9865 31.3874 25.9865 31.5215V32.4785C25.9865 32.6126 25.9574 32.7294 25.8992 32.829C25.8429 32.9285 25.7626 33.0057 25.6582 33.0606C25.5537 33.1154 25.4302 33.1429 25.2876 33.1429ZM25.2876 32.8137C25.392 32.8137 25.4754 32.7832 25.5377 32.7223C25.5999 32.6613 25.631 32.5801 25.631 32.4785V31.5215C25.631 31.4199 25.5999 31.3387 25.5377 31.2777C25.4754 31.2168 25.392 31.1863 25.2876 31.1863C25.1832 31.1863 25.0998 31.2168 25.0376 31.2777C24.9753 31.3387 24.9442 31.4199 24.9442 31.5215V32.4785C24.9442 32.5801 24.9753 32.6613 25.0376 32.7223C25.0998 32.7832 25.1832 32.8137 25.2876 32.8137ZM25.2876 32.1981C25.2294 32.1981 25.1812 32.1788 25.143 32.1402C25.1069 32.1016 25.0888 32.0518 25.0888 31.9909C25.0888 31.9299 25.1069 31.8811 25.143 31.8446C25.1792 31.808 25.2274 31.7897 25.2876 31.7897C25.3479 31.7897 25.3961 31.808 25.4322 31.8446C25.4684 31.8811 25.4864 31.9299 25.4864 31.9909C25.4864 32.0518 25.4684 32.1016 25.4322 32.1402C25.3961 32.1788 25.3479 32.1981 25.2876 32.1981Z" fill="white"/>
<path d="M27.0458 33.1124V32.7771H27.6182V31.2259L27.0428 31.6587V31.2564L27.5489 30.8876H27.9947V32.7771H28.4557V33.1124H27.0458Z" fill="white"/>
<path d="M30.1054 33.1429C29.9628 33.1429 29.8392 33.1154 29.7348 33.0606C29.6304 33.0057 29.549 32.9285 29.4908 32.829C29.4346 32.7294 29.4064 32.6126 29.4064 32.4785V31.5215C29.4064 31.3874 29.4346 31.2706 29.4908 31.171C29.549 31.0715 29.6304 30.9943 29.7348 30.9394C29.8392 30.8846 29.9628 30.8571 30.1054 30.8571C30.25 30.8571 30.3735 30.8846 30.4759 30.9394C30.5803 30.9943 30.6607 31.0715 30.7169 31.171C30.7751 31.2706 30.8043 31.3874 30.8043 31.5215V32.4785C30.8043 32.6126 30.7751 32.7294 30.7169 32.829C30.6607 32.9285 30.5803 33.0057 30.4759 33.0606C30.3715 33.1154 30.2479 33.1429 30.1054 33.1429ZM30.1054 32.8137C30.2098 32.8137 30.2931 32.7832 30.3554 32.7223C30.4177 32.6613 30.4488 32.5801 30.4488 32.4785V31.5215C30.4488 31.4199 30.4177 31.3387 30.3554 31.2777C30.2931 31.2168 30.2098 31.1863 30.1054 31.1863C30.0009 31.1863 29.9176 31.2168 29.8553 31.2777C29.7931 31.3387 29.7619 31.4199 29.7619 31.5215V32.4785C29.7619 32.5801 29.7931 32.6613 29.8553 32.7223C29.9176 32.7832 30.0009 32.8137 30.1054 32.8137ZM30.1054 32.1981C30.0471 32.1981 29.9989 32.1788 29.9607 32.1402C29.9246 32.1016 29.9065 32.0518 29.9065 31.9909C29.9065 31.9299 29.9246 31.8811 29.9607 31.8446C29.9969 31.808 30.0451 31.7897 30.1054 31.7897C30.1656 31.7897 30.2138 31.808 30.25 31.8446C30.2861 31.8811 30.3042 31.9299 30.3042 31.9909C30.3042 32.0518 30.2861 32.1016 30.25 32.1402C30.2138 32.1788 30.1656 32.1981 30.1054 32.1981Z" fill="white"/>
<path d="M31.8635 33.1124V32.7771H32.4359V31.2259L31.8605 31.6587V31.2564L32.3666 30.8876H32.8125V32.7771H33.2734V33.1124H31.8635Z" fill="white"/>
<path d="M34.9231 33.1429C34.7805 33.1429 34.657 33.1154 34.5526 33.0606C34.4481 33.0057 34.3668 32.9285 34.3085 32.829C34.2523 32.7294 34.2242 32.6126 34.2242 32.4785V31.5215C34.2242 31.3874 34.2523 31.2706 34.3085 31.171C34.3668 31.0715 34.4481 30.9943 34.5526 30.9394C34.657 30.8846 34.7805 30.8571 34.9231 30.8571C35.0677 30.8571 35.1912 30.8846 35.2936 30.9394C35.3981 30.9943 35.4784 31.0715 35.5346 31.171C35.5929 31.2706 35.622 31.3874 35.622 31.5215V32.4785C35.622 32.6126 35.5929 32.7294 35.5346 32.829C35.4784 32.9285 35.3981 33.0057 35.2936 33.0606C35.1892 33.1154 35.0657 33.1429 34.9231 33.1429ZM34.9231 32.8137C35.0275 32.8137 35.1109 32.7832 35.1731 32.7223C35.2354 32.6613 35.2665 32.5801 35.2665 32.4785V31.5215C35.2665 31.4199 35.2354 31.3387 35.1731 31.2777C35.1109 31.2168 35.0275 31.1863 34.9231 31.1863C34.8187 31.1863 34.7353 31.2168 34.6731 31.2777C34.6108 31.3387 34.5797 31.4199 34.5797 31.5215V32.4785C34.5797 32.5801 34.6108 32.6613 34.6731 32.7223C34.7353 32.7832 34.8187 32.8137 34.9231 32.8137ZM34.9231 32.1981C34.8649 32.1981 34.8167 32.1788 34.7785 32.1402C34.7423 32.1016 34.7243 32.0518 34.7243 31.9909C34.7243 31.9299 34.7423 31.8811 34.7785 31.8446C34.8146 31.808 34.8628 31.7897 34.9231 31.7897C34.9833 31.7897 35.0315 31.808 35.0677 31.8446C35.1039 31.8811 35.1219 31.9299 35.1219 31.9909C35.1219 32.0518 35.1039 32.1016 35.0677 32.1402C35.0315 32.1788 34.9833 32.1981 34.9231 32.1981Z" fill="white"/>
<path d="M8.42552 36.5714C8.28293 36.5714 8.15942 36.544 8.05498 36.4891C7.95054 36.4343 7.8692 36.3571 7.81096 36.2575C7.75473 36.158 7.72661 36.0411 7.72661 35.907V34.9501C7.72661 34.816 7.75473 34.6992 7.81096 34.5996C7.8692 34.5001 7.95054 34.4229 8.05498 34.368C8.15942 34.3131 8.28293 34.2857 8.42552 34.2857C8.57013 34.2857 8.69364 34.3131 8.79607 34.368C8.9005 34.4229 8.98084 34.5001 9.03707 34.5996C9.09532 34.6992 9.12444 34.816 9.12444 34.9501V35.907C9.12444 36.0411 9.09532 36.158 9.03707 36.2575C8.98084 36.3571 8.9005 36.4343 8.79607 36.4891C8.69163 36.544 8.56812 36.5714 8.42552 36.5714ZM8.42552 36.2423C8.52996 36.2423 8.61331 36.2118 8.67557 36.1509C8.73783 36.0899 8.76896 36.0086 8.76896 35.907V34.9501C8.76896 34.8485 8.73783 34.7672 8.67557 34.7063C8.61331 34.6453 8.52996 34.6149 8.42552 34.6149C8.32109 34.6149 8.23774 34.6453 8.17548 34.7063C8.11322 34.7672 8.08209 34.8485 8.08209 34.9501V35.907C8.08209 36.0086 8.11322 36.0899 8.17548 36.1509C8.23774 36.2118 8.32109 36.2423 8.42552 36.2423ZM8.42552 35.6267C8.36728 35.6267 8.31908 35.6074 8.28092 35.5688C8.24477 35.5302 8.22669 35.4804 8.22669 35.4194C8.22669 35.3585 8.24477 35.3097 8.28092 35.2731C8.31707 35.2366 8.36527 35.2183 8.42552 35.2183C8.48577 35.2183 8.53398 35.2366 8.57013 35.2731C8.60628 35.3097 8.62435 35.3585 8.62435 35.4194C8.62435 35.4804 8.60628 35.5302 8.57013 35.5688C8.53398 35.6074 8.48577 35.6267 8.42552 35.6267Z" fill="white"/>
<path d="M10.1837 36.541V36.2057H10.7561V34.6545L10.1807 35.0872V34.685L10.6868 34.3162H11.1326V36.2057H11.5936V36.541H10.1837Z" fill="white"/>
<path d="M20.4699 36.5714C20.3273 36.5714 20.2038 36.544 20.0993 36.4891C19.9949 36.4343 19.9136 36.3571 19.8553 36.2575C19.7991 36.158 19.771 36.0411 19.771 35.907V34.9501C19.771 34.816 19.7991 34.6992 19.8553 34.5996C19.9136 34.5001 19.9949 34.4229 20.0993 34.368C20.2038 34.3131 20.3273 34.2857 20.4699 34.2857C20.6145 34.2857 20.738 34.3131 20.8404 34.368C20.9449 34.4229 21.0252 34.5001 21.0814 34.5996C21.1397 34.6992 21.1688 34.816 21.1688 34.9501V35.907C21.1688 36.0411 21.1397 36.158 21.0814 36.2575C21.0252 36.3571 20.9449 36.4343 20.8404 36.4891C20.736 36.544 20.6125 36.5714 20.4699 36.5714ZM20.4699 36.2423C20.5743 36.2423 20.6577 36.2118 20.7199 36.1509C20.7822 36.0899 20.8133 36.0086 20.8133 35.907V34.9501C20.8133 34.8485 20.7822 34.7672 20.7199 34.7063C20.6577 34.6453 20.5743 34.6149 20.4699 34.6149C20.3654 34.6149 20.2821 34.6453 20.2198 34.7063C20.1576 34.7672 20.1264 34.8485 20.1264 34.9501V35.907C20.1264 36.0086 20.1576 36.0899 20.2198 36.1509C20.2821 36.2118 20.3654 36.2423 20.4699 36.2423ZM20.4699 35.6267C20.4116 35.6267 20.3634 35.6074 20.3253 35.5688C20.2891 35.5302 20.271 35.4804 20.271 35.4194C20.271 35.3585 20.2891 35.3097 20.3253 35.2731C20.3614 35.2366 20.4096 35.2183 20.4699 35.2183C20.5301 35.2183 20.5783 35.2366 20.6145 35.2731C20.6506 35.3097 20.6687 35.3585 20.6687 35.4194C20.6687 35.4804 20.6506 35.5302 20.6145 35.5688C20.5783 35.6074 20.5301 35.6267 20.4699 35.6267Z" fill="white"/>
<path d="M22.228 36.541V36.2057H22.8004V34.6545L22.225 35.0872V34.685L22.7311 34.3162H23.177V36.2057H23.6379V36.541H22.228Z" fill="white"/>
<path d="M25.2876 36.5714C25.145 36.5714 25.0215 36.544 24.9171 36.4891C24.8126 36.4343 24.7313 36.3571 24.673 36.2575C24.6168 36.158 24.5887 36.0411 24.5887 35.907V34.9501C24.5887 34.816 24.6168 34.6992 24.673 34.5996C24.7313 34.5001 24.8126 34.4229 24.9171 34.368C25.0215 34.3131 25.145 34.2857 25.2876 34.2857C25.4322 34.2857 25.5557 34.3131 25.6582 34.368C25.7626 34.4229 25.8429 34.5001 25.8992 34.5996C25.9574 34.6992 25.9865 34.816 25.9865 34.9501V35.907C25.9865 36.0411 25.9574 36.158 25.8992 36.2575C25.8429 36.3571 25.7626 36.4343 25.6582 36.4891C25.5537 36.544 25.4302 36.5714 25.2876 36.5714ZM25.2876 36.2423C25.392 36.2423 25.4754 36.2118 25.5377 36.1509C25.5999 36.0899 25.631 36.0086 25.631 35.907V34.9501C25.631 34.8485 25.5999 34.7672 25.5377 34.7063C25.4754 34.6453 25.392 34.6149 25.2876 34.6149C25.1832 34.6149 25.0998 34.6453 25.0376 34.7063C24.9753 34.7672 24.9442 34.8485 24.9442 34.9501V35.907C24.9442 36.0086 24.9753 36.0899 25.0376 36.1509C25.0998 36.2118 25.1832 36.2423 25.2876 36.2423ZM25.2876 35.6267C25.2294 35.6267 25.1812 35.6074 25.143 35.5688C25.1069 35.5302 25.0888 35.4804 25.0888 35.4194C25.0888 35.3585 25.1069 35.3097 25.143 35.2731C25.1792 35.2366 25.2274 35.2183 25.2876 35.2183C25.3479 35.2183 25.3961 35.2366 25.4322 35.2731C25.4684 35.3097 25.4864 35.3585 25.4864 35.4194C25.4864 35.4804 25.4684 35.5302 25.4322 35.5688C25.3961 35.6074 25.3479 35.6267 25.2876 35.6267Z" fill="white"/>
<path d="M27.0458 36.541V36.2057H27.6182V34.6545L27.0428 35.0872V34.685L27.5489 34.3162H27.9947V36.2057H28.4557V36.541H27.0458Z" fill="white"/>
<path d="M30.1054 36.5714C29.9628 36.5714 29.8392 36.544 29.7348 36.4891C29.6304 36.4343 29.549 36.3571 29.4908 36.2575C29.4346 36.158 29.4064 36.0411 29.4064 35.907V34.9501C29.4064 34.816 29.4346 34.6992 29.4908 34.5996C29.549 34.5001 29.6304 34.4229 29.7348 34.368C29.8392 34.3131 29.9628 34.2857 30.1054 34.2857C30.25 34.2857 30.3735 34.3131 30.4759 34.368C30.5803 34.4229 30.6607 34.5001 30.7169 34.5996C30.7751 34.6992 30.8043 34.816 30.8043 34.9501V35.907C30.8043 36.0411 30.7751 36.158 30.7169 36.2575C30.6607 36.3571 30.5803 36.4343 30.4759 36.4891C30.3715 36.544 30.2479 36.5714 30.1054 36.5714ZM30.1054 36.2423C30.2098 36.2423 30.2931 36.2118 30.3554 36.1509C30.4177 36.0899 30.4488 36.0086 30.4488 35.907V34.9501C30.4488 34.8485 30.4177 34.7672 30.3554 34.7063C30.2931 34.6453 30.2098 34.6149 30.1054 34.6149C30.0009 34.6149 29.9176 34.6453 29.8553 34.7063C29.7931 34.7672 29.7619 34.8485 29.7619 34.9501V35.907C29.7619 36.0086 29.7931 36.0899 29.8553 36.1509C29.9176 36.2118 30.0009 36.2423 30.1054 36.2423ZM30.1054 35.6267C30.0471 35.6267 29.9989 35.6074 29.9607 35.5688C29.9246 35.5302 29.9065 35.4804 29.9065 35.4194C29.9065 35.3585 29.9246 35.3097 29.9607 35.2731C29.9969 35.2366 30.0451 35.2183 30.1054 35.2183C30.1656 35.2183 30.2138 35.2366 30.25 35.2731C30.2861 35.3097 30.3042 35.3585 30.3042 35.4194C30.3042 35.4804 30.2861 35.5302 30.25 35.5688C30.2138 35.6074 30.1656 35.6267 30.1054 35.6267Z" fill="white"/>
<path d="M31.8635 36.541V36.2057H32.4359V34.6545L31.8605 35.0872V34.685L32.3666 34.3162H32.8125V36.2057H33.2734V36.541H31.8635Z" fill="white"/>
<path d="M8.45264 38.5524L8.69364 37.6046H9.17264L8.78101 38.5524H8.45264ZM7.70853 38.5524L7.94954 37.6046H8.42854L8.0369 38.5524H7.70853Z" fill="white"/>
<path d="M10.8615 38.5524L11.1025 37.6046H11.5815L11.1899 38.5524H10.8615ZM10.1174 38.5524L10.3584 37.6046H10.8374L10.4458 38.5524H10.1174Z" fill="white"/>
<path d="M20.4699 40C20.3273 40 20.2038 39.9726 20.0993 39.9177C19.9949 39.8629 19.9136 39.7856 19.8553 39.6861C19.7991 39.5865 19.771 39.4697 19.771 39.3356V38.3787C19.771 38.2446 19.7991 38.1277 19.8553 38.0282C19.9136 37.9286 19.9949 37.8514 20.0993 37.7966C20.2038 37.7417 20.3273 37.7143 20.4699 37.7143C20.6145 37.7143 20.738 37.7417 20.8404 37.7966C20.9449 37.8514 21.0252 37.9286 21.0814 38.0282C21.1397 38.1277 21.1688 38.2446 21.1688 38.3787V39.3356C21.1688 39.4697 21.1397 39.5865 21.0814 39.6861C21.0252 39.7856 20.9449 39.8629 20.8404 39.9177C20.736 39.9726 20.6125 40 20.4699 40ZM20.4699 39.6709C20.5743 39.6709 20.6577 39.6404 20.7199 39.5794C20.7822 39.5185 20.8133 39.4372 20.8133 39.3356V38.3787C20.8133 38.2771 20.7822 38.1958 20.7199 38.1349C20.6577 38.0739 20.5743 38.0434 20.4699 38.0434C20.3654 38.0434 20.2821 38.0739 20.2198 38.1349C20.1576 38.1958 20.1264 38.2771 20.1264 38.3787V39.3356C20.1264 39.4372 20.1576 39.5185 20.2198 39.5794C20.2821 39.6404 20.3654 39.6709 20.4699 39.6709ZM20.4699 39.0552C20.4116 39.0552 20.3634 39.0359 20.3253 38.9973C20.2891 38.9587 20.271 38.909 20.271 38.848C20.271 38.787 20.2891 38.7383 20.3253 38.7017C20.3614 38.6651 20.4096 38.6469 20.4699 38.6469C20.5301 38.6469 20.5783 38.6651 20.6145 38.7017C20.6506 38.7383 20.6687 38.787 20.6687 38.848C20.6687 38.909 20.6506 38.9587 20.6145 38.9973C20.5783 39.0359 20.5301 39.0552 20.4699 39.0552Z" fill="white"/>
<path d="M22.228 39.9695V39.6343H22.8004V38.083L22.225 38.5158V38.1135L22.7311 37.7448H23.177V39.6343H23.6379V39.9695H22.228Z" fill="white"/>
<path d="M25.2876 40C25.145 40 25.0215 39.9726 24.9171 39.9177C24.8126 39.8629 24.7313 39.7856 24.673 39.6861C24.6168 39.5865 24.5887 39.4697 24.5887 39.3356V38.3787C24.5887 38.2446 24.6168 38.1277 24.673 38.0282C24.7313 37.9286 24.8126 37.8514 24.9171 37.7966C25.0215 37.7417 25.145 37.7143 25.2876 37.7143C25.4322 37.7143 25.5557 37.7417 25.6582 37.7966C25.7626 37.8514 25.8429 37.9286 25.8992 38.0282C25.9574 38.1277 25.9865 38.2446 25.9865 38.3787V39.3356C25.9865 39.4697 25.9574 39.5865 25.8992 39.6861C25.8429 39.7856 25.7626 39.8629 25.6582 39.9177C25.5537 39.9726 25.4302 40 25.2876 40ZM25.2876 39.6709C25.392 39.6709 25.4754 39.6404 25.5377 39.5794C25.5999 39.5185 25.631 39.4372 25.631 39.3356V38.3787C25.631 38.2771 25.5999 38.1958 25.5377 38.1349C25.4754 38.0739 25.392 38.0434 25.2876 38.0434C25.1832 38.0434 25.0998 38.0739 25.0376 38.1349C24.9753 38.1958 24.9442 38.2771 24.9442 38.3787V39.3356C24.9442 39.4372 24.9753 39.5185 25.0376 39.5794C25.0998 39.6404 25.1832 39.6709 25.2876 39.6709ZM25.2876 39.0552C25.2294 39.0552 25.1812 39.0359 25.143 38.9973C25.1069 38.9587 25.0888 38.909 25.0888 38.848C25.0888 38.787 25.1069 38.7383 25.143 38.7017C25.1792 38.6651 25.2274 38.6469 25.2876 38.6469C25.3479 38.6469 25.3961 38.6651 25.4322 38.7017C25.4684 38.7383 25.4864 38.787 25.4864 38.848C25.4864 38.909 25.4684 38.9587 25.4322 38.9973C25.3961 39.0359 25.3479 39.0552 25.2876 39.0552Z" fill="white"/>
<path d="M27.0458 39.9695V39.6343H27.6182V38.083L27.0428 38.5158V38.1135L27.5489 37.7448H27.9947V39.6343H28.4557V39.9695H27.0458Z" fill="white"/>
</svg>
