<svg width="24" height="24" viewBox="0 0 24 24" fill="none" xmlns="http://www.w3.org/2000/svg">
<path fill-rule="evenodd" clip-rule="evenodd" d="M13.2507 6C13.2507 5.58579 13.5865 5.25 14.0007 5.25H18.0011H18.0011C18.1749 5.25 18.3348 5.30908 18.462 5.40824C18.5148 5.44945 18.562 5.49758 18.6021 5.55126C18.6224 5.57835 18.6409 5.60685 18.6574 5.6366C18.7171 5.74425 18.7511 5.86815 18.7511 6V10.0004C18.7511 10.4146 18.4153 10.7504 18.0011 10.7504C17.5869 10.7504 17.2511 10.4146 17.2511 10.0004V7.81059L11.1973 13.8644C10.9044 14.1573 10.4296 14.1573 10.1367 13.8644C9.84377 13.5715 9.84377 13.0966 10.1367 12.8037L16.1904 6.75H14.0007C13.5865 6.75 13.2507 6.41421 13.2507 6ZM7.33347 8.74902C7.01123 8.74902 6.75 9.01025 6.75 9.33249V16.6666C6.75 16.9888 7.01123 17.25 7.33347 17.25H14.6675C14.9898 17.25 15.251 16.9888 15.251 16.6666V12.6662C15.251 12.2519 15.5868 11.9162 16.001 11.9162C16.4152 11.9162 16.751 12.2519 16.751 12.6662V16.6666C16.751 17.8172 15.8182 18.75 14.6675 18.75H7.33347C6.1828 18.75 5.25 17.8172 5.25 16.6666V9.33249C5.25 8.18182 6.1828 7.24902 7.33347 7.24902H11.3339C11.7481 7.24902 12.0839 7.58481 12.0839 7.99902C12.0839 8.41324 11.7481 8.74902 11.3339 8.74902H7.33347Z" fill="#4D5B7C"/>
</svg>
