<svg fill="none" height="102" viewBox="0 0 271 102" width="271" xmlns="http://www.w3.org/2000/svg" xmlns:xlink="http://www.w3.org/1999/xlink"><clipPath id="a"><path d="m0 0h82v120h-82z" transform="matrix(-1 0 0 1 271 25)"/></clipPath><clipPath id="b"><path d="m-27 0h76v272h-76z"/></clipPath><g clip-path="url(#a)"><path d="m189.126 109.727c1.161-1.104 4.607.522 5.653 1.326.861.658 1.936 1.471 3.039 2.429.093.082.204.14.324.169.119.03.245.03.365 0 .119-.029.23-.087.323-.169.092-.082.164-.184.208-.3.923-2.219 1.99-4.376 3.194-6.456.465-.796.743-1.687.812-2.606s-.072-1.842-.412-2.698c-.341-.857-.872-1.6244-1.553-2.245-.682-.6206-1.495-1.0779-2.38-1.3371-.95-.281-1.921-.4881-2.904-.6195-3.078-.3678-6.563-1.0358-6.834-2.6136s4.259-2.1198 6.253-2.2263c2.185-.0911 4.373.0289 6.534.3581.355.0692.723.0375 1.061-.0916.338-.129.633-.3502.852-.6384.218-.2883.352-.632.385-.9923s-.035-.7227-.197-1.0461c-.781-1.8124-1.755-3.5356-2.904-5.14-1.936-2.4199-3.872-5.3529-3.001-6.6597.871-1.3067 4.511 1.5004 6.002 2.8169 3.368 2.991 6.466 5.8853 8.121 10.5993 0 0 .445 1.3165.842 2.2845.581 1.452 3.34-.8325 4.259-2.0037.594-.7887.992-1.7075 1.16-2.6805.169-.973.103-1.9721-.192-2.9145-1.123-4.7044-4.085-8.5182-5.004-9.8637-1.588-2.2263-4.23-4.6656-3.146-5.8079 1.084-1.1422 4.472.1162 6.776 2.1102 2.446 2.3395 4.533 5.0272 6.195 7.9762.186.3353.453.6196.775.828.322.2083.691.3343 1.073.3668.383.0325.767-.0295 1.12-.1804.353-.151.663-.3863.904-.6853 2.032-2.4393 3.784-4.9851 3.504-6.7759-.378-2.4199-6.902-9.5346-10.648-11.7803-2.662-1.6068-5.556-3.6493-5.159-5.198.396-1.5488 4.752-.1743 6.611.542 2.165.8656 4.234 1.9522 6.176 3.2428.199.1288.433.1929.67.1835.237-.0093.466-.0916.654-.2357.189-.144.328-.3428.4-.5691.071-.2263.07-.4691-.001-.6952-2.082-6.4177-4.308-16.3976-4.114-22.854.222-7.0663.6-11.8384 3.262-11.8384 2.671 0 3.475 5.4207 4.636 11.8674.31 1.6843.581 3.2718.968 4.8399.091.4365.294.842.589 1.1766s.671.587 1.093.7324c.421.1454.873.1788 1.311.097.439-.0818.848-.276 1.189-.5637 2.234-1.8302 4.686-3.3777 7.299-4.6076 2.429-1.1712 4.965-1.8391 5.885-.5227.92 1.3165 0 3.2912-2.575 5.2949-2.982 2.2778-5.77 4.8001-8.334 7.5406-.777.8678-1.314 1.9239-1.557 3.0633-.242 1.1394-.183 2.3225.173 3.4318.426 1.3745.842 2.8265 1.219 4.3753.318 1.3126.547 2.6449.688 3.988.032.2917.133.5716.294.817.161.2455.378.4495.632.5956.255.1461.54.2303.833.2455.293.0153.586-.0388.854-.1577 5.842-2.3812 12.01-3.8692 18.295-4.414 2.197-.2323 8.334-.5711 8.634.968s-7.443 3.8719-9.002 4.2204c-2.052.513-5.053 1.3358-8.295 2.4006 2.12 1.2366 4.119 2.669 5.972 4.2785.968.8324 3.378 3.8138 2.575 5.198-.542.968-5.111-1.1809-6.67-1.8391-3.291-1.3939-8.837-3.7074-13.425-2.8459-.476.1425-.906.4082-1.246.7703s-.578.8077-.69 1.2915c-1.278 4.7237-3.427 8.2859-7.086 12.9419 6.988-.5088 14.011-.2328 20.937.8228 1.568.3485 7.105 1.8101 6.921 3.4073-.184 1.5971-7.676 1.5391-9.292 1.5875-3.069.0968-7.396.2032-11.926.513.968.755 1.936 1.5003 2.662 2.1199.968.8324 3.388 3.8136 2.575 5.1976-.542.968-5.111-1.19-6.66-1.839-3.291-1.394-8.895-3.9394-13.435-2.8456-.716.2055-1.36.608-1.859 1.1616-1.219 1.074-1.036.968-2.381 2.052-1.847 1.466-3.543 3.114-5.063 4.917-.111.13-.175.293-.18.464-.005.17.048.338.151.473.103.136.25.233.416.274.165.041.34.023.494-.049 1.561-.732 3.161-1.378 4.792-1.936 1.539-.455 7.095-1.858 7.744-.377.648 1.481-5.953 5.072-7.347 5.904-1.394.833-3.049 1.81-4.84 2.904-.131.077-.234.193-.295.332s-.077.293-.046.441c.031.149.107.284.219.386.111.103.252.168.403.187 1.654.24 3.295.563 4.917.968 1.287.29 4.743 1.887 4.646 3.484-.068 1.075-5.101 1.239-6.776 1.356-3.562.232-10.754-.436-13.271 3.494-.392.584-.717 1.211-.968 1.868-1.181 4.356-.803 5.74-.813 5.885-.095 1.218-.647 2.354-1.544 3.181-.898.828-2.075 1.286-3.296 1.282h-.377c-1.28-.099-2.468-.702-3.303-1.677s-1.249-2.241-1.15-3.521c.181-2.743.556-5.47 1.123-8.16.398-1.954.016-3.987-1.065-5.663-.745-1.133-1.481-2.159-2.1-3.01-1.017-1.365-4.114-5.344-3.33-6.079z" fill="#00bfff"/></g><path d="m150.169 136.537h9.654c-10.633-36.8538-12.668-73.7497-8.135-101.1513l-15.154.2151c-2.67 24.4977 1.27 35.9459 3.34 54.0682 2.398 19.849 5.75 35.39 10.295 46.868z" fill="#606"/><path d="m144.111 40.1956c4.189 0 7.577-2.0554 7.577-4.5948s-3.388-4.6008-7.577-4.6008-7.577 2.0614-7.577 4.6008 3.394 4.5948 7.577 4.5948z" fill="#ffdeff"/><path d="m126.244 111.783 18.822 3.836c2.237-19.8493-3.982-49.2943-5.88-67.4286l-18.667 1.452c0 .233 2.628 41.9627 5.725 62.1406z" fill="#ff8cff"/><path d="m150.015 137.893-23.479-10.259c12.294-28.0824 29.602-45.0336 36.788-85.885l14.413 2.1391c-.19 28.5368-6.527 34.1175-11.149 51.0448-5.121 18.4631-10.616 32.7311-16.573 42.9601z" fill="#606"/><path d="m177.737 44.0072c.374-2.39-2.558-4.8696-6.527-5.485-3.97-.6155-7.512.8365-7.88 3.2444-.368 2.408 2.563 4.8697 6.527 5.4911s7.494-.8365 7.88-3.2505z" fill="#ffdeff"/><path d="m139.518 147.083c7.423-31.943 28.665-85.073 28.725-85.2881l16.833 5.2043s-12.638 43.9348-21.177 63.3358c-2.094 4.813-5.493 8.935-9.806 11.894s-9.366 4.635-14.581 4.836z" fill="#ff8cff"/><path d="m161.395 138.575-22.547-11.496c8.111-29.0447 49.842-64.0106 49.842-64.0106l12.983 9.1c-.113.1732-27.497 34.4396-40.278 66.4066z" fill="#ff8cff"/><path d="m201.548 72.3706c1.454-2.0972-.267-5.8435-3.845-8.365s-7.66-2.874-9.12-.7768c-1.459 2.0973.273 5.8436 3.851 8.3651s7.661 2.874 9.114.7767z" fill="#ffdeff"/><path d="m161.395 138.575c-1.664.214-3.355-.003-4.913-.63-1.558-.626-2.931-1.642-3.992-2.951-1.06-1.309-1.772-2.869-2.068-4.531-.296-1.663-.167-3.375.376-4.973 7.274-21.331 21.818-50.7522 21.883-50.9314l17.878 5.5508c-.469 2.6051-3.311 22.6576-7.803 39.6446-1.3 4.919-4.026 9.337-7.831 12.69-3.805 3.352-8.515 5.487-13.53 6.131z" fill="#606"/><path d="m190.482 80.4197c.866-2.7783-2.427-6.2976-7.358-7.8691-4.93-1.5714-9.636-.5975-10.508 2.1869-.872 2.7843 2.427 6.3037 7.358 7.8751 4.93 1.5714 9.63.5855 10.508-2.1929z" fill="#ffdeff"/><path d="m146.941 146.856c2.783-4.057 21.646-51.224 49.373-66.9205l11.369 11.9501c-.593.5975-22.88 26.8874-36.195 42.8114-3.033 3.627-6.781 6.581-11.006 8.674-4.226 2.093-8.837 3.28-13.541 3.485z" fill="#ff8cff"/><path d="m207.683 91.8859c1.935-1.9717.89-6.1841-2.373-9.4047-3.264-3.2205-7.417-4.2303-9.352-2.2586-1.934 1.9718-.884 6.1902 2.344 9.4107 3.228 3.2206 7.447 4.2543 9.381 2.2526z" fill="#ffdeff"/><path d="m201.293 97.5137 9.078 13.5633c-.593.598-16.946 8.592-32.908 27.276-4.913 5.079-11.392 8.162-21.639 8.73-9.198.507-10.129-25 45.469-49.5693z" fill="#606"/><path d="m211.558 110.187c2.409-2.455 1.744-7.056-1.489-10.2766-3.234-3.2205-7.803-3.8419-10.206-1.3862-2.403 2.4558-1.745 7.0628 1.483 10.2828 3.228 3.221 7.797 3.836 10.212 1.38z" fill="#ffdeff"/><path d="m140.402 147.502c9.536-27.049 36.516-47.46 38.07-49.4678l14.122 8.3648c-6.592 8.926-12.682 18.218-18.24 27.832-2.059 3.657-4.153 9.907-10.318 11.669-6.165 1.763-19.462 1.607-23.634 1.602z" fill="#ff8cff"/><path d="m193.01 105.628c1.382-3.167-.873-7.2237-5.032-9.07-4.16-1.8463-8.645-.7768-10.022 2.39-1.377 3.167.866 7.224 5.026 9.064 4.159 1.84 8.645.771 10.028-2.384z" fill="#ffdeff"/><path d="m138.118 118.492 19.758 3.812c5.139-21.415 4.581-70.7624 4.534-71.4615l-20.667-1.1472c0 .245-4.32 46.2169-3.625 68.7967z" fill="#ff8cff"/><path d="m162.41 50.7951c.19-3.2146-4.284-6.0945-9.992-6.4292-5.708-.3346-10.479 1.9957-10.681 5.2103-.201 3.2146 4.29 6.0885 9.999 6.4291 5.708.3406 10.49-2.0016 10.674-5.2102z" fill="#ffdeff"/><path d="m140.248 147.49 7.743-5.187c-8.591-28.955-26.903-61.7279-47.284-92.7503l-12.3305 7.8572c1.4715 2.1749 42.2055 83.2921 51.8715 90.0801z" fill="#606"/><path d="m96.9742 57.1768c3.3588-2.2466 4.9958-5.7181 3.6608-7.7675-1.3348-2.0495-5.1442-1.8642-8.5026.3824-3.3585 2.2466-5.0021 5.7181-3.6611 7.7675 1.341 2.0495 5.1445 1.8642 8.5029-.3824z" fill="#ffdeff"/><path d="m130.202 54.2852c5.163-.3406 9.191-2.9876 9.008-5.8854-.184-2.8979-4.528-4.9832-9.69-4.6427-5.162.3406-9.191 2.9876-9.001 5.8855s4.527 4.9831 9.683 4.6426z" fill="#ffdeff"/><path d="m139.518 146.139c4.707.591 9.459-.671 13.263-3.523 3.805-2.853 6.368-7.075 7.155-11.785 3.423-19.569 4.153-64.0646 4.153-64.3574l-20.5-.1494c-.054.2808.522 54.5998-4.071 79.8148z" fill="#ff8cff"/><path d="m164.03 66.9459c.107-3.5851-4.391-6.6742-10.052-6.8474-5.66-.1733-10.336 2.617-10.443 6.226-.107 3.6089 4.397 6.6741 10.058 6.8474 5.66.1732 10.33-2.6171 10.437-6.226z" fill="#ffdeff"/><path d="m121.415 135.443h16.875c-6.367-16.21-16.412-79.2286-16.448-79.4078l-15.671 2.1808s7.447 54.815 15.244 77.227z" fill="#ff8cff"/><path d="m114.692 61.5559c4.32-.6692 7.506-3.2624 7.12-5.7898-.385-2.5274-4.201-4.0391-8.52-3.3639-4.32.6751-7.506 3.2623-7.121 5.7898.386 2.5274 4.201 4.0331 8.521 3.3639z" fill="#ffdeff"/><path d="m133.828 146.258c.504-19.974-16.056-47.7464-19.207-73.1762-.149-1.1233-.238-1.8821-.279-2.1091l-18.4299 2.868c0 .221.089.705.178 1.4161 2.0768 16.7719 17.5929 42.8352 25.0339 62.2182.992 2.582 2.736 4.803 5.003 6.37s4.951 2.408 7.701 2.413z" fill="#ff8cff"/><path d="m105.999 77.6407c5.109-.7947 8.901-3.7762 8.456-6.6562s-4.937-4.5649-10.052-3.7703c-5.1147.7947-8.9004 3.7763-8.4553 6.6503.445 2.8739 4.9423 4.5709 10.0513 3.7762z" fill="#ffdeff"/><path d="m135.317 146.366h1.365c-2.136-4.439-1.745-23.034-4.314-27.856-9.494-17.429-30.362-30.9623-41.6539-47.2502l-13.2141 9.8707c10.8592 15.5811 20.8816 31.7365 30.024 48.3975l1.667 2.57c2.84 4.366 6.712 7.953 11.269 10.438 4.557 2.486 9.657 3.791 14.839 3.8z" fill="#ff8cff"/><path d="m87.089 80.3473c3.6788-2.6888 5.3402-6.692 3.7381-8.9626-1.602-2.2705-5.9336-1.8941-9.5887.7947s-5.3402 6.6921-3.7381 8.9626c1.602 2.2705 5.892 1.8941 9.5887-.7947z" fill="#ffdeff"/><path d="m133.033 147.244c-13.41-24.39-47.5702-56.6369-49.2494-58.9911l-12.247 11.0598c6.0345 5.0013 18.9104 17.2383 32.2434 35.0023 2.556 3.392 5.79 6.207 9.494 8.263 3.738 2.055 12.698 4.505 19.759 4.666z" fill="#ff8cff"/><path d="m81.2325 98.8043c3.6788-2.6887 5.0317-7.1401 3.0202-9.9365-2.0115-2.7963-6.616-2.8859-10.2948-.1971-3.6789 2.6887-5.0317 7.1342-3.0262 9.9305 2.0056 2.7958 6.6219 2.8858 10.3008.2031z" fill="#ffdeff"/><path d="m137.631 146.916 10.627.448c17.445-4.344-3.987-77.1255-4.064-77.3884l-19.682 5.5747s-.73 69.3877 13.119 71.3657z" fill="#606"/><path d="m140.035 147.489c-3.899-27.598-26.589-46.832-34.813-56.5593l-14.8338 6.7339c.2017.8126 10.8818 18.2534 21.9128 38.3654 1.74 3.161 4.286 5.797 7.375 7.636 6.1 3.848 16.775 3.824 20.359 3.824z" fill="#606"/><path d="m99.6088 100.669c4.3852-1.1951 7.2272-4.8579 6.3372-8.1919-.89-3.3341-5.162-5.0788-9.5473-3.8957-4.3849 1.183-7.2271 4.8577-6.343 8.1917.8841 3.3339 5.1682 5.0789 9.5531 3.8959z" fill="#ffdeff"/><path d="m136.13 78.5735c5.399-1.7149 9.013-5.5628 8.064-8.5981-.95-3.0353-6.094-4.1049-11.488-2.39-5.393 1.7148-9.007 5.5627-8.064 8.5981.944 3.0353 6.094 4.1048 11.488 2.39z" fill="#ffdeff"/><path d="m133.668 88.6236c-7.12-2.6649-15.76 4.2661-15.76 4.2661 0 .8843 6.213 14.1613 7.655 40.2423.219 3.782 3.471 14.083 14.501 14.376 20.833.543 12.591-15.804-6.396-58.8844z" fill="#ff8cff"/><path d="m126.334 97.2631c4.527-.3943 7.957-3.6268 7.648-7.2178-.308-3.591-4.23-6.1842-8.763-5.7898-4.534.3943-7.957 3.6268-7.649 7.2178.309 3.591 4.231 6.1543 8.764 5.7898z" fill="#ffdeff"/><path d="m147.535 147.454c-25.984 0 9.986-53.178 10.615-56.1356l16.021 3.6507c-.155.6752-4.741 52.4849-26.636 52.4849z" fill="#ff8cff"/><path d="m174.028 95.8709c.842-3.5014-2.053-7.2238-6.474-8.3053-4.42-1.0815-8.687.8724-9.529 4.3737-.843 3.5014 2.047 7.2238 6.468 8.3057 4.42 1.081 8.692-.8727 9.535-4.3741z" fill="#ffdeff"/><path d="m185.017 67.2326c.848-2.7246-2.219-6.1244-6.859-7.5942-4.64-1.4699-9.091-.4661-9.939 2.2526-.849 2.7186 2.225 6.1184 6.865 7.5942 4.64 1.4759 9.084.4661 9.933-2.2526z" fill="#ffdeff"/><g clip-path="url(#b)"><path d="m16.2531 88.9815c16.5835 0 30.027-1.4479 30.027-3.2339 0-1.7861-13.4435-3.2339-30.027-3.2339-16.583469 0-30.027 1.4478-30.027 3.2339 0 1.786 13.443531 3.2339 30.027 3.2339z" fill="#6414ee"/><path d="m16.2531 69.2656c16.5835 0 30.027-1.4478 30.027-3.2339 0-1.786-13.4435-3.2338-30.027-3.2338-16.583469 0-30.027 1.4478-30.027 3.2338 0 1.7861 13.443531 3.2339 30.027 3.2339z" fill="#6414ee"/><g fill="#32087a"><path d="m.29716 72.0649c-.519537.0525-1.040537-.0847-1.46698-.3864-.42644-.3016-.72956-.7474-.8535-1.2552 0-.3694-3.72264-36.8615-7.30587-46.2349-2.82891-7.3871-5.24771-15.20098-6.85491-20.36373-.5084-1.64157-.9429-3.061533-1.2955-4.144971-.3116-.960319.4428-1.937049 1.6973-2.175079.5496-.14265 1.1315-.09063 1.6471.14723.5156.23787.9331.64693 1.1818 1.15782.3526 1.0916432.8199 2.51982 1.3037 4.17781 1.5989 5.13812 4.00143 12.88632 6.7893 20.19132 3.72263 9.7263 7.33046 45.447 7.47805 46.9654.1066.985-.81996 1.8468-2.140098 1.9289z"/><path d="m5.55274 74.1004c-.40109.0184-.80059-.0617-1.16363-.2334s-.67858-.4297-.91907-.7516c-.86916-1.3461-2.00891-5.0642-4.09981-12.0819-3.68983-12.3611-9.83953-33.0449-16.27623-39.5209-.9676-1.264-2.0499-2.4624-3.1897-3.7018-2.6321-2.9055-5.6249-6.1969-6.8221-9.57033-.3361-.95211.4018-1.93706 1.64-2.19972.5484-.15489 1.1336-.11436 1.6556.11469.5219.22904.9482.63239 1.206 1.14113.984 2.77423 3.7227 5.79473 6.1415 8.46233 1.2218 1.3461 2.3779 2.6183 3.2389 3.7674 6.86308 6.9028 12.9308 27.2501 16.94862 40.711 1.57432 5.2694 3.05846 10.2516 3.73083 11.2694.57397.8864.10659 1.9617-1.04136 2.4049-.33515.1274-.69104.1915-1.04955.1888z"/><path d="m12.3664 75.1586c-.4465.0258-.8911-.0762-1.2818-.2943-.3906-.2181-.7111-.543-.9238-.9368-7.08452-16.5471-6.96974-17.5156-6.92874-17.9342-.11479-1.4939-4.91977-20.1421-7.22386-26.1913-2.50909-6.6402-.1722-20.24884-.0656-20.82339.16399-.98495 1.34474-1.64157 2.61568-1.54307 1.270941.09849 2.172901 1.03418 2.000709 2.01913 0 .13132-2.304089 13.42803-.073794 19.34593 2.115505 5.5896 7.568255 25.8958 7.379665 27.4964.17219.8207 3.55044 9.1271 6.69904 16.506.41.9439-.2541 1.9534-1.4841 2.2653-.2335.0576-.4729.0879-.7134.0903z"/><path d="m17.4338 74.1007c-.508.0454-1.016-.0868-1.4376-.3741-.4216-.2874-.7307-.7121-.8747-1.2019-.1148-.7058-2.6894-17.3924-2.4106-21.5949.246-3.7838-3.0995-15.9971-6.04317-23.5894-1.91415-5.2823-3.07354-10.8088-3.44384-16.4157-.04919-.98493.95936-1.82214 2.2385-1.86318h.09019c1.25455 0 2.2877.75513 2.3369 1.72368.37327 5.3083 1.47698 10.5396 3.27982 15.5457 2.7961 7.2393 6.5597 20.1749 6.2235 24.7795-.2049 3.1272 1.4678 15.1025 2.3779 20.9957.1558.985-.7543 1.8796-2.0335 1.9946z"/><path d="m13.8675 82.5955c-.5069.0451-1.0138-.0874-1.434-.3748s-.7277-.7119-.8701-1.2011c-.1148-.7058-2.68944-17.3924-2.41885-21.5949.24599-3.792-3.09946-15.9971-6.03492-23.5894-1.91416-5.2823-3.0735498-10.8088-3.443841-16.4157-.049198-.9931.959352-1.8221 2.238491-1.8632h.0902c.53396-.0554 1.06936.0906 1.50153.4093.43217.3188.73004.7875.83537 1.3144.37087 5.3086 1.47464 10.5402 3.27984 15.5457 2.79608 7.2393 6.51868 20.1667 6.22348 24.7877-.205 3.119 1.4678 15.0943 2.3861 20.9875.1558.985-.7625 1.8714-2.0335 1.9945z"/><path d="m24.1091 101.562c-.2774 0-.5534-.038-.82-.115-1.1971-.345-1.8039-1.387-1.3447-2.3067.0574-.1478 2.0171-5.327 2.7797-37.6495.7789-33.0203-15.28413-56.56863-15.44813-56.80666-.60677-.87003-.18039-1.95347.95933-2.46236.5342-.22961 1.1276-.28259 1.6939-.1512.5664.13139 1.076.44028 1.4548.8817.6887.99315 16.801 24.55792 15.9975 58.56312-.82 33.2829-2.8453 38.38-3.0831 38.8476-.2189.383-.5393.697-.9257.909-.3864.211-.8238.312-1.2636.29z"/><path d="m18.7625 84.7949c-.4812.0353-.9612-.0832-1.3708-.3384s-.7278-.6338-.9087-1.0815c-.6478-2.3721.1558-7.9617 1.4677-16.2188.7216-4.6292 1.4185-9.0286 1.4185-11.2201 0-5.368-6.0513-44.4785-6.1087-44.8807-.1558-.9767.7544-1.87135 2.0335-1.98626 1.2792-.11491 2.4599.57455 2.5911 1.56766.2542 1.6416 6.1415 39.7261 6.1415 45.2993 0 2.4623-.7051 6.911-1.4513 11.6551-.9266 5.8276-2.0663 13.0752-1.5251 15.0368.2624.9686-.5412 1.9207-1.804 2.1259-.16.0258-.3217.0396-.4837.041z"/><path d="m34.1611 85.3043-2.3369-6.4924-2.3287 6.4924v-5.5814c.0621-.491.3014-.9424.673-1.269s.8496-.5058 1.3441-.5039l-2.0253-5.6388c.1194-15.0236 2.6726-29.9284 7.5601-44.1337.2639-.508.6965-.9079 1.2233-1.1312.5268-.2232 1.1148-.2556 1.6629-.0917 1.2382.279 1.9433 1.2722 1.5826 2.2243-4.7629 13.8862-7.2549 28.451-7.3797 43.1323l-2.0253 5.6388c.4954-.0021.9745.1768 1.3474.5033.3729.3264.614.7779.6779 1.2696z"/><path d="m41.0159 66.04c-4.3458.7059-12.6684 1.4364-24.7546 1.4364-12.08626 0-20.41707-.7305-24.75467-1.4364h-5.28053c0 1.7811 13.447347 3.2339 30.0352 3.2339 16.5878 0 30.0106-1.4528 30.0106-3.2339z"/></g><path d="m-8.54229 84.4831.72158 2.5444s.04099.0739.04919.1067c4.69018.7059 12.70942 1.3379 24.01672 1.3379 12.7176 0 21.2534-.8208 25.5746-1.6415l.4756-2.249h-.0656l.164-.435 3.8784-18.1066c0 1.7811-13.4474 3.2339-30.027 3.2339-16.579654 0-30.0352-1.4528-30.0352-3.2339l5.12473 18.0163z" fill="#eadeff"/><path d="m16.6962 107.99c12.2994 0 20.6958-.747 25.1564-1.526l4.4196-20.7169c0 1.7893-13.4474 3.2339-30.027 3.2339-16.579654 0-30.0352-1.4446-30.0352-3.2339l5.90369 20.8399c4.61638.739 12.8652 1.403 24.58251 1.403z" fill="#eadeff"/></g><path d="m65.4699 98.2823c16.5834 0 30.027-1.4479 30.027-3.2339 0-1.7861-13.4436-3.2339-30.027-3.2339-16.5835 0-30.027 1.4478-30.027 3.2339 0 1.786 13.4435 3.2339 30.027 3.2339z" fill="#6414ee"/><g fill="#32087a"><path d="m81.4345 101.073h-.1804c-1.2791-.082-2.2467-.944-2.1401-1.9288.1476-1.5102 3.7554-37.2391 7.4699-46.9654 2.796-7.305 5.2067-15.0696 6.7975-20.1995.5165-1.6416.9511-3.078 1.3037-4.1696.2486-.5109.6662-.92 1.1818-1.1578.5156-.2379 1.0975-.2899 1.647-.1473 1.2546.2463 2.009 1.2148 1.6974 2.1751s-.82 2.4624-1.2956 4.104c-1.6399 5.1709-4.026 12.9848-6.8631 20.3801-3.575 9.3734-7.2566 45.8655-7.2976 46.2349-.1172.5138-.4175.9673-.8446 1.2753s-.9518.45-1.4759.399z"/><path d="m76.1705 103.116c-.3564.001-.7098-.066-1.0414-.197-1.1561-.443-1.6399-1.518-1.0413-2.405.6642-1.0173 2.1483-5.9995 3.7226-11.2689 4.026-13.4609 10.0937-33.8082 17.1208-40.8998.697-.9603 1.8531-2.2408 3.0831-3.5951 2.4187-2.6593 5.1497-5.6716 6.1337-8.4377.256-.5102.682-.9153 1.204-1.1459s1.108-.2723 1.657-.1181c1.247.2627 1.976 1.2476 1.64 2.2079-1.197 3.3653-4.182 6.6484-6.814 9.5458-1.148 1.264-2.2218 2.4623-3.0336 3.5294-6.5597 6.6647-12.7504 27.3568-16.4402 39.7178-2.0991 7.0095-3.2307 10.7276-4.0998 12.0736-.2404.325-.5569.585-.9215.758s-.7663.254-1.1694.235z"/><path d="m69.3565 104.159c-.2459-.002-.4907-.032-.7297-.09-1.2218-.312-1.886-1.322-1.4842-2.266 3.1569-7.3867 6.5597-15.652 6.7073-16.7354-.1804-1.3625 5.2806-21.6688 7.3797-27.2666 2.2303-5.9178-.0492-19.2146-.0738-19.3459-.1722-.985.7215-1.8878 2.0007-2.0191 1.2791-.1314 2.4599.5581 2.6157 1.543.1066.5746 2.4598 14.1832-.0656 20.8234-2.2877 6.0574-7.1173 24.7057-7.2239 26.339.041.2709.1476 1.2476-6.9287 17.7866-.2137.391-.5332.714-.9218.932-.3887.218-.8308.321-1.2757.299z"/><path d="m64.3135 103.116h-.2787c-1.2792-.115-2.1893-1.009-2.0336-1.994.9102-5.8935 2.5829-17.8688 2.3861-20.9878-.3115-4.6046 3.4111-17.5402 6.2154-24.7877 1.8059-5.0052 2.9097-10.2369 3.2798-15.5457.0492-.9849.9348-1.7811 2.4189-1.7237 1.2873 0 2.2877.8701 2.2385 1.8632-.3657 5.6076-1.5252 11.1347-3.4439 16.4158-2.9354 7.5923-6.2809 19.8138-6.0349 23.5894.2706 4.2024-2.2959 20.8885-2.4107 21.5945-.1461.494-.4592.921-.8856 1.208-.4264.288-.9395.418-1.4513.368z"/><path d="m67.8641 111.612h-.287c-1.2709-.115-2.1893-1.01-2.0335-1.995.9102-5.893 2.5911-17.8682 2.3861-20.9872-.3034-4.6046 3.4192-17.5402 6.2235-24.7877 1.8015-5.0065 2.9051-10.2376 3.2799-15.5457.0492-.985.9839-1.7811 2.4189-1.7155 1.2791 0 2.2876.8701 2.2384 1.855-.3713 5.6068-1.5307 11.1331-3.4438 16.4157-2.9355 7.5923-6.2809 19.7974-6.0349 23.5812.2706 4.2025-2.3041 20.8892-2.4189 21.5952-.1415.495-.4521.925-.8776 1.214-.4256.29-.9391.42-1.4511.37z"/><path d="m56.5403 110.504c-.4282.024-.855-.069-1.2348-.268-.3797-.2-.6983-.499-.9217-.865-.2296-.476-2.2959-5.573-3.0831-38.8561-.8199-34.0052 15.3169-57.57 16.0057-58.5549.377-.4439.8862-.7552 1.4529-.8881.5666-.133 1.161-.0806 1.6957.1494 1.1398.4678 1.5662 1.5513.9594 2.4623-.164.2299-16.2271 23.8029-15.4481 56.7985.7626 32.3229 2.7223 37.5019 2.8043 37.7069.3771.919-.2624 1.929-1.4514 2.249-.256.053-.5176.075-.7789.066z"/><path d="m62.9691 113.804c-.1649.003-.3297-.011-.4919-.041-1.2546-.206-2.0581-1.149-1.7958-2.126.533-1.962-.6067-9.209-1.5251-15.037-.7544-4.7441-1.4595-9.2256-1.4595-11.6552 0-5.5731 5.8955-43.6822 6.1497-45.2992.164-.9849 1.3529-1.6415 2.5911-1.5677 1.2381.0739 2.1893 1.0096 2.0335 1.9863-.0574.4022-6.1087 39.5127-6.1087 44.8806 0 2.2079.6887 6.5663 1.4185 11.2202 1.3037 8.257 2.1073 13.847 1.4595 16.219-.1784.448-.4948.827-.9033 1.082s-.8877.374-1.368.338z"/><path d="m52.2358 114.32-2.3287-6.5-2.3369 6.5v-5.589c.0639-.492.305-.943.6779-1.27.3729-.326.852-.505 1.3474-.503l-2.0253-5.639c-.1204-14.6817-2.6124-29.2472-7.3797-43.1323-.3607-.9521.3444-1.9453 1.5826-2.2243.5481-.1639 1.1361-.1315 1.6629.0918.5268.2232.9594.6232 1.2233 1.1311 4.8865 14.2055 7.4397 29.1102 7.5601 44.1337l-2.0253 5.639c.4959-.004.976.174 1.3493.501.3732.327.6138.779.676 1.272z"/></g><path d="m35.4429 95.0234c0 1.7811 13.4391 3.2339 30.027 3.2339 16.5878 0 30.0024-1.4281 30.0024-3.2339h-5.2478c-4.3458.7059-12.6684 1.4364-24.7546 1.4364-12.0863 0-20.4089-.7305-24.7547-1.4364z" fill="#6414ee"/><path d="m90.2655 113.491-.7215 2.545c-.0142.038-.0335.074-.0574.106-4.6902.714-12.7012 1.346-24.0167 1.346-12.7094 0-21.2534-.82-25.5664-1.641l-.4838-2.241h.0656l-.164-.435-3.8784-18.1476c0 1.7811 13.4391 3.2339 30.027 3.2339 16.5878 0 30.0024-1.4281 30.0024-3.2339l-5.1084 18.0576z" fill="#eadeff"/></svg>