<svg fill="none" height="99" viewBox="0 0 564 99" width="564" xmlns="http://www.w3.org/2000/svg" xmlns:xlink="http://www.w3.org/1999/xlink"><clipPath id="a"><path d="m368 23h196v160h-196z"/></clipPath><clipPath id="b"><path d="m372 23h188.26v161.84h-188.26z"/></clipPath><clipPath id="c"><path d="m210 0h240v208h-240z"/></clipPath><clipPath id="d"><path d="m105 17h132v120h-132z"/></clipPath><clipPath id="e"><path d="m0 59h139v77h-139z"/></clipPath><g clip-path="url(#a)"><path d="m383.876 178.994c2.183.061 4.356-.316 6.391-1.11 2.035-.793 3.89-1.986 5.455-3.508 1.566-1.522 2.81-3.343 3.659-5.354.849-2.012 1.287-4.173 1.286-6.356 0 4.33 1.721 8.483 4.784 11.545s7.217 4.783 11.549 4.783 8.486-1.721 11.549-4.783 4.784-7.215 4.784-11.545c0 4.33 1.721 8.483 4.784 11.545s7.218 4.783 11.55 4.783 8.486-1.721 11.549-4.783 4.784-7.215 4.784-11.545c0 4.33 1.721 8.483 4.784 11.545s7.217 4.783 11.549 4.783 8.487-1.721 11.55-4.783 4.784-7.215 4.784-11.545c0 4.33 1.721 8.483 4.784 11.545s7.217 4.783 11.549 4.783 8.486-1.721 11.549-4.783 4.784-7.215 4.784-11.545c-.001 2.183.437 4.344 1.286 6.356.849 2.011 2.093 3.832 3.659 5.354 1.565 1.522 3.42 2.715 5.455 3.508 2.035.794 4.208 1.171 6.391 1.11 8.896-.245 15.876-7.767 15.876-16.666v-7.826c0-8.661-3.442-16.967-9.568-23.091s-14.435-9.564-23.099-9.564c-8.663 0-16.972-3.441-23.099-9.565-6.126-6.124-9.567-14.4301-9.567-23.0909v-8.1911h-65.334v8.1966c0 8.6607-3.441 16.9664-9.567 23.0904-6.127 6.125-14.436 9.565-23.099 9.565-8.664 0-16.973 3.44-23.099 9.565-6.126 6.124-9.568 14.43-9.568 23.09v7.821c0 8.899 6.98 16.421 15.876 16.666z" fill="#d8c1ff"/><g clip-path="url(#b)"><g fill="#6414ee"><path d="m508.03 65.7215c-1.22 6.42 2.06 14.54-3.54 25.74-5.6 11.1995-14.11 13.7995-20.47 10.7495-6.36-3.0495-8.88-9.4295-7.8-17.7495 3-23.45 23.56-43 38-50.92 5.91-3.25 8.69 2.43 6.49 5.27.04-.03-9.89 12.18-12.68 26.91z"/><path d="m466.94 61.0984c3.67 5.41 11.74 8.83 15.7 20.7s-.22 19.7396-6.87 22.0796-13-.38-18.07-6.9996c-14.44-18.73-13.72-46.9999-9.11-62.8999 1.88-6.48 7.87-4.43 8.31-.87 0-.03 1.62 15.6099 10.04 27.9899z"/><path d="m521.49 77.3094c-3.89 5.26-4.44 14-14.35 21.66-9.91 7.6596-18.7 6.3296-23.11.82-4.41-5.51-3.91-12.35.67-19.38 12.9-19.82 39.85-28.5 56.35-29.39 6.73-.37 6.78 6 3.56 7.55 0 0-14.23 6.71-23.12 18.74z"/><path d="m523.59 94.2586c-3.88 5.26-4.44 14.0004-14.34 21.6604s-18.7 6.33-23.11.82-3.92-12.35.66-19.3804c12.9-19.82 39.85-28.5 56.35-29.39 6.73-.37 6.78 6 3.57 7.55 0 0-14.23 6.71-23.13 18.74z"/><path d="m526.51 109.722c-6.08 2.4-11.18 9.52-23.64 10.78s-19.21-4.54-20-11.55 3.21-12.55 10.82-16.09c21.44-10 48.9-3.07 63.37 4.91 5.9 3.26 2.59 8.65-1 8.3-.01.03-15.63-1.82-29.55 3.65z"/><path d="m521 128.719c-6.49-.76-14.36 3.1-25.92-1.68s-14.79-13.09-12.2-19.65 8.77-9.5296 17.14-9.0596c23.61 1.35 44.54 20.4196 53.52 34.2896 3.66 5.66-1.8 8.85-4.79 6.85 0-.01-12.93-9.02-27.75-10.75z"/><path d="m424.24 65.7215c1.22 6.42-2.07 14.54 3.53 25.74 5.6 11.1995 14.12 13.7995 20.48 10.7495 6.36-3.0495 8.88-9.4295 7.8-17.7495-3-23.45-23.56-43-38-50.92-5.91-3.25-8.69 2.43-6.49 5.27-.04-.03 9.88 12.18 12.68 26.91z"/><path d="m470 56.9603c-2.21 6.15-9.18 11.47-10 24s5.12 19.0697 12.15 19.6797 12.44-3.5997 15.75-11.3097c9.32-21.74 1.58-49-6.83-63.19-3.44-5.81-8.73-2.33-8.27 1.23-.05-.04 2.27 15.51-2.8 29.59z"/><path d="m410.82 77.3094c3.89 5.26 4.44 14 14.34 21.66 9.9 7.6596 18.71 6.3296 23.12.82 4.41-5.51 3.91-12.35-.67-19.38-12.9-19.82-39.85-28.5-56.35-29.39-6.73-.37-6.78 6-3.56 7.55-.04 0 14.18 6.71 23.12 18.74z"/><path d="m408.68 94.2586c3.88 5.26 4.44 14.0004 14.34 21.6604s18.7 6.33 23.11.82 3.92-12.35-.66-19.3804c-12.9-19.82-39.85-28.5-56.35-29.39-6.74-.37-6.78 6-3.57 7.55 0 0 14.27 6.71 23.13 18.74z"/><path d="m405.76 109.722c6.08 2.4 11.18 9.52 23.63 10.78s19.22-4.54 20-11.55-3.21-12.55-10.82-16.09c-21.44-10-48.9-3.07-63.37 4.91-5.91 3.26-2.6 8.65 1 8.3.02.03 15.62-1.82 29.56 3.65z"/><path d="m411.27 128.719c6.49-.76 14.36 3.1 25.92-1.68s14.79-13.09 12.2-19.65-8.77-9.5296-17.14-9.0596c-23.62 1.35-44.54 20.4196-53.52 34.2896-3.66 5.66 1.8 8.85 4.79 6.85 0-.01 12.88-9.02 27.75-10.75z"/><path d="m429.29 113.641c6.38 1.43 12.52 7.68 25 7s18.28-7.45 18-14.5c-.28-7.0505-5.12-11.9005-13.18-14.2205-22.72-6.55-48.78 4.52-61.85 14.6405-5.33 4.13-1.22 8.95 2.25 8.05.03-.01 15.18-4.25 29.78-.97z"/><path d="m460.64 76.4114c-1.45 6.38-7.72 12.5-7.06 24.9996.66 12.5 7.4 18.3 14.45 18.05s11.91-5.08 14.26-13.14c6.6-22.7095-4.4-48.7896-14.48-61.8896-4.11-5.34-8.94-1.25-8 2.23-.05 0 4.15 15.16.83 29.75z"/><path d="m507.82 112.642c-6.38 1.43-12.52 7.68-25 7s-18.28-7.46-18-14.51c.28-7.0504 5.11-11.8904 13.17-14.2204 22.73-6.54 48.79 4.53 61.85 14.6504 5.33 4.13 1.23 8.94-2.25 8.05-.02 0-15.16-4.25-29.77-.97z"/><path d="m454.48 131.53c-4.53-4.71-13.06-6.72-19-17.77s-3.11-19.4999 3.06-22.9199 12.83-1.79 19 3.9c17.38 15.9999 21.43 44.0599 19.55 60.4799-.77 6.7-7 5.68-8 2.25-.01 0-4.27-15.15-14.61-25.94z"/></g><path d="m519.95 36.7676c.527-.5273.261-1.648-.594-2.5033-.855-.8552-1.976-1.1211-2.503-.5939-.528.5272-.262 1.6479.594 2.5032.855.8552 1.975 1.1212 2.503.594z" fill="#d8c1ff"/><path d="m452.72 33.5711c1.21 0 2.19-.6044 2.19-1.35s-.98-1.35-2.19-1.35c-1.209 0-2.19.6044-2.19 1.35s.981 1.35 2.19 1.35z" fill="#d8c1ff"/><path d="m544.774 56.4333c.704-.2466.95-1.3718.55-2.5132-.4-1.1415-1.295-1.867-1.998-1.6204-.704.2465-.95 1.3717-.55 2.5132s1.295 1.8669 1.998 1.6204z" fill="#d8c1ff"/><path d="m546.871 73.3864c.703-.2465.95-1.3718.55-2.5132-.4-1.1415-1.295-1.8669-1.999-1.6204-.703.2466-.949 1.3718-.549 2.5132.4 1.1415 1.294 1.867 1.998 1.6204z" fill="#d8c1ff"/><path d="m414.822 36.1653c.855-.8553 1.121-1.976.594-2.5032s-1.648-.2613-2.503.594c-.855.8552-1.121 1.976-.594 2.5032s1.648.2612 2.503-.594z" fill="#d8c1ff"/><path d="m476.912 26.6716c1.172-.301 1.971-1.1304 1.785-1.8525-.185-.7221-1.285-1.0636-2.457-.7626-1.171.301-1.97 1.1305-1.785 1.8526.186.7221 1.286 1.0635 2.457.7625z" fill="#d8c1ff"/><path d="m389.482 54.7869c.4-1.1414.154-2.2666-.55-2.5131-.703-.2466-1.598.4788-1.998 1.6203-.4 1.1414-.154 2.2667.55 2.5133.704.2465 1.598-.479 1.998-1.6205z" fill="#d8c1ff"/><path d="m423.77 75.0644c.4-1.1415.154-2.2668-.55-2.5133s-1.598.479-1.998 1.6204c-.4 1.1415-.154 2.2667.55 2.5132.703.2465 1.598-.4789 1.998-1.6203z" fill="#d8c1ff"/><path d="m387.374 71.7322c.4-1.1414.154-2.2666-.55-2.5131-.703-.2466-1.598.4788-1.998 1.6203s-.154 2.2667.55 2.5133c.704.2465 1.598-.479 1.998-1.6205z" fill="#d8c1ff"/><path d="m463.845 45.7382c1.126-.4414 1.818-1.3618 1.546-2.056s-1.405-.8992-2.531-.4579c-1.126.4414-1.819 1.3619-1.547 2.056.272.6942 1.406.8992 2.532.4579z" fill="#d8c1ff"/><path d="m512.722 73.3786c.704-.2466.95-1.3718.55-2.5133-.4-1.1414-1.295-1.8669-1.998-1.6203-.704.2465-.95 1.3717-.55 2.5132s1.294 1.8669 1.998 1.6204z" fill="#d8c1ff"/><path d="m461.115 78.9041c.4-1.1415.154-2.2666-.55-2.5132-.703-.2465-1.598.4789-1.998 1.6204-.4 1.1414-.154 2.2667.55 2.5132.703.2466 1.598-.4789 1.998-1.6204z" fill="#d8c1ff"/><path d="m438.603 95.0564c.4-1.1414.154-2.2666-.55-2.5131-.704-.2466-1.598.4789-1.998 1.6203-.4 1.1415-.154 2.2667.55 2.5133.703.2465 1.598-.479 1.998-1.6205z" fill="#d8c1ff"/><path d="m419.693 100.51c.4-1.1418.153-2.267-.55-2.5136-.704-.2465-1.598.479-1.998 1.6205-.4 1.1411-.154 2.2661.549 2.5131.704.247 1.599-.479 1.999-1.62z" fill="#d8c1ff"/><path d="m492.55 95.0605c.4-1.1415.153-2.2668-.55-2.5133-.704-.2466-1.599.479-1.998 1.6204-.4 1.1415-.154 2.2666.549 2.5132.704.2465 1.599-.4789 1.999-1.6203z" fill="#d8c1ff"/><path d="m489.213 72.1658c.4-1.1414.154-2.2666-.55-2.5131-.703-.2466-1.598.4788-1.998 1.6203-.4 1.1414-.154 2.2667.55 2.5133.704.2465 1.598-.479 1.998-1.6205z" fill="#d8c1ff"/></g></g><g clip-path="url(#c)"><path d="m344.549 177.03h16.203c-17.846-61.82-21.262-123.7097-13.653-169.67355l-25.434.36081c-4.482 41.09284 2.131 60.29624 5.606 90.69494 4.023 33.2948 9.65 59.3638 17.278 78.6178z" fill="#606"/><path d="m334.382 15.4249c7.03 0 12.717-3.4478 12.717-7.70746 0-4.25963-5.687-7.71744-12.717-7.71744-7.031 0-12.717 3.45781-12.717 7.71744 0 4.25966 5.696 7.70746 12.717 7.70746z" fill="#ffdeff"/><path d="m304.396 135.506 31.589 6.435c3.754-33.296-6.682-82.6873-9.869-113.106l-31.33 2.4355c0 .3909 4.412 70.3895 9.61 104.2355z" fill="#ff8cff"/><path d="m344.29 179.306-39.405-17.209c20.634-47.107 49.682-75.5409 61.742-144.0658l24.189 3.5882c-.318 47.8681-10.954 57.2293-18.712 85.6236-8.594 30.97-17.815 54.904-27.814 72.063z" fill="#606"/><path d="m390.817 21.8197c.627-4.0091-4.293-8.1685-10.955-9.2008-6.662-1.0324-12.607 1.4031-13.225 5.4423-.617 4.0391 4.302 8.1684 10.955 9.2108 6.652 1.0423 12.577-1.4032 13.225-5.4523z" fill="#ffdeff"/><path d="m326.674 194.72c12.458-53.582 48.109-142.7029 48.209-143.0638l28.252 8.7298s-21.211 73.697-35.542 106.24c-3.515 8.074-9.219 14.988-16.457 19.952-7.239 4.963-15.72 7.774-24.472 8.111z" fill="#ff8cff"/><path d="m363.391 180.447-37.843-19.283c13.614-48.72 83.652-107.373 83.652-107.373l21.789 15.2645c-.189.2907-46.148 57.7705-67.598 111.3915z" fill="#ff8cff"/><path d="m430.78 69.3965c2.44-3.518-.448-9.8022-6.453-14.0318-6.005-4.2295-12.857-4.8208-15.306-1.3029-2.45 3.518.458 9.8022 6.463 14.0317 6.005 4.2296 12.856 4.8209 15.296 1.303z" fill="#ffdeff"/><path d="m363.391 180.448c-2.793.358-5.631-.005-8.246-1.056-2.614-1.051-4.92-2.755-6.7-4.951-1.779-2.196-2.974-4.812-3.471-7.601s-.28-5.66.631-8.342c12.209-35.78 36.617-85.1319 36.727-85.4326l30.005 9.3111c-.787 4.3699-5.557 38.0055-13.096 66.5005-2.182 8.252-6.758 15.663-13.143 21.286s-14.291 9.204-22.707 10.285z" fill="#606"/><path d="m412.207 82.8968c1.454-4.6606-4.073-10.5639-12.348-13.1998-8.276-2.636-16.173-1.0023-17.637 3.6682-1.464 4.6706 4.073 10.5739 12.349 13.2099 8.275 2.636 16.162.9822 17.636-3.6783z" fill="#ffdeff"/><path d="m339.132 194.34c4.671-6.806 36.329-85.925 82.865-112.2541l19.08 20.0451c-.996 1.002-38.4 45.102-60.747 71.812-5.09 6.085-11.38 11.039-18.472 14.55-7.091 3.511-14.83 5.502-22.726 5.847z" fill="#ff8cff"/><path d="m441.077 102.131c3.246-3.3078 1.494-10.3737-3.983-15.776-5.478-5.4022-12.449-7.096-15.695-3.7885-3.247 3.3075-1.484 10.3834 3.934 15.7857 5.417 5.4018 12.498 7.1358 15.744 3.7788z" fill="#ffdeff"/><path d="m324.324 146.762 33.162 6.395c8.624-35.922 7.688-118.6987 7.608-119.8713l-34.686-1.9244c0 .411-7.249 77.5257-6.084 115.4007z" fill="#ff8cff"/><path d="m365.094 33.2052c.319-5.3922-7.19-10.2231-16.77-10.7844s-17.587 3.3476-17.926 8.7398c-.338 5.3921 7.2 10.213 16.781 10.7843 9.58.5713 17.606-3.3576 17.915-8.7397z" fill="#ffdeff"/><path d="m327.899 195.401 12.996-8.699c-14.42-48.57-45.152-103.5443-79.359-155.5819l-20.694 13.1798c2.47 3.6483 70.835 139.7161 87.057 151.1011z" fill="#606"/><path d="m255.271 43.9092c5.637-3.7685 8.385-9.5917 6.145-13.0295-2.241-3.4377-8.634-3.127-14.271.6415-5.636 3.7685-8.395 9.5917-6.144 13.0294 2.25 3.4378 8.634 3.1271 14.27-.6414z" fill="#ffdeff"/><path d="m311.039 39.058c8.664-.5713 15.425-5.0114 15.117-9.8724-.309-4.8609-7.599-8.3589-16.262-7.7876-8.664.5713-15.426 5.0114-15.108 9.8724.319 4.8609 7.599 8.3588 16.253 7.7876z" fill="#ffdeff"/><path d="m326.674 193.136c7.9.993 15.875-1.125 22.26-5.909 6.385-4.785 10.687-11.868 12.007-19.769 5.746-32.824 6.971-107.4624 6.971-107.9535l-34.406-.2506c-.09.4711.876 91.5871-6.832 133.8821z" fill="#ff8cff"/><path d="m367.812 60.2957c.18-6.0136-7.369-11.1953-16.869-11.486-9.501-.2906-17.348 4.3899-17.527 10.4436-.18 6.0537 7.379 11.1953 16.879 11.4859 9.501.2907 17.338-4.3899 17.517-10.4435z" fill="#ffdeff"/><path d="m296.29 175.196h28.322c-10.685-27.191-27.545-132.9002-27.605-133.2009l-26.3 3.6583s12.498 91.9476 25.583 129.5426z" fill="#ff8cff"/><path d="m285.008 51.2555c7.249-1.1225 12.597-5.4723 11.95-9.7119-.648-4.2396-7.051-6.7753-14.301-5.6428-7.249 1.1326-12.597 5.4724-11.95 9.712s7.051 6.7653 14.301 5.6427z" fill="#ffdeff"/><path d="m317.124 193.337c.846-33.506-26.948-80.091-32.236-122.7472-.249-1.8843-.398-3.1572-.468-3.538l-30.931 4.8108c0 .3709.149 1.1827.299 2.3754 3.485 28.134 29.526 71.852 42.014 104.366 1.666 4.332 4.593 8.056 8.397 10.685 3.805 2.629 8.31 4.04 12.925 4.048z" fill="#ff8cff"/><path d="m270.418 78.2364c8.574-1.333 14.938-6.3343 14.191-11.1652-.747-4.831-8.285-7.6573-16.87-6.3243-8.584 1.333-14.937 6.3343-14.191 11.1552.747 4.8209 8.296 7.6673 16.87 6.3343z" fill="#ffdeff"/><path d="m319.623 193.517h2.29c-3.585-7.447-2.928-38.637-7.24-46.726-15.933-29.236-50.957-51.937-69.908-79.2588l-22.178 16.5574c18.225 26.1364 35.046 53.2364 50.39 81.1834l2.799 4.31c4.765 7.324 11.264 13.341 18.912 17.51 7.649 4.169 16.207 6.359 24.905 6.374z" fill="#ff8cff"/><path d="m238.68 82.7765c6.175-4.5102 8.963-11.2254 6.274-15.034s-9.958-3.1772-16.093 1.333c-6.134 4.5102-8.962 11.2254-6.274 15.034 2.689 3.8086 9.889 3.1772 16.093-1.333z" fill="#ffdeff"/><path d="m315.789 194.991c-22.506-40.913-79.837-95.005-82.656-98.9539l-20.554 18.5519c10.128 8.389 31.738 28.915 54.115 58.713 4.29 5.69 9.718 10.412 15.933 13.861 6.274 3.448 21.311 7.557 33.162 7.828z" fill="#ff8cff"/><path d="m228.851 113.737c6.175-4.51 8.445-11.977 5.069-16.6678-3.376-4.6906-11.103-4.8409-17.278-.3308-6.174 4.5106-8.444 11.9666-5.078 16.6576s11.113 4.841 17.287.341z" fill="#ffdeff"/><path d="m323.507 194.44 17.836.751c29.278-7.286-6.693-129.3721-6.822-129.8131l-33.032 9.3512s-1.225 116.3929 22.018 119.7109z" fill="#606"/><path d="m259.693 116.864c7.359-2.005 12.129-8.148 10.636-13.741-1.494-5.5927-8.664-8.5193-16.024-6.5349-7.359 1.9845-12.129 8.1489-10.645 13.7409 1.483 5.593 8.674 8.519 16.033 6.535z" fill="#ffdeff"/><path d="m320.988 79.8005c9.062-2.8765 15.127-9.3311 13.533-14.4226-1.593-5.0915-10.227-6.8856-19.279-4.0091-9.053 2.8765-15.117 9.3311-13.534 14.4227 1.583 5.0915 10.227 6.8855 19.28 4.009z" fill="#ffdeff"/><path d="m316.855 96.6578c-11.95-4.4701-26.45 7.1562-26.45 7.1562 0 1.483 10.427 23.754 12.847 67.503.368 6.344 5.825 23.623 24.338 24.114 34.965.912 21.132-26.51-10.735-98.7732z" fill="#ff8cff"/><g fill="#ffdeff"><path d="m304.546 111.151c7.598-.661 13.354-6.083 12.836-12.1069-.517-6.0237-7.1-10.3735-14.708-9.712-7.609.6615-13.355 6.0837-12.837 12.1069.518 6.024 7.101 10.324 14.709 9.712z"/><path d="m384.593 108.816c1.414-5.873-3.446-12.1172-10.865-13.9313s-14.579 1.4633-15.993 7.3363c-1.415 5.874 3.435 12.118 10.854 13.932s14.59-1.464 16.004-7.337z"/><path d="m403.036 60.7778c1.424-4.5704-3.725-10.2733-11.512-12.7388-7.788-2.4656-15.257-.7818-16.681 3.7785s3.734 10.2632 11.522 12.7388 15.246.7818 16.671-3.7785z"/></g></g><g clip-path="url(#d)"><path d="m137.56 29.3498s-7.77 42.72 19.77 75.1502c1.13 1.329 2.532 2.4 4.111 3.14 1.579.741 3.299 1.134 5.043 1.153 1.745.019 3.472-.337 5.067-1.043s3.02-1.746 4.179-3.05c1.55-1.74 10.05-2.12 10.42-4.43 4.18-26.9002-3.28-58.1602-13.92-75.7202" fill="#005955"/><path d="m155.77 44.43c-10.43 0-18.29-5.89-18.29-13.71s7.86-13.72 18.29-13.72 18.29 5.9 18.29 13.72-7.87 13.71-18.29 13.71z" fill="#d4efee"/><g fill="#005955"><path d="m155.77 35.2701c6.51 0 11.79-3.24 11.79-7.22s-5.28-7.22-11.79-7.22-11.79 3.23-11.79 7.22 5.27 7.22 11.79 7.22z"/><path d="m216.23 41.86s-10.84 2.13-32.46-1.9c-3.57 7.31-8.41 40.07-4.63 64.37.332 2.077 1.253 4.016 2.653 5.586 1.401 1.57 3.222 2.705 5.248 3.272 2.026.566 4.172.539 6.184-.077 2.011-.617 3.804-1.797 5.165-3.401 24.86-29.28 17.85-67.86 17.85-67.86"/><path d="m105.57 83.2504s7.46-5.05 23.3-19.89c12.4 3.35 57.32 43.2196 27.23 62.3396s-50.53-42.4496-50.53-42.4496z"/></g><path d="m183.28 43.09c0-7.06 7.1-12.38 16.52-12.38s16.51 5.32 16.51 12.38-7.11 12.3899-16.51 12.3899-16.52-5.3199-16.52-12.3899z" fill="#d4efee"/><path d="m199.8 47.2001c5.88 0 10.65-2.92 10.65-6.52s-4.77-6.5199-10.65-6.5199-10.65 2.9199-10.65 6.5499 4.76 6.49 10.65 6.49z" fill="#005955"/><path d="m213.11 77.8203c-21 6.07-33.37 40.5897-8 48.0597 19.19 5.64 31.57-20.26 30.64-31.6097-.93-11.35-13.84-14.31-22.64-16.45z" fill="#98dfdc"/><path d="m208.37 81.4798c3.74-5.48 12.07-5.87 19.38-.89s10 12.87 6.29 18.35c-3.71 5.4802-12.06 5.8702-19.38.9-7.32-4.97-10.02-12.87-6.29-18.36z" fill="#d4efee"/><path d="m231.3 95.3c2.46-3.64.23-9.44-5-12.95s-11.41-3.4-13.87.24-.24 9.45 5 13 11.41 3.36 13.87-.29z" fill="#005955"/><path d="m127.22 86.5695c-7.72 5.25-16.51 4.85-20.45-.94s-1.08-14.12 6.64-19.37 16.51-4.85 20.45.94 1.07 14.12-6.64 19.37z" fill="#d4efee"/><path d="m124.35 82.6098c5.47-3.72 7.79-9.84 5.18-13.68s-9.15-3.92-14.62-.19-7.79 9.84-5.19 13.67 9.16 3.92 14.63.2z" fill="#005955"/><path d="m157.38 77.4502c22.25 8.61 35.75 46.3598 8.88 53.2098-28.38 7.24-33.68-33.6398-33.68-33.6398s7.65-4.74 24.8-19.57z" fill="#98dfdc"/><path d="m155.66 101.82c-8.1 5.51-17.32 5.09-21.46-1-4.14-6.0899-1.14-14.8099 7-20.3199s17.33-5.09 21.46 1 1.1 14.81-7 20.3199z" fill="#d4efee"/><path d="m153.75 97.4006c5.74-3.9 8.18-10.33 5.44-14.34s-9.6-4.12-15.34-.21-8.18 10.33-5.44 14.35c2.74 4.0204 9.6 4.1104 15.34.2z" fill="#005955"/><path d="m206.35 113.71s-6.88-4.47-22.37-17.8096c-16 5.4796-21.9 26.3396-11.8 36.1096s31.11 8.17 34.18-18.28" fill="#005955"/><path d="m179.26 99.51c3.73-5.48 12.06-5.8599 19.37-.8899 7.31 4.9699 10 12.8699 6.29 18.3599s-12.06 5.87-19.38.89-10.02-12.87-6.28-18.36z" fill="#d4efee"/><path d="m201.5 113.63c2.46-3.65.23-9.45-5-13-5.23-3.5502-11.42-3.4002-13.87.25-2.45 3.65-.24 9.44 5 13s11.41 3.39 13.87-.25z" fill="#005955"/></g><g clip-path="url(#e)"><path d="m1.11982 107.153-11.78002 9.55c-.4427.443-.7898.972-1.0199 1.555-.23.583-.338 1.207-.3174 1.833s.1695 1.241.4373 1.807c.2679.567.6491 1.072 1.12 1.485l7.86001 6.87c.49187.431 1.07046.751 1.696686.939.626223.188 1.2855.24 1.933324.151l32.54998-4.42c.8506-.118 1.7173.006 2.5.36l18.41 8.3c.9417.424 1.9994.515 3 .26l21.33-5.4c.2484-.068.503-.112.76-.13l36.0002-2.87c.391-.03.784-.01 1.17.06l8.51 1.52c.845.152 1.715.063 2.511-.257.797-.32 1.487-.858 1.992-1.552s.805-1.516.864-2.372c.06-.856-.123-1.712-.527-2.469l-9.67-18.23-3.65-10.59c-1.305-3.7647-3.428-7.1938-6.215-10.0413-2.787-2.8476-6.169-5.043-9.905-6.4287l-44.0002-16.38c-3.7013-1.3808-7.6605-1.9326-11.5982-1.6164-3.9378.3162-7.7583 1.4927-11.1918 3.4464l-19.22 10.89c-5.23265 2.9717-9.32593 7.6023-11.63308 13.1602-2.307149 5.5578-2.696621 11.7259-1.1069 17.5298.20425.527.23587 1.106.0903 1.652s-.46081 1.032-.9003 1.388z" fill="#ffcba6"/><g fill="#ff9950"><path d="m118.44 98.2543-1.4-4c-38.0001-17.62-59.8101-17.39-91.3001-17-5.13.06-10.54.12-16.31998.11-.99329.927-1.91275 1.93-2.75 3 6.83998.05 13.15998 0 19.10998-.09 31.81-.35 53.58-.62 92.6601 17.98z"/><path d="m104.66 128.282c-33.2999-19.55-67.9399-32.84-101.6199-41.7-.48311 1.156-.88085 2.3459-1.19 3.56 33.5912 8.676 65.9144 21.675 96.16 38.67z"/></g></g></svg>