<svg fill="none" height="94" viewBox="0 0 349 94" width="349" xmlns="http://www.w3.org/2000/svg" xmlns:xlink="http://www.w3.org/1999/xlink"><clipPath id="a"><path d="m0 25h80v112h-80z"/></clipPath><clipPath id="b"><path d="m134 0h261v225h-261z"/></clipPath><clipPath id="c"><path d="m0 0h99v91h-99z" transform="matrix(-1 0 0 1 158 49)"/></clipPath><g clip-path="url(#a)"><path d="m79.8765 109.091c-1.1428-1.095-4.5334.519-5.5619 1.316-.8477.653-1.9047 1.46-2.9904 2.411-.0911.081-.2003.139-.3182.168s-.2411.029-.359 0-.2271-.087-.3181-.168-.1613-.183-.2047-.297c-.9087-2.203-1.9586-4.343-3.1429-6.408-.4575-.79-.7306-1.675-.7987-2.587s.0706-1.828.4056-2.678c.335-.8498.8576-1.6116 1.528-2.2276.6704-.6159 1.4711-1.0697 2.3413-1.327.9352-.2789 1.8905-.4845 2.8571-.6149 3.0286-.3651 6.4571-1.028 6.7238-2.5939.2666-1.566-4.1905-2.104-6.1524-2.2097-2.1492-.0903-4.302.0287-6.4285.3555-.3495.0687-.711.0372-1.0436-.0909-.3325-.1281-.6229-.3476-.8381-.6337-.2151-.2861-.3465-.6272-.3792-.9848s.0345-.7173.1942-1.0382c.7684-1.7989 1.7263-3.5092 2.8571-5.1014 1.9048-2.4018 3.8096-5.3128 2.9525-6.6097-.8572-1.297-4.4382 1.4891-5.9049 2.7956-3.3142 2.9686-6.3619 5.8412-7.9905 10.5198 0 0-.438 1.3066-.8285 2.2673-.5715 1.4411-3.2858-.8262-4.1905-1.9887-.5847-.7826-.9759-1.6946-1.1416-2.6603-.1656-.9656-.1008-1.9572.1892-2.8926 1.1048-4.669 4.0191-8.4542 4.9238-9.7896 1.562-2.2097 4.162-4.6307 3.0953-5.7643-1.0667-1.1337-4.4.1153-6.6667 2.0943-2.4067 2.3219-4.4606 4.9894-6.0952 7.9163-.1837.3328-.4456.615-.7627.8218s-.6797.3318-1.056.364c-.3762.0323-.7545-.0292-1.1016-.179-.3472-.1498-.6526-.3834-.8893-.6801-2-2.421-3.7238-4.9477-3.4476-6.725.3714-2.4018 6.7905-9.4631 10.4762-11.6919 2.6191-1.5948 5.4668-3.6219 5.0763-5.1591-.3905-1.5371-4.6763-.1729-6.5049.538-2.1297.8591-4.1659 1.9376-6.0762 3.2184-.196.1279-.4264.1915-.6597.1822-.2333-.0092-.458-.0909-.6435-.2339s-.3227-.3402-.3928-.5648c-.0702-.2246-.0698-.4656.0009-.69 2.0476-6.3696 4.2381-16.2745 4.0476-22.6825-.219-7.0132-.5905-11.7495-3.2095-11.7495-2.6286 0-3.4191 5.38-4.5619 11.7783-.3048 1.6717-.5715 3.2472-.9524 4.8036-.0895.4332-.289.8356-.579 1.1677-.2899.3322-.6604.5826-1.0751.7269-.4148.1443-.8595.1775-1.2907.0963-.4313-.0812-.8344-.274-1.1696-.5594-2.1981-1.8165-4.6099-3.3524-7.1809-4.573-2.3905-1.1625-4.8857-1.8254-5.7904-.5188-.9048 1.3066-.0001 3.2664 2.5333 5.2551 2.9345 2.2607 5.6773 4.764 8.1999 7.484.7647.8613 1.2926 1.9095 1.5315 3.0403s.1805 2.305-.1695 3.406c-.419 1.3642-.8286 2.8053-1.2 4.3425-.3122 1.3027-.5381 2.625-.6762 3.9581-.0321.2895-.1314.5673-.2898.8109-.1584.2435-.3714.446-.6218.5911-.2505.145-.5312.2285-.8195.2436-.2884.0151-.5763-.0385-.8404-.1565-5.748-2.3633-11.816-3.8401-17.99992-4.3808-2.16191-.2306-8.200045-.5669-8.49528324.9607-.29523776 1.5275 7.32385324 3.8428 8.85719324 4.1887 2.01901.5092 4.97141 1.3258 8.16181 2.3825-2.0858 1.2274-4.0531 2.6491-5.8761 4.2464-.9524.8262-3.32382 3.7852-2.53334 5.159.53333.9608 5.02854-1.172 6.56184-1.8253 3.2381-1.3835 8.6953-3.6796 13.2095-2.8245.4682.1414.891.4051 1.2255.7645s.5688.8016.6793 1.2818c1.2571 4.6883 3.3715 8.2237 6.9715 12.8447-6.8754-.5049-13.7851-.231-20.6.8167-1.5429.3458-6.99051 1.7965-6.80956 3.3817.18096 1.5851 7.55236 1.5275 9.14286 1.5755 3.019.0961 7.2762.2018 11.7334.5092-.9524.7494-1.9048 1.4891-2.6191 2.104-.9524.8262-3.3333 3.7854-2.5333 5.1594.5333.96 5.0285-1.182 6.5523-1.826 3.2381-1.383 8.7524-3.9099 13.2191-2.8243.7045.204 1.338.6035 1.8285 1.1529 1.2 1.0664 1.0191.9604 2.3429 2.0364 1.8175 1.456 3.4861 3.091 4.981 4.881.1096.128.1722.29.1775.46.0053.169-.0471.335-.1486.47-.1014.135-.2457.23-.4087.271s-.3349.023-.4869-.048c-1.5356-.727-3.1093-1.368-4.7143-1.922-1.5143-.451-6.9809-1.844-7.619-.374-.6381 1.469 5.8571 5.034 7.2285 5.86s3 1.796 4.7619 2.882c.1284.077.2298.192.29.329.0602.138.0762.291.0458.438-.0305.148-.1058.282-.2156.383-.1097.102-.2484.167-.3964.185-1.6276.239-3.2423.559-4.8381.961-1.2666.288-4.6667 1.873-4.5714 3.459.0666 1.066 5.019 1.229 6.6666 1.345 3.5048.23 10.5811-.433 13.0573 3.468.386.58.7055 1.202.9523 1.854 1.1619 4.323.7905 5.697.8 5.841.0937 1.208.6364 2.336 1.5195 3.157s2.0413 1.276 3.2424 1.272h.3715c1.2591-.098 2.428-.697 3.2496-1.664.8216-.968 1.2285-2.225 1.1313-3.495-.1776-2.723-.5468-5.429-1.1048-8.099-.3916-1.939-.0155-3.956 1.0477-5.62.7333-1.124 1.4571-2.142 2.0666-2.988 1-1.354 4.0477-5.303 3.2762-6.033z" fill="#7bdeff"/></g><g clip-path="url(#b)"><path d="m280.323 191.499h17.62c-19.407-66.872-23.122-133.8205-14.848-183.54099l-27.659.3903c-4.874 44.45139 2.317 65.22429 6.097 98.10769 4.375 36.016 10.494 64.216 18.79 85.043z" fill="#005955"/><path d="m269.265 16.6855c7.646 0 13.83-3.7295 13.83-8.33731 0-4.60777-6.184-8.34819-13.83-8.34819s-13.83 3.74042-13.83 8.34819c0 4.60781 6.195 8.33731 13.83 8.33731z" fill="#98dfdc"/><path d="m236.656 146.581 34.353 6.96c4.083-36.016-7.267-89.4447-10.733-122.3496l-34.07 2.6346c0 .4228 4.797 76.142 10.45 112.755z" fill="#00a099"/><path d="m280.041 193.96-42.854-18.615c22.44-50.956 54.03-81.7147 67.145-155.8401l26.306 3.8814c-.347 51.7804-11.913 61.9067-20.349 92.6217-9.347 33.501-19.375 59.391-30.248 77.952z" fill="#005955"/><path d="m330.638 23.6027c.682-4.3367-4.668-8.836-11.913-9.9527s-13.711 1.5178-14.382 5.8871c-.671 4.3692 4.679 8.836 11.913 9.9636 7.234 1.1275 13.678-1.5179 14.382-5.898z" fill="#98dfdc"/><path d="m260.883 210.635c13.548-57.96 52.319-154.3658 52.427-154.7561l30.725 9.4432s-23.068 79.7199-38.652 114.9229c-3.823 8.734-10.026 16.214-17.898 21.583-7.872 5.368-17.095 8.409-26.613 8.774z" fill="#00a099"/><path d="m300.813 195.195-41.154-20.859c14.805-52.702 90.971-116.1485 90.971-116.1485l23.696 16.5121c-.206.3144-50.186 62.4924-73.513 120.4954z" fill="#00a099"/><path d="m374.098 75.069c2.654-3.8055-.487-10.6033-7.017-15.1786-6.531-4.5752-13.982-5.2149-16.646-1.4094s.498 10.6033 7.029 15.1785c6.53 4.5753 13.981 5.2149 16.634 1.4095z" fill="#98dfdc"/><path d="m300.813 195.196c-3.038.388-6.124-.006-8.967-1.143-2.844-1.136-5.351-2.979-7.286-5.355-1.935-2.375-3.234-5.205-3.775-8.222-.54-3.017-.304-6.123.686-9.023 13.277-38.706 39.821-92.0906 39.94-92.4159l32.631 10.0721c-.856 4.727-6.044 41.1118-14.242 71.9358-2.373 8.926-7.349 16.943-14.293 23.025-6.944 6.083-15.541 9.957-24.694 11.126z" fill="#005955"/><path d="m353.901 89.6723c1.581-5.0415-4.43-11.4273-13.429-14.2787-9-2.8514-17.588-1.0842-19.18 3.9681s4.429 11.4381 13.429 14.2895 17.577 1.0625 19.18-3.9789z" fill="#98dfdc"/><path d="m274.431 210.223c5.079-7.361 39.507-92.947 90.115-121.4281l20.75 21.6841c-1.083 1.084-41.76 48.788-66.062 77.681-5.536 6.582-12.377 11.941-20.089 15.739s-16.128 5.951-24.714 6.324z" fill="#00a099"/><path d="m258.327 158.756 36.063 6.917c9.379-38.857 8.361-128.3991 8.274-129.6675l-37.72-2.0817c0 .4445-7.884 83.8612-6.617 124.8322z" fill="#00a099"/><path d="m302.664 35.9191c.347-5.8329-7.819-11.0586-18.237-11.6658-10.419-.6071-19.126 3.6212-19.494 9.4541s7.83 11.0478 18.248 11.6657c10.419.618 19.147-3.632 19.483-9.454z" fill="#98dfdc"/><path d="m262.215 211.372 14.133-9.411c-15.682-52.539-49.103-112.0063-86.303-168.2969l-22.505 14.2569c2.686 3.9465 77.033 151.135 94.675 163.451z" fill="#005955"/><path d="m183.233 47.4978c6.129-4.0765 9.118-10.3756 6.682-14.0943-2.437-3.7188-9.39-3.3827-15.519.6939-6.13 4.0765-9.13 10.3756-6.683 14.0943 2.448 3.7187 9.39 3.3826 15.52-.6939z" fill="#98dfdc"/><path d="m243.88 42.2504c9.422-.6179 16.775-5.4209 16.44-10.6791-.336-5.2583-8.263-9.0421-17.685-8.4241s-16.776 5.4209-16.429 10.6792c.346 5.2582 8.263 9.042 17.674 8.424z" fill="#98dfdc"/><path d="m260.883 208.922c8.59 1.073 17.263-1.217 24.207-6.393s11.623-12.837 13.058-21.384c6.249-35.507 7.581-116.246 7.581-116.7773l-37.417-.271c-.097.5095.953 99.0723-7.429 144.8253z" fill="#00a099"/><path d="m305.621 65.2238c.195-6.5051-8.014-12.1103-18.346-12.4248-10.331-.3144-18.865 4.7488-19.06 11.2972-.195 6.5485 8.025 12.1103 18.356 12.4247 10.332.3144 18.855-4.7487 19.05-11.2971z" fill="#98dfdc"/><path d="m227.841 189.515h30.8c-11.62-29.413-29.955-143.762-30.02-144.0873l-28.602 3.9573s13.592 99.463 27.822 140.13z" fill="#00a099"/><path d="m215.571 55.4447c7.884-1.2143 13.7-5.9197 12.996-10.5058-.704-4.586-7.668-7.329-15.552-6.1039s-13.7 5.9196-12.996 10.5057 7.668 7.3182 15.552 6.104z" fill="#98dfdc"/><path d="m250.497 209.138c.92-36.244-29.306-86.637-35.056-132.7796-.271-2.0383-.434-3.4152-.509-3.8272l-33.638 5.2041c0 .4012.162 1.2794.325 2.5695 3.79 30.4332 32.11 77.7252 45.691 112.8962 1.811 4.685 4.994 8.714 9.131 11.558 4.138 2.844 9.037 4.37 14.056 4.379z" fill="#00a099"/><path d="m199.705 84.6313c9.324-1.442 16.244-6.8521 15.432-12.0778-.812-5.2258-9.01-8.2832-18.346-6.8412-9.335 1.442-16.244 6.852-15.432 12.0669.812 5.215 9.021 8.294 18.346 6.8521z" fill="#98dfdc"/><path d="m253.215 209.334h2.491c-3.899-8.055-3.184-41.795-7.873-50.544-17.328-31.626-55.417-56.183-76.026-85.7373l-24.118 17.9107c19.82 28.2716 38.113 57.5866 54.799 87.8186l3.043 4.662c5.182 7.922 12.25 14.431 20.568 18.941 8.317 4.51 17.624 6.879 27.084 6.895z" fill="#00a099"/><path d="m165.19 89.5423c6.715-4.8788 9.747-12.1429 6.823-16.2627-2.924-4.1199-10.83-3.4369-17.501 1.4419s-9.747 12.1428-6.823 16.2627 10.754 3.4369 17.501-1.4419z" fill="#98dfdc"/><path d="m257.439 210.331 19.396.813c31.84-7.882-7.277-139.9463-7.418-140.4233l-35.923 10.1154s-1.332 125.9059 23.945 129.4949z" fill="#005955"/><g fill="#98dfdc"><path d="m254.699 86.3224c9.855-3.1116 16.45-10.0938 14.718-15.6014-1.733-5.5076-11.123-7.4483-20.967-4.3367s-16.44 10.0937-14.718 15.6014c1.722 5.5076 11.123 7.4483 20.967 4.3367z"/><path d="m343.926 65.7446c1.549-4.9438-4.05-11.1128-12.519-13.7799s-16.592-.8456-18.14 4.0874c-1.549 4.933 4.061 11.102 12.53 13.7799 8.469 2.678 16.58.8457 18.129-4.0874z"/></g></g><g clip-path="url(#c)"><path d="m133.356 58.3274s5.881 32.2642-14.964 56.7566c-.855 1.004-1.916 1.813-3.111 2.372-1.196.56-2.497.856-3.817.871-1.321.014-2.629-.255-3.836-.788s-2.285-1.319-3.162-2.304c-1.173-1.314-7.6069-1.601-7.887-3.345-3.1638-20.3166 2.4826-43.9257 10.536-57.1879" fill="#002c9b"/><path d="m119.573 69.7165c7.894 0 13.844-4.4484 13.844-10.3545 0-5.906-5.95-10.362-13.844-10.362s-13.843 4.456-13.843 10.362c0 5.9061 5.956 10.3545 13.843 10.3545z" fill="#92bfff"/><g fill="#002c9b"><path d="m119.573 62.7984c-4.927 0-8.924-2.447-8.924-5.4529s3.997-5.4529 8.924-5.4529 8.924 2.4394 8.924 5.4529c0 3.0134-3.989 5.4529-8.924 5.4529z"/><path d="m73.812 67.7758s8.2046 1.6087 24.5683-1.435c2.7017 5.5209 6.3657 30.2629 3.5047 48.6152-.252 1.569-.949 3.033-2.0086 4.219-1.06 1.186-2.4385 2.043-3.972 2.471-1.5336.428-3.1579.408-4.6803-.058-1.5225-.466-2.8792-1.357-3.9094-2.569-18.816-22.1132-13.5103-51.2507-13.5103-51.2507"/><path d="m157.568 99.0356s-5.646-3.814-17.635-15.0219c-9.385 2.5301-43.3844 32.6423-20.61 47.0823 22.775 14.44 38.245-32.0604 38.245-32.0604z"/></g><path d="m98.7515 68.7045c0-5.3321-5.3739-9.35-12.5037-9.35s-12.4961 4.0179-12.4961 9.35c0 5.332 5.3814 9.3575 12.4961 9.3575s12.5037-4.0179 12.5037-9.3575z" fill="#92bfff"/><path d="m86.2478 71.8084c-4.4504 0-8.0608-2.2053-8.0608-4.9242s3.6104-4.9242 8.0608-4.9242c4.4505 0 8.0608 2.2053 8.0608 4.9468 0 2.7416-3.6028 4.9016-8.0608 4.9016z" fill="#002c9b"/><path d="m79.7615 97.6983c-2.8308-4.1388-9.1356-4.4333-14.6684-.6722-5.5328 3.7609-7.5688 9.7199-4.7608 13.8589 2.8081 4.139 9.128 4.433 14.6684.68 5.5404-3.754 7.5839-9.72 4.7608-13.8667z" fill="#92bfff"/><path d="m141.182 101.542c5.843 3.965 12.496 3.663 15.478-.71 2.982-4.3725.818-10.6637-5.026-14.6288-5.843-3.9651-12.496-3.663-15.478.7099s-.81 10.6642 5.026 14.6289z" fill="#92bfff"/><path d="m143.355 98.5521c-4.141-2.8095-5.897-7.4316-3.921-10.3318 1.975-2.9002 6.925-2.9606 11.066-.1435 4.14 2.8171 5.896 7.4317 3.928 10.3243-1.968 2.8929-6.933 2.9609-11.073.151z" fill="#002c9b"/><path d="m119.657 113.06c6.13 4.161 13.109 3.844 16.242-.755 3.134-4.6.863-11.185-5.298-15.3469-6.161-4.1614-13.117-3.8442-16.243.7552-3.125 4.5997-.832 11.1857 5.299 15.3467z" fill="#92bfff"/></g></svg>
