<svg width="40" height="40" viewBox="0 0 40 40" fill="none" xmlns="http://www.w3.org/2000/svg">
<path d="M0 4C0 1.79086 1.79086 0 4 0H36C38.2091 0 40 1.79086 40 4V36C40 38.2091 38.2091 40 36 40H4C1.79086 40 0 38.2091 0 36V4Z" fill="white" fill-opacity="0.2"/>
<path d="M16.7534 27.5C23.3572 27.5 26.9692 22.2096 26.9692 17.6218C26.9692 17.4715 26.9692 17.3219 26.9587 17.173C27.6614 16.6815 28.2679 16.073 28.75 15.3759C28.0947 15.6567 27.3996 15.8408 26.6878 15.9221C27.4373 15.4883 27.9983 14.8058 28.2663 14.0018C27.5615 14.4062 26.7905 14.6912 25.9864 14.8444C24.8734 13.7002 23.105 13.4201 21.6726 14.1613C20.2404 14.9025 19.5004 16.4807 19.8677 18.0109C18.4402 17.9417 17.0438 17.583 15.769 16.9581C14.4942 16.3332 13.3695 15.4561 12.468 14.3836C11.5151 15.97 12.0018 17.9994 13.5796 19.0181C13.0082 19.0017 12.4493 18.8527 11.95 18.5836V18.6276C11.9506 20.2802 13.1553 21.7037 14.8305 22.0309C14.3019 22.1703 13.7473 22.1907 13.2093 22.0904C13.6797 23.5047 15.0276 24.4735 16.5637 24.5015C15.2924 25.4677 13.7218 25.9922 12.1048 25.9906C11.8191 25.9901 11.5337 25.9734 11.25 25.9405C12.892 26.9594 14.8024 27.4998 16.7534 27.4973" fill="white"/>
</svg>
