<svg width="40" height="40" viewBox="0 0 40 40" fill="none" xmlns="http://www.w3.org/2000/svg">
<path d="M0 4C0 1.79086 1.79086 0 4 0H36C38.2091 0 40 1.79086 40 4V36C40 38.2091 38.2091 40 36 40H4C1.79086 40 0 38.2091 0 36V4Z" fill="white" fill-opacity="0.2"/>
<path d="M28.3895 15.7059C28.7644 17.1029 28.7499 20.0147 28.7499 20.0147C28.7499 20.0147 28.7499 22.9117 28.3895 24.3089C28.1877 25.0735 27.5967 25.6764 26.8472 25.8823C25.4777 26.25 20 26.25 20 26.25C20 26.25 14.5366 26.25 13.1528 25.8676C12.4032 25.6617 11.8122 25.0588 11.6104 24.2941C11.25 22.9118 11.25 20 11.25 20C11.25 20 11.25 17.1029 11.6104 15.7059C11.8122 14.9411 12.4176 14.3236 13.1528 14.1177C14.5223 13.75 20 13.75 20 13.75C20 13.75 25.4777 13.75 26.8472 14.1323C27.5967 14.3382 28.1877 14.9412 28.3895 15.7059ZM18.2557 22.6765L22.8109 20L18.2557 17.3235V22.6765Z" fill="white"/>
</svg>
