<svg width="40" height="40" viewBox="0 0 40 40" fill="none" xmlns="http://www.w3.org/2000/svg">
<path d="M0 4C0 1.79086 1.79086 0 4 0H36C38.2091 0 40 1.79086 40 4V36C40 38.2091 38.2091 40 36 40H4C1.79086 40 0 38.2091 0 36V4Z" fill="white" fill-opacity="0.2"/>
<path d="M17.8125 17.0833H15.625V20H17.8125V28.75H21.4583V20H24.114L24.375 17.0833H21.4583V15.8678C21.4583 15.1715 21.5983 14.8958 22.2714 14.8958H24.375V11.25H21.5983C18.9763 11.25 17.8125 12.4043 17.8125 14.6151V17.0833Z" fill="white"/>
</svg>
