<svg width="40" height="40" viewBox="0 0 40 40" fill="none" xmlns="http://www.w3.org/2000/svg">
<path d="M0 4C0 1.79086 1.79086 0 4 0H36C38.2091 0 40 1.79086 40 4V36C40 38.2091 38.2091 40 36 40H4C1.79086 40 0 38.2091 0 36V4Z" fill="white" fill-opacity="0.2"/>
<path d="M15.9422 18.1363C15.7906 18.023 15.6387 17.9664 15.4871 17.9664H14.8059V22.0473H15.4875C15.6391 22.0473 15.791 21.9906 15.9426 21.8773C16.0941 21.7641 16.1699 21.5941 16.1699 21.3672V18.6465C16.1695 18.4199 16.0934 18.2496 15.9422 18.1363ZM27.0352 11.25H12.9648C12.0195 11.25 11.2523 12.0152 11.25 12.9609V27.0391C11.2523 27.9848 12.0195 28.75 12.9648 28.75H27.0352C27.9809 28.75 28.7477 27.9848 28.75 27.0391V12.9609C28.7477 12.0152 27.9805 11.25 27.0352 11.25ZM17.2734 21.3746C17.2734 22.1094 16.8199 23.2227 15.3844 23.2203H13.5719V16.757H15.4227C16.807 16.757 17.2727 17.8687 17.273 18.6039L17.2734 21.3746ZM21.2063 17.9113H19.125V19.4121H20.3973V20.5672H19.125V22.0676H21.2066V23.2227H18.7777C18.3418 23.234 17.9793 22.8895 17.9684 22.4535V17.5664C17.9578 17.1309 18.3027 16.7691 18.7383 16.7582H21.2066L21.2063 17.9113ZM25.2547 22.4148C24.7391 23.616 23.8152 23.377 23.4016 22.4148L21.8965 16.7586H23.1687L24.3293 21.2008L25.4844 16.7586H26.757L25.2547 22.4148Z" fill="white"/>
</svg>
