<svg width="40" height="40" viewBox="0 0 40 40" fill="none" xmlns="http://www.w3.org/2000/svg">
<path d="M0 4C0 1.79086 1.79086 0 4 0H36C38.2091 0 40 1.79086 40 4V36C40 38.2091 38.2091 40 36 40H4C1.79086 40 0 38.2091 0 36V4Z" fill="white" fill-opacity="0.2"/>
<path fill-rule="evenodd" clip-rule="evenodd" d="M27.4538 11.25C28.1674 11.25 28.75 11.8152 28.75 12.5109V27.4874C28.75 28.1842 28.1674 28.75 27.4538 28.75H12.5417C11.8288 28.75 11.25 28.1842 11.25 27.4874V12.511C11.25 11.8151 11.8288 11.25 12.5417 11.25H27.4538ZM26.1611 26.1623V21.5816C26.1611 19.3322 25.676 17.6029 23.0495 17.6029C21.7871 17.6029 20.94 18.2954 20.5935 18.952H20.5582V17.8109H18.0682V26.1623H20.6629V22.0314C20.6629 20.9415 20.8689 19.8866 22.2196 19.8866C23.5495 19.8866 23.5687 21.1324 23.5687 22.1011V26.1623H26.1612L26.1611 26.1623ZM15.1423 16.6692C15.9719 16.6692 16.6463 15.9948 16.6463 15.1639C16.6463 14.3339 15.9719 13.6592 15.1423 13.6592C14.3101 13.6592 13.6377 14.3339 13.6377 15.1639C13.6377 15.9948 14.3101 16.6692 15.1423 16.6692ZM13.8437 26.162H16.4404V17.8108H13.8437V26.162Z" fill="white"/>
</svg>
