<svg width="40" height="40" viewBox="0 0 40 40" fill="none" xmlns="http://www.w3.org/2000/svg">
<path d="M0 4C0 1.79086 1.79086 0 4 0H36C38.2091 0 40 1.79086 40 4V36C40 38.2091 38.2091 40 36 40H4C1.79086 40 0 38.2091 0 36V4Z" fill="white" fill-opacity="0.2"/>
<path fill-rule="evenodd" clip-rule="evenodd" d="M10 11.6129C10 10.7221 10.7221 10 11.6129 10H28.3871C29.2779 10 30 10.7221 30 11.6129V28.3871C30 29.2779 29.2779 30 28.3871 30H11.6129C10.7221 30 10 29.2779 10 28.3871V24.5161H11.9355V28.0645H28.0645V11.9355H11.9355V15.4839H10V11.6129Z" fill="white"/>
<path fill-rule="evenodd" clip-rule="evenodd" d="M18.3529 15H16V26H22.8235C23.4733 26 24 25.5075 24 24.9V19.62C24 19.0125 23.4733 18.52 22.8235 18.52H18.3529V15ZM18.3529 23.8V20.72H21.6471V23.8H18.3529Z" fill="white"/>
</svg>
