<svg width="40" height="40" viewBox="0 0 40 40" fill="none" xmlns="http://www.w3.org/2000/svg">
<path d="M0 4C0 1.79086 1.79086 0 4 0H36C38.2091 0 40 1.79086 40 4V36C40 38.2091 38.2091 40 36 40H4C1.79086 40 0 38.2091 0 36V4Z" fill="white" fill-opacity="0.2"/>
<path fill-rule="evenodd" clip-rule="evenodd" d="M12.4805 11.25L11.25 14.2534V26.5297H15.6246V28.75H18.0856L20.4099 26.5297H23.9647L28.75 21.9585V11.25H12.4805V11.25ZM27.1089 21.1754L24.3746 23.7873H20L17.6757 26.0076V23.7873H13.9842V12.817H27.1089V21.1754ZM24.3746 15.8211V20.3872H22.7342V15.8211H24.3746ZM20 15.8211V20.3872H18.3596V15.8211H20Z" fill="white"/>
</svg>
