<svg width="40" height="40" viewBox="0 0 40 40" fill="none" xmlns="http://www.w3.org/2000/svg">
<path d="M0 4C0 1.79086 1.79086 0 4 0H36C38.2091 0 40 1.79086 40 4V36C40 38.2091 38.2091 40 36 40H4C1.79086 40 0 38.2091 0 36V4Z" fill="white" fill-opacity="0.2"/>
<path fill-rule="evenodd" clip-rule="evenodd" d="M23.75 26.6965H13.75C13.75 28.1758 14.8693 29.375 16.25 29.375H23.75C25.1307 29.375 26.25 28.1758 26.25 26.6965V15.6971C26.25 15.6712 26.2404 15.6464 26.2233 15.6281C26.2062 15.6098 26.183 15.5995 26.1589 15.5995H23.8411C23.8169 15.5995 23.7937 15.6098 23.7766 15.6281C23.7595 15.6464 23.7499 15.6712 23.7499 15.6971L23.75 26.6965ZM23.75 10.625C25.1307 10.625 26.25 11.8242 26.25 13.3036H16.25V24.303C16.25 24.3289 16.2404 24.3537 16.2233 24.372C16.2063 24.3903 16.1831 24.4006 16.1589 24.4006H13.8411C13.8292 24.4006 13.8173 24.3981 13.8062 24.3932C13.7952 24.3883 13.7851 24.3811 13.7767 24.372C13.7682 24.3629 13.7615 24.3521 13.7569 24.3403C13.7523 24.3284 13.75 24.3157 13.75 24.3029V13.3036C13.75 11.8243 14.8693 10.625 16.25 10.625H23.75Z" fill="white"/>
</svg>
