<svg width="40" height="40" viewBox="0 0 40 40" fill="none" xmlns="http://www.w3.org/2000/svg">
<path d="M0 4C0 1.79086 1.79086 0 4 0H36C38.2091 0 40 1.79086 40 4V36C40 38.2091 38.2091 40 36 40H4C1.79086 40 0 38.2091 0 36V4Z" fill="white" fill-opacity="0.2"/>
<path fill-rule="evenodd" clip-rule="evenodd" d="M20 11.25C17.6236 11.25 17.3257 11.2601 16.3924 11.3027C15.461 11.3451 14.8249 11.493 14.2684 11.7094C13.693 11.9329 13.2051 12.2321 12.7186 12.7186C12.2321 13.2051 11.933 13.693 11.7094 14.2684C11.493 14.8249 11.3451 15.461 11.3027 16.3924C11.2601 17.3257 11.25 17.6236 11.25 20C11.25 22.3764 11.2601 22.6743 11.3027 23.6076C11.3451 24.539 11.493 25.1751 11.7094 25.7316C11.9329 26.307 12.2321 26.7949 12.7186 27.2814C13.2051 27.7679 13.693 28.067 14.2684 28.2906C14.8249 28.507 15.461 28.6549 16.3924 28.6973C17.3257 28.7399 17.6236 28.75 20 28.75C22.3764 28.75 22.6743 28.7399 23.6076 28.6973C24.539 28.6549 25.1751 28.507 25.7316 28.2906C26.307 28.0671 26.7949 27.7679 27.2814 27.2814C27.7679 26.7949 28.0671 26.307 28.2907 25.7316C28.507 25.1751 28.6549 24.539 28.6973 23.6076C28.7399 22.6743 28.75 22.3764 28.75 20C28.75 17.6236 28.7399 17.3257 28.6973 16.3924C28.6549 15.461 28.507 14.8249 28.2907 14.2684C28.0671 13.693 27.7679 13.2051 27.2814 12.7186C26.7949 12.2321 26.307 11.9329 25.7316 11.7094C25.1751 11.493 24.539 11.3451 23.6076 11.3027C22.6743 11.2601 22.3764 11.25 20 11.25ZM20 12.8265C22.3363 12.8265 22.6131 12.8355 23.5358 12.8776C24.3889 12.9165 24.8522 13.0591 25.1605 13.1788C25.569 13.3376 25.8604 13.5272 26.1666 13.8334C26.4728 14.1396 26.6624 14.431 26.8212 14.8395C26.9409 15.1478 27.0835 15.6111 27.1224 16.4642C27.1645 17.3869 27.1735 17.6637 27.1735 20C27.1735 22.3363 27.1645 22.6131 27.1224 23.5358C27.0835 24.3889 26.9409 24.8522 26.8212 25.1605C26.6624 25.569 26.4728 25.8604 26.1666 26.1665C25.8604 26.4728 25.569 26.6624 25.1605 26.8211C24.8522 26.9409 24.3889 27.0835 23.5358 27.1223C22.6133 27.1645 22.3366 27.1734 20 27.1734C17.6635 27.1734 17.3868 27.1645 16.4642 27.1223C15.6111 27.0835 15.1478 26.9409 14.8395 26.8211C14.431 26.6624 14.1396 26.4728 13.8335 26.1665C13.5273 25.8604 13.3376 25.569 13.1789 25.1605C13.0591 24.8522 12.9165 24.3889 12.8777 23.5358C12.8355 22.6131 12.8266 22.3363 12.8266 20C12.8266 17.6637 12.8355 17.3869 12.8777 16.4642C12.9165 15.6111 13.0591 15.1478 13.1789 14.8395C13.3376 14.431 13.5272 14.1396 13.8335 13.8334C14.1396 13.5272 14.431 13.3376 14.8395 13.1788C15.1478 13.0591 15.6111 12.9165 16.4642 12.8776C17.3869 12.8355 17.6637 12.8265 20 12.8265Z" fill="white"/>
<path fill-rule="evenodd" clip-rule="evenodd" d="M20.0001 22.9177C18.3893 22.9177 17.0834 21.6119 17.0834 20.0011C17.0834 18.3902 18.3893 17.0844 20.0001 17.0844C21.6109 17.0844 22.9168 18.3902 22.9168 20.0011C22.9168 21.6119 21.6109 22.9177 20.0001 22.9177ZM20.0001 15.5078C17.5185 15.5078 15.5068 17.5195 15.5068 20.0011C15.5068 22.4826 17.5185 24.4943 20.0001 24.4943C22.4816 24.4943 24.4933 22.4826 24.4933 20.0011C24.4933 17.5195 22.4816 15.5078 20.0001 15.5078V15.5078ZM25.7209 15.3303C25.7209 15.9102 25.2508 16.3803 24.6708 16.3803C24.091 16.3803 23.6209 15.9102 23.6209 15.3303C23.6209 14.7504 24.091 14.2803 24.6708 14.2803C25.2507 14.2803 25.7209 14.7504 25.7209 15.3303Z" fill="white"/>
</svg>
